%
M48
M72
T01C0.0236
T02C0.0400
T03C0.0469
T04C0.1252
%
T01
X11430Y10385
T02
X8180Y10885
X8180Y11885
X7180Y11885
X6180Y11885
X6180Y10885
X7180Y10885
X5180Y10885
X5180Y11885
X4180Y11885
X4180Y10885
T03
X4428Y4885
X5330Y4885
X6231Y4885
X7133Y4885
X8034Y4885
X8483Y5885
X7582Y5885
X7133Y6885
X8034Y6885
X6680Y5885
X5778Y5885
X4877Y5885
X4428Y6885
X5330Y6885
X6231Y6885
T04
X1416Y5885
X11255Y5885
M30
