G75*
%MOIN*%
%OFA0B0*%
%FSLAX24Y24*%
%IPPOS*%
%LPD*%
%AMOC8*
5,1,8,0,0,1.08239X$1,22.5*
%
%ADD10C,0.0703*%
%ADD11C,0.1878*%
%ADD12C,0.0600*%
%ADD13C,0.0160*%
%ADD14C,0.0396*%
D10*
X004428Y004885D03*
X005330Y004885D03*
X006231Y004885D03*
X007133Y004885D03*
X008034Y004885D03*
X008483Y005885D03*
X007582Y005885D03*
X007133Y006885D03*
X008034Y006885D03*
X006680Y005885D03*
X005778Y005885D03*
X004877Y005885D03*
X004428Y006885D03*
X005330Y006885D03*
X006231Y006885D03*
D11*
X001416Y005885D03*
X011255Y005885D03*
D12*
X008180Y010885D03*
X008180Y011885D03*
X007180Y011885D03*
X006180Y011885D03*
X006180Y010885D03*
X007180Y010885D03*
X005180Y010885D03*
X005180Y011885D03*
X004180Y011885D03*
X004180Y010885D03*
D13*
X000580Y004827D02*
X000580Y001785D01*
X012022Y001785D01*
X012022Y004782D01*
X011772Y004637D01*
X011431Y004546D01*
X011079Y004546D01*
X010738Y004637D01*
X010433Y004813D01*
X010183Y005063D01*
X010007Y005368D01*
X009916Y005708D01*
X009916Y006061D01*
X010007Y006402D01*
X010183Y006707D01*
X010433Y006956D01*
X010738Y007133D01*
X011079Y007224D01*
X011431Y007224D01*
X011772Y007133D01*
X012022Y006988D01*
X012022Y012855D01*
X000580Y012855D01*
X000580Y006942D01*
X000594Y006956D01*
X000899Y007133D01*
X001240Y007224D01*
X001593Y007224D01*
X001933Y007133D01*
X002238Y006956D01*
X002488Y006707D01*
X002664Y006402D01*
X002755Y006061D01*
X002755Y005708D01*
X002664Y005368D01*
X002488Y005063D01*
X002238Y004813D01*
X001933Y004637D01*
X001593Y004546D01*
X001240Y004546D01*
X000899Y004637D01*
X000594Y004813D01*
X000580Y004827D01*
X000580Y004713D02*
X000767Y004713D01*
X000580Y004555D02*
X001206Y004555D01*
X001626Y004555D02*
X003751Y004555D01*
X003791Y004459D02*
X003677Y004735D01*
X003677Y005034D01*
X003791Y005310D01*
X004002Y005522D01*
X004279Y005636D01*
X004577Y005636D01*
X004854Y005522D01*
X004879Y005497D01*
X004904Y005522D01*
X005180Y005636D01*
X005479Y005636D01*
X005755Y005522D01*
X005780Y005497D01*
X005806Y005522D01*
X006082Y005636D01*
X006381Y005636D01*
X006657Y005522D01*
X006682Y005497D01*
X006707Y005522D01*
X006983Y005636D01*
X007282Y005636D01*
X007558Y005522D01*
X007584Y005497D01*
X007609Y005522D01*
X007885Y005636D01*
X008184Y005636D01*
X008460Y005522D01*
X008671Y005310D01*
X008786Y005034D01*
X008786Y004735D01*
X008671Y004459D01*
X008460Y004248D01*
X008184Y004133D01*
X007885Y004133D01*
X007609Y004248D01*
X007584Y004273D01*
X007558Y004248D01*
X007282Y004133D01*
X006983Y004133D01*
X006707Y004248D01*
X006682Y004273D01*
X006657Y004248D01*
X006381Y004133D01*
X006082Y004133D01*
X005806Y004248D01*
X005780Y004273D01*
X005755Y004248D01*
X005479Y004133D01*
X005180Y004133D01*
X004904Y004248D01*
X004879Y004273D01*
X004854Y004248D01*
X004577Y004133D01*
X004279Y004133D01*
X004002Y004248D01*
X003791Y004459D01*
X003854Y004396D02*
X000580Y004396D01*
X000580Y004238D02*
X004027Y004238D01*
X003686Y004713D02*
X002065Y004713D01*
X002297Y004872D02*
X003677Y004872D01*
X003677Y005030D02*
X002455Y005030D01*
X002561Y005189D02*
X003741Y005189D01*
X003828Y005347D02*
X002652Y005347D01*
X002701Y005506D02*
X003986Y005506D01*
X004870Y005506D02*
X004888Y005506D01*
X005165Y006140D02*
X002734Y006140D01*
X002755Y005981D02*
X009916Y005981D01*
X009916Y005823D02*
X002755Y005823D01*
X002743Y005664D02*
X009928Y005664D01*
X009970Y005506D02*
X008476Y005506D01*
X008634Y005347D02*
X010019Y005347D01*
X010111Y005189D02*
X008722Y005189D01*
X008786Y005030D02*
X010216Y005030D01*
X010374Y004872D02*
X008786Y004872D01*
X008777Y004713D02*
X010606Y004713D01*
X011045Y004555D02*
X008711Y004555D01*
X008608Y004396D02*
X012022Y004396D01*
X012022Y004238D02*
X008436Y004238D01*
X007633Y004238D02*
X007534Y004238D01*
X006731Y004238D02*
X006633Y004238D01*
X005830Y004238D02*
X005731Y004238D01*
X004928Y004238D02*
X004829Y004238D01*
X005771Y005506D02*
X005790Y005506D01*
X006066Y006140D02*
X005494Y006140D01*
X005479Y006133D02*
X005755Y006248D01*
X005780Y006273D01*
X005806Y006248D01*
X006082Y006133D01*
X006381Y006133D01*
X006657Y006248D01*
X006682Y006273D01*
X006707Y006248D01*
X006983Y006133D01*
X007282Y006133D01*
X007558Y006248D01*
X007584Y006273D01*
X007609Y006248D01*
X007885Y006133D01*
X008184Y006133D01*
X008460Y006248D01*
X008671Y006459D01*
X008786Y006735D01*
X008786Y007034D01*
X008671Y007310D01*
X008460Y007522D01*
X008184Y007636D01*
X007885Y007636D01*
X007609Y007522D01*
X007584Y007497D01*
X007558Y007522D01*
X007282Y007636D01*
X006983Y007636D01*
X006707Y007522D01*
X006682Y007497D01*
X006657Y007522D01*
X006381Y007636D01*
X006082Y007636D01*
X005806Y007522D01*
X005780Y007497D01*
X005755Y007522D01*
X005479Y007636D01*
X005180Y007636D01*
X004904Y007522D01*
X004693Y007310D01*
X004578Y007034D01*
X004578Y006735D01*
X004693Y006459D01*
X004904Y006248D01*
X005180Y006133D01*
X005479Y006133D01*
X004853Y006298D02*
X002692Y006298D01*
X002632Y006457D02*
X004695Y006457D01*
X004628Y006615D02*
X002541Y006615D01*
X002421Y006774D02*
X004578Y006774D01*
X004578Y006932D02*
X002262Y006932D01*
X002005Y007091D02*
X004602Y007091D01*
X004667Y007249D02*
X000580Y007249D01*
X000580Y007091D02*
X000827Y007091D01*
X000580Y007408D02*
X004790Y007408D01*
X005011Y007566D02*
X000580Y007566D01*
X000580Y007725D02*
X012022Y007725D01*
X012022Y007566D02*
X008352Y007566D01*
X008574Y007408D02*
X012022Y007408D01*
X012022Y007249D02*
X008697Y007249D01*
X008762Y007091D02*
X010666Y007091D01*
X010409Y006932D02*
X008786Y006932D01*
X008786Y006774D02*
X010250Y006774D01*
X010130Y006615D02*
X008736Y006615D01*
X008669Y006457D02*
X010039Y006457D01*
X009979Y006298D02*
X008510Y006298D01*
X008199Y006140D02*
X009937Y006140D01*
X011465Y004555D02*
X012022Y004555D01*
X012022Y004713D02*
X011904Y004713D01*
X012022Y004079D02*
X000580Y004079D01*
X000580Y003921D02*
X012022Y003921D01*
X012022Y003762D02*
X000580Y003762D01*
X000580Y003604D02*
X012022Y003604D01*
X012022Y003445D02*
X000580Y003445D01*
X000580Y003287D02*
X012022Y003287D01*
X012022Y003128D02*
X000580Y003128D01*
X000580Y002970D02*
X012022Y002970D01*
X012022Y002811D02*
X000580Y002811D01*
X000580Y002653D02*
X012022Y002653D01*
X012022Y002494D02*
X000580Y002494D01*
X000580Y002336D02*
X012022Y002336D01*
X012022Y002177D02*
X000580Y002177D01*
X000580Y002019D02*
X012022Y002019D01*
X012022Y001860D02*
X000580Y001860D01*
X005648Y007566D02*
X005913Y007566D01*
X006549Y007566D02*
X006815Y007566D01*
X007451Y007566D02*
X007716Y007566D01*
X007869Y006140D02*
X007298Y006140D01*
X006968Y006140D02*
X006396Y006140D01*
X006673Y005506D02*
X006691Y005506D01*
X007574Y005506D02*
X007593Y005506D01*
X011844Y007091D02*
X012022Y007091D01*
X012022Y007883D02*
X000580Y007883D01*
X000580Y008042D02*
X012022Y008042D01*
X012022Y008200D02*
X000580Y008200D01*
X000580Y008359D02*
X012022Y008359D01*
X012022Y008517D02*
X000580Y008517D01*
X000580Y008676D02*
X012022Y008676D01*
X012022Y008834D02*
X000580Y008834D01*
X000580Y008993D02*
X012022Y008993D01*
X012022Y009151D02*
X000580Y009151D01*
X000580Y009310D02*
X012022Y009310D01*
X012022Y009468D02*
X000580Y009468D01*
X000580Y009627D02*
X012022Y009627D01*
X012022Y009785D02*
X000580Y009785D01*
X000580Y009944D02*
X012022Y009944D01*
X012022Y010102D02*
X000580Y010102D01*
X000580Y010261D02*
X003857Y010261D01*
X003783Y010291D02*
X004041Y010185D01*
X004319Y010185D01*
X004577Y010291D01*
X004680Y010395D01*
X004783Y010291D01*
X005041Y010185D01*
X005319Y010185D01*
X005577Y010291D01*
X005680Y010395D01*
X005783Y010291D01*
X006041Y010185D01*
X006319Y010185D01*
X006577Y010291D01*
X006680Y010395D01*
X006783Y010291D01*
X007041Y010185D01*
X007319Y010185D01*
X007577Y010291D01*
X007680Y010395D01*
X007783Y010291D01*
X008041Y010185D01*
X008319Y010185D01*
X008577Y010291D01*
X008773Y010488D01*
X008880Y010746D01*
X008880Y011024D01*
X008773Y011281D01*
X008670Y011385D01*
X008773Y011488D01*
X008880Y011746D01*
X008880Y012024D01*
X008773Y012281D01*
X008577Y012478D01*
X008319Y012585D01*
X008041Y012585D01*
X007783Y012478D01*
X007680Y012375D01*
X007577Y012478D01*
X007319Y012585D01*
X007041Y012585D01*
X006783Y012478D01*
X006587Y012281D01*
X006480Y012024D01*
X006480Y011746D01*
X006587Y011488D01*
X006690Y011385D01*
X006680Y011375D01*
X006577Y011478D01*
X006319Y011585D01*
X006041Y011585D01*
X005783Y011478D01*
X005680Y011375D01*
X005577Y011478D01*
X005319Y011585D01*
X005041Y011585D01*
X004783Y011478D01*
X004680Y011375D01*
X004577Y011478D01*
X004319Y011585D01*
X004041Y011585D01*
X003783Y011478D01*
X003587Y011281D01*
X003480Y011024D01*
X003480Y010746D01*
X003587Y010488D01*
X003783Y010291D01*
X003656Y010419D02*
X000580Y010419D01*
X000580Y010578D02*
X003549Y010578D01*
X003484Y010736D02*
X000580Y010736D01*
X000580Y010895D02*
X003480Y010895D01*
X003492Y011053D02*
X000580Y011053D01*
X000580Y011212D02*
X003558Y011212D01*
X003676Y011370D02*
X000580Y011370D01*
X000580Y011529D02*
X003906Y011529D01*
X004454Y011529D02*
X004906Y011529D01*
X005454Y011529D02*
X005906Y011529D01*
X006454Y011529D02*
X006570Y011529D01*
X006504Y011687D02*
X000580Y011687D01*
X000580Y011846D02*
X006480Y011846D01*
X006480Y012004D02*
X000580Y012004D01*
X000580Y012163D02*
X006537Y012163D01*
X006627Y012321D02*
X000580Y012321D01*
X000580Y012480D02*
X006787Y012480D01*
X007573Y012480D02*
X007787Y012480D01*
X008573Y012480D02*
X012022Y012480D01*
X012022Y012638D02*
X000580Y012638D01*
X000580Y012797D02*
X012022Y012797D01*
X012022Y012321D02*
X008733Y012321D01*
X008823Y012163D02*
X012022Y012163D01*
X012022Y012004D02*
X008880Y012004D01*
X008880Y011846D02*
X012022Y011846D01*
X012022Y011687D02*
X008856Y011687D01*
X008790Y011529D02*
X012022Y011529D01*
X012022Y011370D02*
X008684Y011370D01*
X008802Y011212D02*
X012022Y011212D01*
X012022Y011053D02*
X008868Y011053D01*
X008880Y010895D02*
X012022Y010895D01*
X012022Y010736D02*
X008876Y010736D01*
X008811Y010578D02*
X012022Y010578D01*
X012022Y010419D02*
X008704Y010419D01*
X008503Y010261D02*
X012022Y010261D01*
X007857Y010261D02*
X007503Y010261D01*
X006857Y010261D02*
X006503Y010261D01*
X005857Y010261D02*
X005503Y010261D01*
X004857Y010261D02*
X004503Y010261D01*
D14*
X011430Y010385D03*
M02*
