G75*
%MOIN*%
%OFA0B0*%
%FSLAX24Y24*%
%IPPOS*%
%LPD*%
%AMOC8*
5,1,8,0,0,1.08239X$1,22.5*
%
%ADD10R,0.0138X0.0630*%
%ADD11R,0.0600X0.0600*%
%ADD12C,0.0600*%
%ADD13C,0.0531*%
%ADD14R,0.0360X0.0380*%
%ADD15C,0.0475*%
%ADD16R,0.0630X0.0138*%
%ADD17R,0.0285X0.1260*%
%ADD18R,0.1260X0.0285*%
%ADD19C,0.0396*%
%ADD20C,0.0945*%
%ADD21R,0.0380X0.0360*%
%ADD22C,0.0260*%
%ADD23C,0.0100*%
%ADD24C,0.0160*%
%ADD25C,0.0240*%
D10*
X006886Y011735D03*
X007142Y011735D03*
X009542Y011766D03*
X009798Y011766D03*
X010323Y011766D03*
X010579Y011766D03*
X010579Y012516D03*
X010323Y012516D03*
X009954Y012798D03*
X009698Y012798D03*
X011542Y011735D03*
X011798Y011735D03*
X012386Y011735D03*
X012642Y011735D03*
X013105Y011735D03*
X013360Y011735D03*
X014667Y011673D03*
X014923Y011673D03*
X015823Y011641D03*
X016079Y011641D03*
X017480Y010516D03*
X017735Y010516D03*
X018511Y010329D03*
X018767Y010329D03*
X018767Y011048D03*
X018511Y011048D03*
X016642Y009766D03*
X016386Y009766D03*
X016667Y004266D03*
X016923Y004266D03*
X017261Y004266D03*
X017517Y004266D03*
X020636Y006298D03*
X020892Y006298D03*
X012798Y018016D03*
X012542Y018016D03*
X011110Y018048D03*
X010855Y018048D03*
X010517Y018048D03*
X010261Y018048D03*
X009954Y017829D03*
X009698Y017829D03*
X009698Y017110D03*
X009954Y017110D03*
X007704Y018048D03*
X007448Y018048D03*
X009698Y007048D03*
X009954Y007048D03*
D11*
X001358Y001641D03*
D12*
X002358Y001641D03*
X003358Y001641D03*
X004358Y001641D03*
X005358Y001641D03*
X006358Y001641D03*
X002420Y009704D03*
X002420Y010704D03*
X002420Y011704D03*
X002420Y012704D03*
X002420Y013704D03*
X002420Y014704D03*
X001420Y014704D03*
X001420Y013704D03*
X001420Y012704D03*
X001420Y011704D03*
X001420Y010704D03*
X001420Y009704D03*
X018201Y003423D03*
X018201Y002423D03*
X019201Y002423D03*
X019201Y003423D03*
X020201Y003423D03*
X020201Y002423D03*
X021201Y002423D03*
X021201Y003423D03*
X022201Y003423D03*
X022201Y002423D03*
D13*
X022589Y009998D03*
X022589Y010785D03*
X022589Y011573D03*
X022589Y012360D03*
X022589Y013148D03*
X022589Y013935D03*
X023376Y013935D03*
X023376Y013148D03*
X023376Y012360D03*
X023376Y011573D03*
X023376Y010785D03*
X023376Y009998D03*
X023376Y014722D03*
X022589Y014722D03*
D14*
X013939Y018641D03*
X013339Y018641D03*
X012501Y012360D03*
X011901Y012360D03*
X017276Y001735D03*
X017876Y001735D03*
X018839Y001735D03*
X019439Y001735D03*
X020339Y001735D03*
X020939Y001735D03*
X003751Y009673D03*
X003151Y009673D03*
X003183Y010704D03*
X003783Y010704D03*
X003814Y011735D03*
X003214Y011735D03*
X003214Y012704D03*
X003814Y012704D03*
X003845Y013704D03*
X003245Y013704D03*
X003245Y014704D03*
X003845Y014704D03*
D15*
X003451Y025985D03*
X004451Y025985D03*
X005451Y025985D03*
X006451Y025985D03*
X007451Y025985D03*
X008451Y025985D03*
X009451Y025985D03*
X010451Y025985D03*
X011451Y025985D03*
X012451Y025985D03*
X013451Y025985D03*
X014451Y025985D03*
X015451Y025985D03*
X016451Y025985D03*
X017451Y025985D03*
X018451Y025985D03*
X019451Y025985D03*
X020451Y025985D03*
X021451Y025985D03*
X022451Y025985D03*
X022451Y031985D03*
X021451Y031985D03*
X020451Y031985D03*
X019451Y031985D03*
X018451Y031985D03*
X017451Y031985D03*
X016451Y031985D03*
X015451Y031985D03*
X014451Y031985D03*
X013451Y031985D03*
X012451Y031985D03*
X011451Y031985D03*
X010451Y031985D03*
X009451Y031985D03*
X008451Y031985D03*
X007451Y031985D03*
X006451Y031985D03*
X005451Y031985D03*
X004451Y031985D03*
X003451Y031985D03*
D16*
X012326Y016863D03*
X012326Y016607D03*
X013108Y016607D03*
X013108Y016863D03*
X012920Y014988D03*
X012920Y014732D03*
X013108Y014394D03*
X013108Y014138D03*
X013108Y012676D03*
X013108Y012420D03*
X014420Y009676D03*
X014420Y009420D03*
X015108Y013795D03*
X015108Y014051D03*
X017889Y014076D03*
X017889Y014332D03*
X009545Y008707D03*
X009545Y008451D03*
X006576Y008326D03*
X006576Y008582D03*
X005264Y005582D03*
X005264Y005326D03*
X003889Y008263D03*
X003889Y008519D03*
X002951Y005269D03*
X002951Y005013D03*
X007451Y001957D03*
X007451Y001701D03*
X006826Y012982D03*
X006826Y013238D03*
X007233Y014107D03*
X007233Y014363D03*
X006826Y014607D03*
X006826Y014863D03*
X006795Y015138D03*
X006795Y015394D03*
X006795Y015732D03*
X006795Y015988D03*
X008014Y014363D03*
X008014Y014107D03*
D17*
X006929Y021673D03*
X006348Y021673D03*
X006242Y023985D03*
X005661Y023985D03*
D18*
X015108Y003838D03*
X015108Y003257D03*
X013076Y002744D03*
X013076Y002164D03*
D19*
X013983Y003016D03*
X014139Y002266D03*
X013983Y003891D03*
X021349Y006293D03*
X021822Y006608D03*
X021349Y006923D03*
X021822Y007238D03*
X021349Y007553D03*
X007451Y022766D03*
X006545Y022735D03*
X005670Y022829D03*
D20*
X021704Y008360D03*
X023534Y008360D03*
X023534Y005486D03*
X021704Y005486D03*
D21*
X011701Y026685D03*
X011701Y027285D03*
X011701Y028310D03*
X011701Y028910D03*
X011701Y029935D03*
X011701Y030535D03*
X010639Y030535D03*
X010639Y029935D03*
X010639Y028910D03*
X010639Y028310D03*
X010639Y027285D03*
X010639Y026685D03*
X009576Y026685D03*
X009576Y027285D03*
X009576Y028310D03*
X009576Y028910D03*
X009576Y029935D03*
X009576Y030535D03*
X008514Y030535D03*
X008514Y029935D03*
X008514Y028910D03*
X008514Y028310D03*
X008514Y027285D03*
X008514Y026685D03*
X007389Y026685D03*
X007389Y027285D03*
X007389Y028310D03*
X007389Y028910D03*
X007389Y029935D03*
X007389Y030535D03*
X006326Y030535D03*
X006326Y029935D03*
X006326Y028910D03*
X006326Y028310D03*
X006326Y027285D03*
X006326Y026685D03*
X005264Y026685D03*
X005264Y027285D03*
X005264Y028310D03*
X005264Y028910D03*
X005264Y029935D03*
X005264Y030535D03*
X004201Y030535D03*
X004201Y029935D03*
X004201Y028910D03*
X004201Y028310D03*
X004201Y027285D03*
X004201Y026685D03*
D22*
X004639Y024391D03*
X004920Y022079D03*
X006233Y019173D03*
X007451Y018579D03*
X007733Y017516D03*
X008889Y018579D03*
X009670Y018548D03*
X009951Y018360D03*
X010326Y018579D03*
X010858Y018579D03*
X011108Y017516D03*
X010545Y017516D03*
X009951Y020048D03*
X011295Y021204D03*
X012108Y021110D03*
X012608Y021173D03*
X013670Y019173D03*
X014420Y018891D03*
X014701Y019079D03*
X013639Y017454D03*
X013576Y017798D03*
X013639Y016923D03*
X013639Y016579D03*
X013639Y015954D03*
X013608Y015016D03*
X013451Y014735D03*
X013639Y014360D03*
X013639Y013860D03*
X013639Y012735D03*
X013639Y012391D03*
X013639Y011766D03*
X013358Y011204D03*
X012858Y011204D03*
X012389Y011204D03*
X011795Y011204D03*
X011295Y011204D03*
X010670Y011204D03*
X010295Y011235D03*
X009795Y011235D03*
X009951Y012266D03*
X009545Y012298D03*
X008858Y011204D03*
X007170Y011204D03*
X006826Y011204D03*
X006483Y011766D03*
X006295Y012923D03*
X006295Y013266D03*
X006295Y014079D03*
X006608Y014329D03*
X006264Y014673D03*
X006264Y015141D03*
X006264Y015735D03*
X007326Y015985D03*
X007326Y015391D03*
X007358Y014829D03*
X006264Y017516D03*
X003795Y018673D03*
X003514Y018454D03*
X003264Y018954D03*
X003014Y018298D03*
X001889Y017016D03*
X001889Y020016D03*
X001545Y021079D03*
X001233Y020923D03*
X002608Y023110D03*
X001451Y024360D03*
X001170Y024516D03*
X004201Y029391D03*
X004201Y030985D03*
X005233Y030985D03*
X006233Y030985D03*
X007233Y030985D03*
X007233Y029391D03*
X006233Y029391D03*
X005233Y029391D03*
X008670Y029391D03*
X009670Y029391D03*
X010670Y029391D03*
X011701Y029391D03*
X011701Y030985D03*
X010670Y030985D03*
X009670Y030985D03*
X008670Y030985D03*
X008420Y024485D03*
X008045Y023423D03*
X009201Y023110D03*
X008608Y021204D03*
X007858Y021360D03*
X011545Y024485D03*
X012076Y024391D03*
X012420Y024454D03*
X015139Y020829D03*
X015576Y020798D03*
X015514Y021141D03*
X015420Y024423D03*
X015920Y024516D03*
X016201Y024360D03*
X019389Y024360D03*
X020170Y024423D03*
X020514Y024391D03*
X019670Y021360D03*
X020608Y021235D03*
X019608Y020016D03*
X020076Y015329D03*
X020670Y015266D03*
X021233Y013235D03*
X020858Y011673D03*
X019420Y011548D03*
X018795Y011579D03*
X018451Y011579D03*
X017326Y011548D03*
X016514Y010391D03*
X016170Y011110D03*
X015826Y011110D03*
X015076Y011110D03*
X014733Y011110D03*
X014170Y011079D03*
X013826Y009579D03*
X014951Y009485D03*
X015826Y009079D03*
X016108Y009454D03*
X016670Y008735D03*
X017201Y008735D03*
X017701Y008735D03*
X017483Y009985D03*
X018076Y010048D03*
X019233Y008735D03*
X019045Y006954D03*
X019201Y006016D03*
X017264Y004798D03*
X016920Y004860D03*
X016764Y003735D03*
X013826Y006423D03*
X012670Y005235D03*
X012420Y005016D03*
X011639Y006266D03*
X011264Y006704D03*
X011264Y007048D03*
X010545Y006548D03*
X009951Y006516D03*
X009483Y006516D03*
X008795Y005298D03*
X007826Y004235D03*
X008076Y003985D03*
X007514Y004485D03*
X007139Y004329D03*
X006889Y004735D03*
X006889Y005079D03*
X005826Y005298D03*
X005795Y005641D03*
X004795Y004204D03*
X004514Y003641D03*
X004139Y003673D03*
X003826Y004173D03*
X003358Y003923D03*
X002420Y004954D03*
X002420Y005298D03*
X003733Y007079D03*
X004045Y006985D03*
X004358Y006891D03*
X004420Y008298D03*
X004264Y008798D03*
X006045Y008641D03*
X006045Y008298D03*
X003295Y011329D03*
X002233Y007704D03*
X006264Y003016D03*
X007983Y001985D03*
X007983Y001641D03*
X011264Y002610D03*
X011233Y003141D03*
X009014Y008360D03*
X009014Y008704D03*
X011139Y008766D03*
X011483Y012360D03*
X014889Y012548D03*
X015233Y012673D03*
X015545Y012891D03*
X015733Y013860D03*
X015701Y014204D03*
X017326Y014298D03*
X017326Y013954D03*
X014983Y017110D03*
X012858Y018548D03*
X012483Y018548D03*
X023576Y021079D03*
X023764Y024360D03*
D23*
X001108Y001891D02*
X001358Y001641D01*
X001108Y001891D02*
X001108Y006766D01*
X001420Y007079D01*
X003733Y007079D01*
X003889Y006829D02*
X001483Y006829D01*
X001295Y006641D01*
X001295Y002454D01*
X001670Y002079D01*
X003920Y002079D01*
X004358Y001641D01*
X004733Y002266D02*
X005358Y001641D01*
X004733Y002266D02*
X001951Y002266D01*
X001514Y002704D01*
X001514Y006485D01*
X001670Y006641D01*
X004108Y006641D01*
X004358Y006891D01*
X004045Y006985D02*
X003889Y006829D01*
X004670Y006579D02*
X004670Y019266D01*
X005014Y019610D01*
X014170Y019610D01*
X014701Y019079D01*
X014420Y018891D02*
X014170Y018641D01*
X013939Y018641D01*
X014420Y018891D02*
X013889Y019423D01*
X005451Y019423D01*
X004951Y018923D01*
X004951Y005923D01*
X004795Y005766D01*
X004795Y004204D01*
X004983Y003923D02*
X008951Y007891D01*
X010983Y007891D01*
X013639Y010548D01*
X013639Y011766D01*
X013639Y012048D01*
X013514Y012173D01*
X012845Y012173D01*
X012501Y012360D01*
X011901Y012360D02*
X011483Y012360D01*
X011542Y011735D02*
X011542Y011263D01*
X011483Y011204D01*
X011295Y011204D01*
X011795Y011204D02*
X011798Y011207D01*
X011798Y011735D01*
X012386Y011735D02*
X012386Y011207D01*
X012389Y011204D01*
X012642Y011263D02*
X012701Y011204D01*
X012858Y011204D01*
X013045Y011204D01*
X013105Y011263D01*
X013105Y011735D01*
X012642Y011735D02*
X012642Y011263D01*
X013358Y011204D02*
X013360Y011176D01*
X013360Y011735D01*
X013639Y012391D02*
X013642Y012420D01*
X013108Y012420D01*
X013108Y012676D02*
X013579Y012676D01*
X013639Y012735D01*
X013639Y013860D02*
X013639Y014048D01*
X013517Y014138D01*
X013108Y014138D01*
X013108Y014394D02*
X013605Y014394D01*
X013639Y014360D01*
X013451Y014735D02*
X013417Y014732D01*
X012920Y014732D01*
X012920Y014988D02*
X013605Y014988D01*
X013608Y015016D01*
X013639Y016579D02*
X013610Y016607D01*
X013108Y016607D01*
X012326Y016607D01*
X012326Y016863D02*
X013108Y016863D01*
X013579Y016863D01*
X013639Y016923D01*
X014670Y017610D02*
X014670Y012766D01*
X014889Y012548D01*
X015233Y012673D02*
X015326Y012579D01*
X015326Y009516D01*
X010858Y005048D01*
X006920Y005048D01*
X006889Y005079D01*
X006889Y004735D02*
X010951Y004735D01*
X015545Y009329D01*
X015545Y012891D01*
X015667Y013795D02*
X015108Y013795D01*
X015108Y014051D02*
X015548Y014051D01*
X015701Y014204D01*
X015733Y013860D02*
X015667Y013795D01*
X016951Y015141D02*
X016951Y009454D01*
X015358Y007860D01*
X014920Y007860D01*
X011295Y004235D01*
X007826Y004235D01*
X008076Y003985D02*
X011920Y003985D01*
X016670Y008735D01*
X017201Y008735D02*
X012139Y003673D01*
X007795Y003673D01*
X007139Y004329D01*
X007514Y004485D02*
X007545Y004516D01*
X011264Y004516D01*
X015826Y009079D01*
X016108Y009454D02*
X016108Y009488D01*
X016386Y009766D01*
X016642Y009766D02*
X016642Y010263D01*
X016514Y010391D01*
X016170Y011110D02*
X016079Y011107D01*
X016079Y011641D01*
X015823Y011641D02*
X015823Y011082D01*
X015826Y011110D01*
X015076Y011110D02*
X014923Y011263D01*
X014923Y011673D01*
X014667Y011673D02*
X014667Y011144D01*
X014733Y011110D01*
X014170Y011079D02*
X014170Y010704D01*
X011108Y007641D01*
X009076Y007641D01*
X006201Y004766D01*
X006170Y004766D01*
X005045Y003641D01*
X004514Y003641D01*
X004139Y003673D02*
X004139Y002735D01*
X004233Y002641D01*
X007108Y002641D01*
X007326Y002860D01*
X012201Y002860D01*
X017201Y007860D01*
X018358Y007860D01*
X019233Y008735D01*
X018076Y010048D02*
X017795Y010048D01*
X017735Y010107D01*
X017735Y010516D01*
X017480Y010516D02*
X017480Y009988D01*
X017483Y009985D01*
X017951Y010048D02*
X018076Y010048D01*
X018511Y010329D02*
X018511Y011048D01*
X018511Y011519D01*
X018451Y011579D01*
X018767Y011576D02*
X018767Y011048D01*
X018767Y010329D01*
X018767Y011576D02*
X018795Y011579D01*
X017326Y013954D02*
X017448Y014076D01*
X017889Y014076D01*
X017889Y014332D02*
X017298Y014332D01*
X017326Y014298D01*
X016951Y015141D02*
X014983Y017110D01*
X014670Y017610D02*
X015108Y018048D01*
X015108Y019391D01*
X014701Y019798D01*
X004701Y019798D01*
X004358Y019454D01*
X004358Y009610D01*
X002451Y007704D01*
X002233Y007704D01*
X003889Y008263D02*
X004417Y008263D01*
X004420Y008298D01*
X003954Y008519D02*
X004264Y008798D01*
X003954Y008519D02*
X003889Y008519D01*
X003751Y009673D02*
X003783Y009704D01*
X003783Y010704D01*
X003814Y010735D01*
X003814Y011329D01*
X003295Y011329D01*
X003214Y011735D02*
X003201Y011735D01*
X002764Y012173D01*
X001889Y012173D01*
X001420Y011704D01*
X001858Y011141D02*
X001420Y010704D01*
X001858Y011141D02*
X002795Y011141D01*
X003183Y010754D01*
X003183Y010704D01*
X002670Y010173D02*
X001889Y010173D01*
X001420Y009704D01*
X002670Y010173D02*
X003151Y009691D01*
X003151Y009673D01*
X003814Y011329D02*
X003814Y011735D01*
X003814Y012704D01*
X003845Y012735D01*
X003845Y013704D01*
X003845Y014704D01*
X003245Y014704D02*
X003245Y014723D01*
X002826Y015141D01*
X001858Y015141D01*
X001420Y014704D01*
X001920Y014204D02*
X001420Y013704D01*
X001920Y014204D02*
X002764Y014204D01*
X003245Y013723D01*
X003245Y013704D01*
X002764Y013173D02*
X001889Y013173D01*
X001420Y012704D01*
X002764Y013173D02*
X003214Y012723D01*
X003214Y012704D01*
X006045Y008641D02*
X006042Y008582D01*
X006576Y008582D01*
X006576Y008326D02*
X006017Y008326D01*
X006045Y008298D01*
X004670Y006579D02*
X003826Y005735D01*
X003826Y004173D01*
X003358Y003923D02*
X004983Y003923D01*
X005264Y005326D02*
X005798Y005326D01*
X005826Y005298D01*
X005735Y005582D02*
X005795Y005641D01*
X005735Y005582D02*
X005264Y005582D01*
X006733Y003485D02*
X006264Y003016D01*
X006733Y003485D02*
X012451Y003485D01*
X017701Y008735D01*
X014951Y009485D02*
X014823Y009420D01*
X014420Y009420D01*
X014420Y009676D02*
X013923Y009676D01*
X013826Y009579D01*
X010670Y011204D02*
X010579Y011295D01*
X010579Y011766D01*
X010579Y012516D01*
X010323Y012516D02*
X010323Y011766D01*
X010323Y011263D01*
X010295Y011235D01*
X009798Y011232D02*
X009798Y011766D01*
X009542Y011766D02*
X009542Y012232D01*
X009545Y012298D01*
X009698Y012388D01*
X009698Y012798D01*
X009954Y012798D02*
X009954Y012207D01*
X009951Y012266D01*
X009795Y011235D02*
X009798Y011232D01*
X009545Y008707D02*
X009048Y008707D01*
X009014Y008704D01*
X009105Y008451D02*
X009014Y008360D01*
X009105Y008451D02*
X009545Y008451D01*
X009698Y007048D02*
X009698Y006607D01*
X009608Y006516D01*
X009483Y006516D01*
X009951Y006516D02*
X009954Y006519D01*
X009954Y007048D01*
X007170Y011204D02*
X007142Y011207D01*
X007142Y011735D01*
X006886Y011735D02*
X006886Y011232D01*
X006826Y011204D01*
X006295Y012923D02*
X006355Y012982D01*
X006826Y012982D01*
X006826Y013238D02*
X006761Y013235D01*
X006326Y013235D01*
X006295Y013266D01*
X006329Y014076D02*
X006295Y014079D01*
X006329Y014076D02*
X006792Y014076D01*
X006826Y014110D01*
X007233Y014107D01*
X008014Y014107D01*
X008014Y014363D02*
X007233Y014363D01*
X006610Y014363D01*
X006608Y014329D01*
X006454Y014607D02*
X006389Y014673D01*
X006264Y014673D01*
X006454Y014607D02*
X006826Y014607D01*
X006826Y014863D02*
X007292Y014863D01*
X007358Y014829D01*
X007326Y015391D02*
X007261Y015394D01*
X006795Y015394D01*
X006795Y015138D02*
X006267Y015138D01*
X006264Y015141D01*
X006264Y015704D02*
X006264Y015735D01*
X006267Y015732D01*
X006795Y015732D01*
X006795Y015988D02*
X007261Y015988D01*
X007326Y015985D01*
X007733Y017516D02*
X007704Y017576D01*
X007704Y018048D01*
X007448Y018048D02*
X007448Y018576D01*
X007451Y018579D01*
X009670Y018548D02*
X009698Y018545D01*
X009698Y017829D01*
X009698Y017110D01*
X009954Y017110D02*
X009954Y017829D01*
X009954Y018357D01*
X009951Y018360D01*
X010261Y018576D02*
X010261Y018048D01*
X010517Y018048D02*
X010517Y017607D01*
X010545Y017516D01*
X010855Y018048D02*
X010855Y018576D01*
X010858Y018579D01*
X010326Y018579D02*
X010261Y018576D01*
X011110Y018048D02*
X011110Y017551D01*
X011108Y017516D01*
X012542Y018016D02*
X012542Y018519D01*
X012483Y018548D01*
X012798Y018519D02*
X012858Y018548D01*
X012920Y018641D01*
X013339Y018641D01*
X012798Y018519D02*
X012798Y018016D01*
X014358Y020048D02*
X009951Y020048D01*
X009201Y023110D02*
X007670Y024766D01*
X004233Y024766D01*
X002639Y023110D01*
X002608Y023110D01*
X003670Y020860D02*
X013795Y020860D01*
X016233Y023298D01*
X021076Y023298D01*
X023014Y021360D01*
X023014Y015829D01*
X023826Y015016D01*
X023826Y012023D01*
X023376Y011573D01*
X023376Y012360D02*
X022970Y012766D01*
X022201Y012766D01*
X021983Y012985D01*
X021983Y021204D01*
X020701Y022485D01*
X016326Y022485D01*
X014139Y020298D01*
X004326Y020298D01*
X003795Y019766D01*
X003795Y018673D01*
X003514Y018454D02*
X003514Y020173D01*
X003826Y020485D01*
X014045Y020485D01*
X016358Y022798D01*
X020858Y022798D01*
X022201Y021454D01*
X022201Y013735D01*
X022389Y013548D01*
X022976Y013548D01*
X023376Y013148D01*
X023376Y013935D02*
X022983Y014329D01*
X022983Y015423D01*
X022701Y015704D01*
X022701Y021266D01*
X020920Y023048D01*
X016264Y023048D01*
X013889Y020673D01*
X003764Y020673D01*
X003264Y020173D01*
X003264Y018954D01*
X003014Y018298D02*
X003014Y020204D01*
X003670Y020860D01*
X004451Y025985D02*
X004451Y026173D01*
X004201Y026423D01*
X004201Y026685D01*
X004201Y027285D02*
X004201Y028310D01*
X003939Y028310D01*
X003639Y028610D01*
X003639Y029610D01*
X003964Y029935D01*
X004201Y029935D01*
X004201Y029391D02*
X004201Y028910D01*
X004701Y028610D02*
X004701Y029610D01*
X005026Y029935D01*
X005264Y029935D01*
X005233Y029391D02*
X005264Y029360D01*
X005264Y028910D01*
X005764Y028610D02*
X005764Y029610D01*
X006089Y029935D01*
X006326Y029935D01*
X006233Y029391D02*
X006326Y029298D01*
X006326Y028910D01*
X006826Y028610D02*
X006826Y029610D01*
X007151Y029935D01*
X007389Y029935D01*
X007233Y029391D02*
X007389Y029235D01*
X007389Y028910D01*
X007389Y028310D02*
X007126Y028310D01*
X006826Y028610D01*
X006326Y028310D02*
X006064Y028310D01*
X005764Y028610D01*
X005264Y028310D02*
X005001Y028310D01*
X004701Y028610D01*
X005264Y028310D02*
X005264Y027285D01*
X005264Y026685D02*
X005264Y026423D01*
X005451Y026235D01*
X005451Y025985D01*
X006326Y026423D02*
X006451Y026298D01*
X006451Y025985D01*
X006326Y026423D02*
X006326Y026685D01*
X006326Y027285D02*
X006326Y028310D01*
X007389Y028310D02*
X007389Y027285D01*
X007389Y026685D02*
X007389Y026423D01*
X007451Y026360D01*
X007451Y025985D01*
X008451Y025985D02*
X008451Y026360D01*
X008514Y026423D01*
X008514Y026685D01*
X008514Y027285D02*
X008514Y028310D01*
X008251Y028310D01*
X007951Y028610D01*
X007951Y029610D01*
X008276Y029935D01*
X008514Y029935D01*
X008670Y029391D02*
X008514Y029235D01*
X008514Y028910D01*
X009014Y028610D02*
X009014Y029610D01*
X009339Y029935D01*
X009576Y029935D01*
X009670Y029391D02*
X009576Y029298D01*
X009576Y028910D01*
X010076Y028610D02*
X010076Y029610D01*
X010401Y029935D01*
X010639Y029935D01*
X010670Y029391D02*
X010639Y029360D01*
X010639Y028910D01*
X011139Y028610D02*
X011139Y029610D01*
X011464Y029935D01*
X011701Y029935D01*
X011701Y029391D02*
X011701Y028910D01*
X011701Y028310D02*
X011439Y028310D01*
X011139Y028610D01*
X010639Y028310D02*
X010376Y028310D01*
X010076Y028610D01*
X009576Y028310D02*
X009314Y028310D01*
X009014Y028610D01*
X009576Y028310D02*
X009576Y027285D01*
X009576Y026685D02*
X009576Y026423D01*
X009451Y026298D01*
X009451Y025985D01*
X010451Y025985D02*
X010451Y026235D01*
X010639Y026423D01*
X010639Y026685D01*
X010639Y027285D02*
X010639Y028310D01*
X011701Y028310D02*
X011701Y027285D01*
X011701Y026685D02*
X011701Y026423D01*
X011451Y026173D01*
X011451Y025985D01*
X011701Y030535D02*
X011701Y030985D01*
X010670Y030985D02*
X010639Y030954D01*
X010639Y030535D01*
X009670Y030985D02*
X009576Y030891D01*
X009576Y030535D01*
X008670Y030985D02*
X008514Y030829D01*
X008514Y030535D01*
X007389Y030535D02*
X007389Y030829D01*
X007233Y030985D01*
X006326Y030891D02*
X006326Y030535D01*
X006326Y030891D02*
X006233Y030985D01*
X005264Y030954D02*
X005264Y030535D01*
X005264Y030954D02*
X005233Y030985D01*
X004201Y030985D02*
X004201Y030535D01*
X014358Y020048D02*
X015139Y020829D01*
X021349Y007553D02*
X020636Y006839D01*
X020636Y006298D01*
X020892Y006298D02*
X021344Y006298D01*
X021349Y006293D01*
X020201Y003423D02*
X020701Y002923D01*
X020701Y002204D01*
X020939Y001966D01*
X020939Y001735D01*
X020339Y001735D02*
X020339Y002285D01*
X020201Y002423D01*
X019439Y002185D02*
X019439Y001735D01*
X019439Y002185D02*
X019201Y002423D01*
X018839Y001973D02*
X018733Y002079D01*
X018733Y002954D01*
X019201Y003423D01*
X018201Y003423D02*
X017826Y003423D01*
X017517Y003732D01*
X017517Y004266D01*
X017261Y004266D02*
X017261Y004795D01*
X017264Y004798D01*
X016923Y004857D02*
X016920Y004860D01*
X016923Y004857D02*
X016923Y004266D01*
X016667Y004266D02*
X016667Y003832D01*
X016764Y003735D01*
X017276Y002498D02*
X018201Y003423D01*
X018201Y002423D02*
X017876Y002098D01*
X017876Y001735D01*
X017276Y001735D02*
X017276Y002498D01*
X018839Y001973D02*
X018839Y001735D01*
X007985Y001957D02*
X007983Y001985D01*
X007985Y001957D02*
X007451Y001957D01*
X007451Y001701D02*
X007948Y001701D01*
X007983Y001641D01*
X002951Y005013D02*
X002448Y005013D01*
X002420Y004954D01*
X002423Y005269D02*
X002420Y005298D01*
X002423Y005269D02*
X002951Y005269D01*
D24*
X006576Y008326D02*
X007855Y008326D01*
X008233Y008704D01*
X009014Y008704D01*
X007097Y021673D02*
X007451Y022026D01*
X007451Y022766D01*
X007451Y022766D01*
X007097Y021673D02*
X006929Y021673D01*
X006348Y021673D02*
X005993Y021673D01*
X005639Y022026D01*
X005639Y022798D01*
X005670Y022829D01*
D25*
X005661Y022838D01*
X005661Y023985D01*
X006242Y023985D02*
X006242Y023101D01*
X006545Y022735D01*
X013983Y003891D02*
X014036Y003838D01*
X015108Y003838D01*
X015108Y003257D02*
X014223Y003257D01*
X013983Y003016D01*
X013710Y002744D01*
X013076Y002744D01*
X013076Y002164D02*
X014036Y002164D01*
X014139Y002266D01*
M02*
