%
M48
M72
T01C0.0100
T02C0.0236
T03C0.0315
T04C0.0354
T05C0.0400
T06C0.0630
%
T01
X3358Y3923
X3826Y4173
X4139Y3673
X4514Y3641
X4795Y4204
X5826Y5298
X5795Y5641
X6889Y5079
X6889Y4735
X7139Y4329
X7514Y4485
X7826Y4235
X8076Y3985
X8795Y5298
X9483Y6516
X9951Y6516
X10545Y6548
X11264Y6704
X11264Y7048
X11639Y6266
X12670Y5235
X12420Y5016
X13826Y6423
X15826Y9079
X16108Y9454
X16670Y8735
X17201Y8735
X17701Y8735
X17483Y9985
X18076Y10048
X18451Y11579
X18795Y11579
X19420Y11548
X20858Y11673
X21233Y13235
X20670Y15266
X20076Y15329
X17326Y14298
X17326Y13954
X15733Y13860
X15701Y14204
X15545Y12891
X15233Y12673
X14889Y12548
X14733Y11110
X15076Y11110
X15826Y11110
X16170Y11110
X16514Y10391
X17326Y11548
X19233Y8735
X19045Y6954
X19201Y6016
X17264Y4798
X16920Y4860
X16764Y3735
X14951Y9485
X13826Y9579
X14170Y11079
X13639Y11766
X13639Y12391
X13639Y12735
X13639Y13860
X13639Y14360
X13451Y14735
X13608Y15016
X13639Y15954
X13639Y16579
X13639Y16923
X13639Y17454
X13576Y17798
X12858Y18548
X12483Y18548
X13670Y19173
X14420Y18891
X14701Y19079
X15576Y20798
X15514Y21141
X15139Y20829
X15420Y24423
X15920Y24516
X16201Y24360
X19389Y24360
X20170Y24423
X20514Y24391
X19670Y21360
X20608Y21235
X19608Y20016
X23576Y21079
X23764Y24360
X14983Y17110
X12608Y21173
X12108Y21110
X11295Y21204
X9951Y20048
X10326Y18579
X9951Y18360
X9670Y18548
X10545Y17516
X11108Y17516
X10858Y18579
X8889Y18579
X7733Y17516
X7451Y18579
X6233Y19173
X6264Y17516
X6264Y15735
X6264Y15141
X6264Y14673
X6608Y14329
X6295Y14079
X6295Y13266
X6295Y12923
X6483Y11766
X6826Y11204
X7170Y11204
X8858Y11204
X9795Y11235
X10295Y11235
X10670Y11204
X11295Y11204
X11795Y11204
X12389Y11204
X12858Y11204
X13358Y11204
X11483Y12360
X9951Y12266
X9545Y12298
X7358Y14829
X7326Y15391
X7326Y15985
X3795Y18673
X3514Y18454
X3264Y18954
X3014Y18298
X1889Y17016
X1889Y20016
X1545Y21079
X1233Y20923
X2608Y23110
X1451Y24360
X1170Y24516
X4639Y24391
X4920Y22079
X7858Y21360
X8608Y21204
X9201Y23110
X8420Y24485
X8045Y23423
X11545Y24485
X12076Y24391
X12420Y24454
X11701Y29391
X10670Y29391
X9670Y29391
X8670Y29391
X8670Y30985
X9670Y30985
X10670Y30985
X11701Y30985
X7233Y30985
X6233Y30985
X5233Y30985
X5233Y29391
X6233Y29391
X7233Y29391
X4201Y29391
X4201Y30985
X3295Y11329
X4264Y8798
X4420Y8298
X4045Y6985
X4358Y6891
X3733Y7079
X2233Y7704
X2420Y5298
X2420Y4954
X6045Y8298
X6045Y8641
X9014Y8704
X9014Y8360
X11139Y8766
X11233Y3141
X11264Y2610
X7983Y1985
X7983Y1641
X6264Y3016
T02
X13983Y3016
X14139Y2266
X13983Y3891
X21349Y6293
X21822Y6608
X21349Y6923
X21822Y7238
X21349Y7553
X7451Y22766
X6545Y22735
X5670Y22829
T03
X5451Y25985
X6451Y25985
X7451Y25985
X8451Y25985
X9451Y25985
X10451Y25985
X11451Y25985
X12451Y25985
X13451Y25985
X14451Y25985
X15451Y25985
X16451Y25985
X17451Y25985
X18451Y25985
X19451Y25985
X20451Y25985
X21451Y25985
X22451Y25985
X22451Y31985
X21451Y31985
X20451Y31985
X19451Y31985
X18451Y31985
X17451Y31985
X16451Y31985
X15451Y31985
X14451Y31985
X13451Y31985
X12451Y31985
X11451Y31985
X10451Y31985
X9451Y31985
X8451Y31985
X7451Y31985
X6451Y31985
X5451Y31985
X4451Y31985
X3451Y31985
X3451Y25985
X4451Y25985
T04
X22589Y14722
X22589Y13935
X22589Y13148
X22589Y12360
X23376Y12360
X23376Y13148
X23376Y13935
X23376Y14722
X23376Y11573
X23376Y10785
X23376Y9998
X22589Y9998
X22589Y10785
X22589Y11573
T05
X1358Y1641
X2358Y1641
X3358Y1641
X4358Y1641
X5358Y1641
X6358Y1641
X2420Y9704
X2420Y10704
X2420Y11704
X2420Y12704
X2420Y13704
X2420Y14704
X1420Y14704
X1420Y13704
X1420Y12704
X1420Y11704
X1420Y10704
X1420Y9704
X18201Y3423
X18201Y2423
X19201Y2423
X19201Y3423
X20201Y3423
X20201Y2423
X21201Y2423
X21201Y3423
X22201Y3423
X22201Y2423
T06
X21704Y5486
X23534Y5486
X23534Y8360
X21704Y8360
M30
