G75*
%MOIN*%
%OFA0B0*%
%FSLAX24Y24*%
%IPPOS*%
%LPD*%
%AMOC8*
5,1,8,0,0,1.08239X$1,22.5*
%
%ADD10R,0.0198X0.0690*%
%ADD11R,0.0660X0.0660*%
%ADD12C,0.0660*%
%ADD13C,0.0591*%
%ADD14R,0.0420X0.0440*%
%ADD15C,0.0535*%
%ADD16R,0.0690X0.0198*%
%ADD17R,0.0345X0.1320*%
%ADD18R,0.1320X0.0345*%
%ADD19C,0.0456*%
%ADD20C,0.1005*%
%ADD21R,0.0440X0.0420*%
%ADD22C,0.0320*%
D10*
X006886Y011735D03*
X007142Y011735D03*
X009542Y011766D03*
X009798Y011766D03*
X010323Y011766D03*
X010579Y011766D03*
X010579Y012516D03*
X010323Y012516D03*
X009954Y012798D03*
X009698Y012798D03*
X011542Y011735D03*
X011798Y011735D03*
X012386Y011735D03*
X012642Y011735D03*
X013105Y011735D03*
X013360Y011735D03*
X014667Y011673D03*
X014923Y011673D03*
X015823Y011641D03*
X016079Y011641D03*
X017480Y010516D03*
X017735Y010516D03*
X018511Y010329D03*
X018767Y010329D03*
X018767Y011048D03*
X018511Y011048D03*
X016642Y009766D03*
X016386Y009766D03*
X016667Y004266D03*
X016923Y004266D03*
X017261Y004266D03*
X017517Y004266D03*
X020636Y006298D03*
X020892Y006298D03*
X012798Y018016D03*
X012542Y018016D03*
X011110Y018048D03*
X010855Y018048D03*
X010517Y018048D03*
X010261Y018048D03*
X009954Y017829D03*
X009698Y017829D03*
X009698Y017110D03*
X009954Y017110D03*
X007704Y018048D03*
X007448Y018048D03*
X009698Y007048D03*
X009954Y007048D03*
D11*
X001358Y001641D03*
D12*
X002358Y001641D03*
X003358Y001641D03*
X004358Y001641D03*
X005358Y001641D03*
X006358Y001641D03*
X002420Y009704D03*
X002420Y010704D03*
X002420Y011704D03*
X002420Y012704D03*
X002420Y013704D03*
X002420Y014704D03*
X001420Y014704D03*
X001420Y013704D03*
X001420Y012704D03*
X001420Y011704D03*
X001420Y010704D03*
X001420Y009704D03*
X018201Y003423D03*
X018201Y002423D03*
X019201Y002423D03*
X019201Y003423D03*
X020201Y003423D03*
X020201Y002423D03*
X021201Y002423D03*
X021201Y003423D03*
X022201Y003423D03*
X022201Y002423D03*
D13*
X022589Y009998D03*
X022589Y010785D03*
X022589Y011573D03*
X022589Y012360D03*
X022589Y013148D03*
X022589Y013935D03*
X023376Y013935D03*
X023376Y013148D03*
X023376Y012360D03*
X023376Y011573D03*
X023376Y010785D03*
X023376Y009998D03*
X023376Y014722D03*
X022589Y014722D03*
D14*
X013939Y018641D03*
X013339Y018641D03*
X012501Y012360D03*
X011901Y012360D03*
X017276Y001735D03*
X017876Y001735D03*
X018839Y001735D03*
X019439Y001735D03*
X020339Y001735D03*
X020939Y001735D03*
X003751Y009673D03*
X003151Y009673D03*
X003183Y010704D03*
X003783Y010704D03*
X003814Y011735D03*
X003214Y011735D03*
X003214Y012704D03*
X003814Y012704D03*
X003845Y013704D03*
X003245Y013704D03*
X003245Y014704D03*
X003845Y014704D03*
D15*
X003451Y025985D03*
X004451Y025985D03*
X005451Y025985D03*
X006451Y025985D03*
X007451Y025985D03*
X008451Y025985D03*
X009451Y025985D03*
X010451Y025985D03*
X011451Y025985D03*
X012451Y025985D03*
X013451Y025985D03*
X014451Y025985D03*
X015451Y025985D03*
X016451Y025985D03*
X017451Y025985D03*
X018451Y025985D03*
X019451Y025985D03*
X020451Y025985D03*
X021451Y025985D03*
X022451Y025985D03*
X022451Y031985D03*
X021451Y031985D03*
X020451Y031985D03*
X019451Y031985D03*
X018451Y031985D03*
X017451Y031985D03*
X016451Y031985D03*
X015451Y031985D03*
X014451Y031985D03*
X013451Y031985D03*
X012451Y031985D03*
X011451Y031985D03*
X010451Y031985D03*
X009451Y031985D03*
X008451Y031985D03*
X007451Y031985D03*
X006451Y031985D03*
X005451Y031985D03*
X004451Y031985D03*
X003451Y031985D03*
D16*
X012326Y016863D03*
X012326Y016607D03*
X013108Y016607D03*
X013108Y016863D03*
X012920Y014988D03*
X012920Y014732D03*
X013108Y014394D03*
X013108Y014138D03*
X013108Y012676D03*
X013108Y012420D03*
X014420Y009676D03*
X014420Y009420D03*
X015108Y013795D03*
X015108Y014051D03*
X017889Y014076D03*
X017889Y014332D03*
X009545Y008707D03*
X009545Y008451D03*
X006576Y008326D03*
X006576Y008582D03*
X005264Y005582D03*
X005264Y005326D03*
X003889Y008263D03*
X003889Y008519D03*
X002951Y005269D03*
X002951Y005013D03*
X007451Y001957D03*
X007451Y001701D03*
X006826Y012982D03*
X006826Y013238D03*
X007233Y014107D03*
X007233Y014363D03*
X006826Y014607D03*
X006826Y014863D03*
X006795Y015138D03*
X006795Y015394D03*
X006795Y015732D03*
X006795Y015988D03*
X008014Y014363D03*
X008014Y014107D03*
D17*
X006929Y021673D03*
X006348Y021673D03*
X006242Y023985D03*
X005661Y023985D03*
D18*
X015108Y003838D03*
X015108Y003257D03*
X013076Y002744D03*
X013076Y002164D03*
D19*
X013983Y003016D03*
X014139Y002266D03*
X013983Y003891D03*
X021349Y006293D03*
X021822Y006608D03*
X021349Y006923D03*
X021822Y007238D03*
X021349Y007553D03*
X007451Y022766D03*
X006545Y022735D03*
X005670Y022829D03*
D20*
X021704Y008360D03*
X023534Y008360D03*
X023534Y005486D03*
X021704Y005486D03*
D21*
X011701Y026685D03*
X011701Y027285D03*
X011701Y028310D03*
X011701Y028910D03*
X011701Y029935D03*
X011701Y030535D03*
X010639Y030535D03*
X010639Y029935D03*
X010639Y028910D03*
X010639Y028310D03*
X010639Y027285D03*
X010639Y026685D03*
X009576Y026685D03*
X009576Y027285D03*
X009576Y028310D03*
X009576Y028910D03*
X009576Y029935D03*
X009576Y030535D03*
X008514Y030535D03*
X008514Y029935D03*
X008514Y028910D03*
X008514Y028310D03*
X008514Y027285D03*
X008514Y026685D03*
X007389Y026685D03*
X007389Y027285D03*
X007389Y028310D03*
X007389Y028910D03*
X007389Y029935D03*
X007389Y030535D03*
X006326Y030535D03*
X006326Y029935D03*
X006326Y028910D03*
X006326Y028310D03*
X006326Y027285D03*
X006326Y026685D03*
X005264Y026685D03*
X005264Y027285D03*
X005264Y028310D03*
X005264Y028910D03*
X005264Y029935D03*
X005264Y030535D03*
X004201Y030535D03*
X004201Y029935D03*
X004201Y028910D03*
X004201Y028310D03*
X004201Y027285D03*
X004201Y026685D03*
D22*
X004639Y024391D03*
X004920Y022079D03*
X006233Y019173D03*
X007451Y018579D03*
X007733Y017516D03*
X008889Y018579D03*
X009670Y018548D03*
X009951Y018360D03*
X010326Y018579D03*
X010858Y018579D03*
X011108Y017516D03*
X010545Y017516D03*
X009951Y020048D03*
X011295Y021204D03*
X012108Y021110D03*
X012608Y021173D03*
X013670Y019173D03*
X014420Y018891D03*
X014701Y019079D03*
X013639Y017454D03*
X013576Y017798D03*
X013639Y016923D03*
X013639Y016579D03*
X013639Y015954D03*
X013608Y015016D03*
X013451Y014735D03*
X013639Y014360D03*
X013639Y013860D03*
X013639Y012735D03*
X013639Y012391D03*
X013639Y011766D03*
X013358Y011204D03*
X012858Y011204D03*
X012389Y011204D03*
X011795Y011204D03*
X011295Y011204D03*
X010670Y011204D03*
X010295Y011235D03*
X009795Y011235D03*
X009951Y012266D03*
X009545Y012298D03*
X008858Y011204D03*
X007170Y011204D03*
X006826Y011204D03*
X006483Y011766D03*
X006295Y012923D03*
X006295Y013266D03*
X006295Y014079D03*
X006608Y014329D03*
X006264Y014673D03*
X006264Y015141D03*
X006264Y015735D03*
X007326Y015985D03*
X007326Y015391D03*
X007358Y014829D03*
X006264Y017516D03*
X003795Y018673D03*
X003514Y018454D03*
X003264Y018954D03*
X003014Y018298D03*
X001889Y017016D03*
X001889Y020016D03*
X001545Y021079D03*
X001233Y020923D03*
X002608Y023110D03*
X001451Y024360D03*
X001170Y024516D03*
X004201Y029391D03*
X004201Y030985D03*
X005233Y030985D03*
X006233Y030985D03*
X007233Y030985D03*
X007233Y029391D03*
X006233Y029391D03*
X005233Y029391D03*
X008670Y029391D03*
X009670Y029391D03*
X010670Y029391D03*
X011701Y029391D03*
X011701Y030985D03*
X010670Y030985D03*
X009670Y030985D03*
X008670Y030985D03*
X008420Y024485D03*
X008045Y023423D03*
X009201Y023110D03*
X008608Y021204D03*
X007858Y021360D03*
X011545Y024485D03*
X012076Y024391D03*
X012420Y024454D03*
X015139Y020829D03*
X015576Y020798D03*
X015514Y021141D03*
X015420Y024423D03*
X015920Y024516D03*
X016201Y024360D03*
X019389Y024360D03*
X020170Y024423D03*
X020514Y024391D03*
X019670Y021360D03*
X020608Y021235D03*
X019608Y020016D03*
X020076Y015329D03*
X020670Y015266D03*
X021233Y013235D03*
X020858Y011673D03*
X019420Y011548D03*
X018795Y011579D03*
X018451Y011579D03*
X017326Y011548D03*
X016514Y010391D03*
X016170Y011110D03*
X015826Y011110D03*
X015076Y011110D03*
X014733Y011110D03*
X014170Y011079D03*
X013826Y009579D03*
X014951Y009485D03*
X015826Y009079D03*
X016108Y009454D03*
X016670Y008735D03*
X017201Y008735D03*
X017701Y008735D03*
X017483Y009985D03*
X018076Y010048D03*
X019233Y008735D03*
X019045Y006954D03*
X019201Y006016D03*
X017264Y004798D03*
X016920Y004860D03*
X016764Y003735D03*
X013826Y006423D03*
X012670Y005235D03*
X012420Y005016D03*
X011639Y006266D03*
X011264Y006704D03*
X011264Y007048D03*
X010545Y006548D03*
X009951Y006516D03*
X009483Y006516D03*
X008795Y005298D03*
X007826Y004235D03*
X008076Y003985D03*
X007514Y004485D03*
X007139Y004329D03*
X006889Y004735D03*
X006889Y005079D03*
X005826Y005298D03*
X005795Y005641D03*
X004795Y004204D03*
X004514Y003641D03*
X004139Y003673D03*
X003826Y004173D03*
X003358Y003923D03*
X002420Y004954D03*
X002420Y005298D03*
X003733Y007079D03*
X004045Y006985D03*
X004358Y006891D03*
X004420Y008298D03*
X004264Y008798D03*
X006045Y008641D03*
X006045Y008298D03*
X003295Y011329D03*
X002233Y007704D03*
X006264Y003016D03*
X007983Y001985D03*
X007983Y001641D03*
X011264Y002610D03*
X011233Y003141D03*
X009014Y008360D03*
X009014Y008704D03*
X011139Y008766D03*
X011483Y012360D03*
X014889Y012548D03*
X015233Y012673D03*
X015545Y012891D03*
X015733Y013860D03*
X015701Y014204D03*
X017326Y014298D03*
X017326Y013954D03*
X014983Y017110D03*
X012858Y018548D03*
X012483Y018548D03*
X023576Y021079D03*
X023764Y024360D03*
M02*
