G75*
%MOIN*%
%OFA0B0*%
%FSLAX24Y24*%
%IPPOS*%
%LPD*%
%AMOC8*
5,1,8,0,0,1.08239X$1,22.5*
%
%ADD10R,0.0229X0.0808*%
%ADD11R,0.0440X0.0420*%
%ADD12R,0.0198X0.0690*%
%ADD13R,0.0359X0.0418*%
%ADD14R,0.0420X0.0440*%
%ADD15R,0.0660X0.0660*%
%ADD16C,0.0660*%
%ADD17R,0.0651X0.0277*%
%ADD18R,0.0277X0.0651*%
%ADD19R,0.0190X0.0690*%
%ADD20R,0.0690X0.0190*%
%ADD21C,0.0591*%
%ADD22R,0.0178X0.0690*%
%ADD23C,0.0535*%
%ADD24R,0.0836X0.0284*%
%ADD25R,0.0560X0.1241*%
%ADD26R,0.0217X0.0414*%
%ADD27R,0.0198X0.0769*%
%ADD28R,0.0414X0.0217*%
%ADD29R,0.0170X0.0674*%
%ADD30R,0.0674X0.0170*%
%ADD31R,0.0300X0.0560*%
%ADD32R,0.0690X0.0198*%
%ADD33R,0.0418X0.0359*%
%ADD34C,0.0456*%
%ADD35C,0.1005*%
%ADD36R,0.0847X0.1556*%
%ADD37R,0.0847X0.0651*%
%ADD38R,0.1556X0.0847*%
%ADD39R,0.0651X0.0847*%
%ADD40C,0.0320*%
D10*
X016757Y009386D03*
X017013Y009386D03*
X017268Y009386D03*
X017524Y009386D03*
X017780Y009386D03*
X018036Y009386D03*
X018292Y009386D03*
X018548Y009386D03*
X018804Y009386D03*
X019060Y009386D03*
X019316Y009386D03*
X019572Y009386D03*
X019827Y009386D03*
X020083Y009386D03*
X020083Y012146D03*
X019827Y012146D03*
X019572Y012146D03*
X019316Y012146D03*
X019060Y012146D03*
X018804Y012146D03*
X018548Y012146D03*
X018292Y012146D03*
X018036Y012146D03*
X017780Y012146D03*
X017524Y012146D03*
X017268Y012146D03*
X017013Y012146D03*
X016757Y012146D03*
D11*
X013889Y010660D03*
X013889Y010060D03*
X012451Y006566D03*
X012451Y005966D03*
X013170Y005810D03*
X013170Y006410D03*
X019420Y007310D03*
X019420Y007910D03*
X020076Y007910D03*
X020076Y007310D03*
X014326Y019373D03*
X014326Y019973D03*
X001889Y018129D03*
X001889Y017529D03*
D12*
X001485Y021610D03*
X001230Y021610D03*
X001136Y023829D03*
X001392Y023829D03*
X008105Y023954D03*
X008360Y023954D03*
X008360Y021766D03*
X008105Y021766D03*
X012105Y021798D03*
X012360Y021798D03*
X012360Y023860D03*
X012105Y023860D03*
X015886Y023829D03*
X016142Y023829D03*
X016142Y021673D03*
X015886Y021673D03*
X020105Y021641D03*
X020360Y021641D03*
X020454Y023860D03*
X020198Y023860D03*
X020230Y014798D03*
X020485Y014798D03*
X020636Y012204D03*
X020892Y012204D03*
X019454Y005391D03*
X019198Y005391D03*
X011860Y005391D03*
X011605Y005391D03*
D13*
X019970Y012985D03*
X019970Y013485D03*
X020620Y013485D03*
X020620Y012985D03*
D14*
X019189Y012985D03*
X019189Y013485D03*
X018589Y013485D03*
X018589Y012985D03*
X009189Y003923D03*
X009095Y004485D03*
X008495Y004485D03*
X008589Y003923D03*
X001814Y002548D03*
X001214Y002548D03*
D15*
X001358Y001641D03*
D16*
X002358Y001641D03*
X003358Y001641D03*
X004358Y001641D03*
X005358Y001641D03*
X006358Y001641D03*
X002420Y009704D03*
X002420Y010704D03*
X002420Y011704D03*
X002420Y012704D03*
X002420Y013704D03*
X002420Y014704D03*
X001420Y014704D03*
X001420Y013704D03*
X001420Y012704D03*
X001420Y011704D03*
X001420Y010704D03*
X001420Y009704D03*
X018201Y003423D03*
X018201Y002423D03*
X019201Y002423D03*
X019201Y003423D03*
X020201Y003423D03*
X020201Y002423D03*
X021201Y002423D03*
X021201Y003423D03*
X022201Y003423D03*
X022201Y002423D03*
D17*
X006383Y003754D03*
X006383Y004069D03*
X006383Y004384D03*
X006383Y004699D03*
X006383Y005014D03*
X006383Y005329D03*
X006383Y005644D03*
X006383Y005959D03*
X006383Y006274D03*
X006383Y006589D03*
X006383Y006904D03*
X001895Y006904D03*
X001895Y006589D03*
X001895Y006274D03*
X001895Y005959D03*
X001895Y005644D03*
X001895Y005329D03*
X001895Y005014D03*
X001895Y004699D03*
X001895Y004384D03*
X001895Y004069D03*
X001895Y003754D03*
D18*
X002564Y003085D03*
X002879Y003085D03*
X003194Y003085D03*
X003509Y003085D03*
X003824Y003085D03*
X004139Y003085D03*
X004454Y003085D03*
X004769Y003085D03*
X005084Y003085D03*
X005399Y003085D03*
X005714Y003085D03*
X005714Y007573D03*
X005399Y007573D03*
X005084Y007573D03*
X004769Y007573D03*
X004454Y007573D03*
X004139Y007573D03*
X003824Y007573D03*
X003509Y007573D03*
X003194Y007573D03*
X002879Y007573D03*
X002564Y007573D03*
D19*
X006506Y010679D03*
X006703Y010679D03*
X006900Y010679D03*
X007097Y010679D03*
X007294Y010679D03*
X007491Y010679D03*
X007687Y010679D03*
X007884Y010679D03*
X008081Y010679D03*
X008278Y010679D03*
X008475Y010679D03*
X008672Y010679D03*
X008869Y010679D03*
X009065Y010679D03*
X009262Y010679D03*
X009459Y010679D03*
X009656Y010679D03*
X009853Y010679D03*
X010050Y010679D03*
X010247Y010679D03*
X010443Y010679D03*
X010640Y010679D03*
X010837Y010679D03*
X011034Y010679D03*
X011231Y010679D03*
X011428Y010679D03*
X011624Y010679D03*
X011821Y010679D03*
X012018Y010679D03*
X012215Y010679D03*
X012412Y010679D03*
X012609Y010679D03*
X012806Y010679D03*
X013002Y010679D03*
X013199Y010679D03*
X013396Y010679D03*
X013396Y019104D03*
X013199Y019104D03*
X013002Y019104D03*
X012806Y019104D03*
X012609Y019104D03*
X012412Y019104D03*
X012215Y019104D03*
X012018Y019104D03*
X011821Y019104D03*
X011624Y019104D03*
X011428Y019104D03*
X011231Y019104D03*
X011034Y019104D03*
X010837Y019104D03*
X010640Y019104D03*
X010443Y019104D03*
X010247Y019104D03*
X010050Y019104D03*
X009853Y019104D03*
X009656Y019104D03*
X009459Y019104D03*
X009262Y019104D03*
X009065Y019104D03*
X008869Y019104D03*
X008672Y019104D03*
X008475Y019104D03*
X008278Y019104D03*
X008081Y019104D03*
X007884Y019104D03*
X007687Y019104D03*
X007491Y019104D03*
X007294Y019104D03*
X007097Y019104D03*
X006900Y019104D03*
X006703Y019104D03*
X006506Y019104D03*
D20*
X005739Y018336D03*
X005739Y018139D03*
X005739Y017943D03*
X005739Y017746D03*
X005739Y017549D03*
X005739Y017352D03*
X005739Y017155D03*
X005739Y016958D03*
X005739Y016761D03*
X005739Y016565D03*
X005739Y016368D03*
X005739Y016171D03*
X005739Y015974D03*
X005739Y015777D03*
X005739Y015580D03*
X005739Y015384D03*
X005739Y015187D03*
X005739Y014990D03*
X005739Y014793D03*
X005739Y014596D03*
X005739Y014399D03*
X005739Y014202D03*
X005739Y014006D03*
X005739Y013809D03*
X005739Y013612D03*
X005739Y013415D03*
X005739Y013218D03*
X005739Y013021D03*
X005739Y012824D03*
X005739Y012628D03*
X005739Y012431D03*
X005739Y012234D03*
X005739Y012037D03*
X005739Y011840D03*
X005739Y011643D03*
X005739Y011447D03*
X014164Y011447D03*
X014164Y011643D03*
X014164Y011840D03*
X014164Y012037D03*
X014164Y012234D03*
X014164Y012431D03*
X014164Y012628D03*
X014164Y012824D03*
X014164Y013021D03*
X014164Y013218D03*
X014164Y013415D03*
X014164Y013612D03*
X014164Y013809D03*
X014164Y014006D03*
X014164Y014202D03*
X014164Y014399D03*
X014164Y014596D03*
X014164Y014793D03*
X014164Y014990D03*
X014164Y015187D03*
X014164Y015384D03*
X014164Y015580D03*
X014164Y015777D03*
X014164Y015974D03*
X014164Y016171D03*
X014164Y016368D03*
X014164Y016565D03*
X014164Y016761D03*
X014164Y016958D03*
X014164Y017155D03*
X014164Y017352D03*
X014164Y017549D03*
X014164Y017746D03*
X014164Y017943D03*
X014164Y018139D03*
X014164Y018336D03*
D21*
X022589Y014722D03*
X022589Y013935D03*
X022589Y013148D03*
X022589Y012360D03*
X023376Y012360D03*
X023376Y013148D03*
X023376Y013935D03*
X023376Y014722D03*
X023376Y011573D03*
X023376Y010785D03*
X023376Y009998D03*
X022589Y009998D03*
X022589Y010785D03*
X022589Y011573D03*
D22*
X022648Y021633D03*
X022904Y021633D03*
X023159Y021633D03*
X023415Y021633D03*
X023671Y021633D03*
X022392Y021633D03*
X022136Y021633D03*
X021880Y021633D03*
X021624Y021633D03*
X021368Y021633D03*
X021112Y021633D03*
X020856Y021633D03*
X019296Y021633D03*
X019040Y021633D03*
X018784Y021633D03*
X018529Y021633D03*
X018273Y021633D03*
X018017Y021633D03*
X017761Y021633D03*
X017505Y021633D03*
X017249Y021633D03*
X016993Y021633D03*
X016737Y021633D03*
X016481Y021633D03*
X015515Y021695D03*
X015259Y021695D03*
X015003Y021695D03*
X014747Y021695D03*
X014491Y021695D03*
X014235Y021695D03*
X013980Y021695D03*
X013724Y021695D03*
X013468Y021695D03*
X013212Y021695D03*
X012956Y021695D03*
X012700Y021695D03*
X011484Y021727D03*
X011228Y021727D03*
X010972Y021727D03*
X010716Y021727D03*
X010460Y021727D03*
X010204Y021727D03*
X009948Y021727D03*
X009692Y021727D03*
X009436Y021727D03*
X009181Y021727D03*
X008925Y021727D03*
X008669Y021727D03*
X008669Y023931D03*
X008925Y023931D03*
X009181Y023931D03*
X009436Y023931D03*
X009692Y023931D03*
X009948Y023931D03*
X010204Y023931D03*
X010460Y023931D03*
X010716Y023931D03*
X010972Y023931D03*
X011228Y023931D03*
X011484Y023931D03*
X012700Y023900D03*
X012956Y023900D03*
X013212Y023900D03*
X013468Y023900D03*
X013724Y023900D03*
X013980Y023900D03*
X014235Y023900D03*
X014491Y023900D03*
X014747Y023900D03*
X015003Y023900D03*
X015259Y023900D03*
X015515Y023900D03*
X016481Y023838D03*
X016737Y023838D03*
X016993Y023838D03*
X017249Y023838D03*
X017505Y023838D03*
X017761Y023838D03*
X018017Y023838D03*
X018273Y023838D03*
X018529Y023838D03*
X018784Y023838D03*
X019040Y023838D03*
X019296Y023838D03*
X020856Y023838D03*
X021112Y023838D03*
X021368Y023838D03*
X021624Y023838D03*
X021880Y023838D03*
X022136Y023838D03*
X022392Y023838D03*
X022648Y023838D03*
X022904Y023838D03*
X023159Y023838D03*
X023415Y023838D03*
X023671Y023838D03*
X004609Y023838D03*
X004353Y023838D03*
X004097Y023838D03*
X003841Y023838D03*
X003585Y023838D03*
X003329Y023838D03*
X003073Y023838D03*
X002817Y023838D03*
X002561Y023838D03*
X002306Y023838D03*
X002050Y023838D03*
X001794Y023838D03*
X001794Y021633D03*
X002050Y021633D03*
X002306Y021633D03*
X002561Y021633D03*
X002817Y021633D03*
X003073Y021633D03*
X003329Y021633D03*
X003585Y021633D03*
X003841Y021633D03*
X004097Y021633D03*
X004353Y021633D03*
X004609Y021633D03*
D23*
X004451Y025985D03*
X003451Y025985D03*
X005451Y025985D03*
X006451Y025985D03*
X007451Y025985D03*
X008451Y025985D03*
X009451Y025985D03*
X010451Y025985D03*
X011451Y025985D03*
X012451Y025985D03*
X013451Y025985D03*
X014451Y025985D03*
X015451Y025985D03*
X016451Y025985D03*
X017451Y025985D03*
X018451Y025985D03*
X019451Y025985D03*
X020451Y025985D03*
X021451Y025985D03*
X022451Y025985D03*
X022451Y031985D03*
X021451Y031985D03*
X020451Y031985D03*
X019451Y031985D03*
X018451Y031985D03*
X017451Y031985D03*
X016451Y031985D03*
X015451Y031985D03*
X014451Y031985D03*
X013451Y031985D03*
X012451Y031985D03*
X011451Y031985D03*
X010451Y031985D03*
X009451Y031985D03*
X008451Y031985D03*
X007451Y031985D03*
X006451Y031985D03*
X005451Y031985D03*
X004451Y031985D03*
X003451Y031985D03*
D24*
X008633Y003204D03*
X008633Y002704D03*
X008633Y002204D03*
X008633Y001704D03*
X010582Y001704D03*
X010582Y002204D03*
X010582Y002704D03*
X010582Y003204D03*
D25*
X018733Y016097D03*
X020733Y016097D03*
X020733Y019561D03*
X018733Y019561D03*
D26*
X016082Y010731D03*
X015826Y010731D03*
X015570Y010731D03*
X014926Y010731D03*
X014670Y010731D03*
X014414Y010731D03*
X014414Y009865D03*
X014670Y009865D03*
X014926Y009865D03*
X015570Y009865D03*
X015826Y009865D03*
X016082Y009865D03*
D27*
X017045Y007446D03*
X017295Y007446D03*
X017545Y007446D03*
X017795Y007446D03*
X018045Y007446D03*
X018295Y007446D03*
X018545Y007446D03*
X018795Y007446D03*
X018795Y005399D03*
X018545Y005399D03*
X018295Y005399D03*
X018045Y005399D03*
X017795Y005399D03*
X017545Y005399D03*
X017295Y005399D03*
X017045Y005399D03*
D28*
X016947Y014042D03*
X016947Y014298D03*
X016947Y014554D03*
X016081Y014554D03*
X016081Y014298D03*
X016081Y014042D03*
X005666Y008835D03*
X005666Y008579D03*
X005666Y008323D03*
X004799Y008323D03*
X004799Y008579D03*
X004799Y008835D03*
D29*
X009056Y009287D03*
X009253Y009287D03*
X009450Y009287D03*
X009647Y009287D03*
X009843Y009287D03*
X010040Y009287D03*
X010237Y009287D03*
X010434Y009287D03*
X010631Y009287D03*
X010828Y009287D03*
X011025Y009287D03*
X011221Y009287D03*
X011221Y005996D03*
X011025Y005996D03*
X010828Y005996D03*
X010631Y005996D03*
X010434Y005996D03*
X010237Y005996D03*
X010040Y005996D03*
X009843Y005996D03*
X009647Y005996D03*
X009450Y005996D03*
X009253Y005996D03*
X009056Y005996D03*
D30*
X008493Y006559D03*
X008493Y006756D03*
X008493Y006952D03*
X008493Y007149D03*
X008493Y007346D03*
X008493Y007543D03*
X008493Y007740D03*
X008493Y007937D03*
X008493Y008134D03*
X008493Y008330D03*
X008493Y008527D03*
X008493Y008724D03*
X011784Y008724D03*
X011784Y008527D03*
X011784Y008330D03*
X011784Y008134D03*
X011784Y007937D03*
X011784Y007740D03*
X011784Y007543D03*
X011784Y007346D03*
X011784Y007149D03*
X011784Y006952D03*
X011784Y006756D03*
X011784Y006559D03*
D31*
X013823Y005482D03*
X014201Y006301D03*
X014579Y005482D03*
D32*
X013170Y005363D03*
X013170Y005107D03*
D33*
X008233Y005223D03*
X007733Y005223D03*
X007733Y005872D03*
X008233Y005872D03*
X001889Y018942D03*
X001889Y019591D03*
D34*
X005670Y022829D03*
X006545Y022735D03*
X007451Y022766D03*
X013983Y003891D03*
X013983Y003016D03*
X014139Y002266D03*
X021349Y006293D03*
X021822Y006608D03*
X021349Y006923D03*
X021822Y007238D03*
X021349Y007553D03*
D35*
X021704Y008360D03*
X023534Y008360D03*
X023534Y005486D03*
X021704Y005486D03*
D36*
X015473Y002735D03*
D37*
X012992Y002735D03*
X012992Y003641D03*
X012992Y001830D03*
D38*
X006545Y024507D03*
D39*
X006545Y022026D03*
X005639Y022026D03*
X007451Y022026D03*
D40*
X007858Y021360D03*
X008608Y021204D03*
X009201Y023110D03*
X008420Y024485D03*
X008045Y023423D03*
X009951Y020048D03*
X010326Y018579D03*
X009951Y018360D03*
X009670Y018548D03*
X010545Y017516D03*
X011108Y017516D03*
X010858Y018579D03*
X012483Y018548D03*
X012858Y018548D03*
X013576Y017798D03*
X013639Y017454D03*
X013639Y016923D03*
X013639Y016579D03*
X013639Y015954D03*
X013608Y015016D03*
X013451Y014735D03*
X013639Y014360D03*
X013639Y013860D03*
X013639Y012735D03*
X013639Y012391D03*
X013639Y011766D03*
X013358Y011204D03*
X012858Y011204D03*
X012389Y011204D03*
X011795Y011204D03*
X011295Y011204D03*
X010670Y011204D03*
X010295Y011235D03*
X009795Y011235D03*
X009951Y012266D03*
X009545Y012298D03*
X008858Y011204D03*
X007170Y011204D03*
X006826Y011204D03*
X006483Y011766D03*
X006295Y012923D03*
X006295Y013266D03*
X006295Y014079D03*
X006608Y014329D03*
X006264Y014673D03*
X006264Y015141D03*
X006264Y015735D03*
X007326Y015985D03*
X007326Y015391D03*
X007358Y014829D03*
X007733Y017516D03*
X007451Y018579D03*
X006233Y019173D03*
X006264Y017516D03*
X003795Y018673D03*
X003514Y018454D03*
X003264Y018954D03*
X003014Y018298D03*
X001889Y017016D03*
X001889Y020016D03*
X001545Y021079D03*
X001233Y020923D03*
X002608Y023110D03*
X001451Y024360D03*
X001170Y024516D03*
X004639Y024391D03*
X004920Y022079D03*
X008889Y018579D03*
X011295Y021204D03*
X012108Y021110D03*
X012608Y021173D03*
X013670Y019173D03*
X014420Y018891D03*
X014701Y019079D03*
X015576Y020798D03*
X015514Y021141D03*
X015139Y020829D03*
X015420Y024423D03*
X015920Y024516D03*
X016201Y024360D03*
X019389Y024360D03*
X020170Y024423D03*
X020514Y024391D03*
X019670Y021360D03*
X020608Y021235D03*
X019608Y020016D03*
X020076Y015329D03*
X020670Y015266D03*
X021233Y013235D03*
X020858Y011673D03*
X019420Y011548D03*
X018795Y011579D03*
X018451Y011579D03*
X017326Y011548D03*
X016514Y010391D03*
X016170Y011110D03*
X015826Y011110D03*
X015076Y011110D03*
X014733Y011110D03*
X014170Y011079D03*
X013826Y009579D03*
X014951Y009485D03*
X015826Y009079D03*
X016108Y009454D03*
X016670Y008735D03*
X017201Y008735D03*
X017701Y008735D03*
X017483Y009985D03*
X018076Y010048D03*
X019233Y008735D03*
X019045Y006954D03*
X019201Y006016D03*
X017264Y004798D03*
X016920Y004860D03*
X016764Y003735D03*
X013826Y006423D03*
X012670Y005235D03*
X012420Y005016D03*
X011639Y006266D03*
X011264Y006704D03*
X011264Y007048D03*
X010545Y006548D03*
X009951Y006516D03*
X009483Y006516D03*
X008795Y005298D03*
X007826Y004235D03*
X008076Y003985D03*
X007514Y004485D03*
X007139Y004329D03*
X006889Y004735D03*
X006889Y005079D03*
X005826Y005298D03*
X005795Y005641D03*
X004795Y004204D03*
X004514Y003641D03*
X004139Y003673D03*
X003826Y004173D03*
X003358Y003923D03*
X002420Y004954D03*
X002420Y005298D03*
X003733Y007079D03*
X004045Y006985D03*
X004358Y006891D03*
X004420Y008298D03*
X004264Y008798D03*
X006045Y008641D03*
X006045Y008298D03*
X003295Y011329D03*
X002233Y007704D03*
X006264Y003016D03*
X007983Y001985D03*
X007983Y001641D03*
X011264Y002610D03*
X011233Y003141D03*
X009014Y008360D03*
X009014Y008704D03*
X011139Y008766D03*
X011483Y012360D03*
X014889Y012548D03*
X015233Y012673D03*
X015545Y012891D03*
X015733Y013860D03*
X015701Y014204D03*
X017326Y014298D03*
X017326Y013954D03*
X014983Y017110D03*
X012420Y024454D03*
X012076Y024391D03*
X011545Y024485D03*
X011701Y029391D03*
X010670Y029391D03*
X009670Y029391D03*
X008670Y029391D03*
X008670Y030985D03*
X009670Y030985D03*
X010670Y030985D03*
X011701Y030985D03*
X007233Y030985D03*
X006233Y030985D03*
X005233Y030985D03*
X005233Y029391D03*
X006233Y029391D03*
X007233Y029391D03*
X004201Y029391D03*
X004201Y030985D03*
X023576Y021079D03*
X023764Y024360D03*
M02*
