G75*
%MOIN*%
%OFA0B0*%
%FSLAX24Y24*%
%IPPOS*%
%LPD*%
%AMOC8*
5,1,8,0,0,1.08239X$1,22.5*
%
%ADD10C,0.0600*%
%ADD11C,0.0531*%
%ADD12C,0.0475*%
%ADD13C,0.0396*%
%ADD14C,0.0945*%
%ADD15C,0.0260*%
%ADD16C,0.0160*%
D10*
X001358Y001641D03*
X002358Y001641D03*
X003358Y001641D03*
X004358Y001641D03*
X005358Y001641D03*
X006358Y001641D03*
X002420Y009704D03*
X002420Y010704D03*
X002420Y011704D03*
X002420Y012704D03*
X002420Y013704D03*
X002420Y014704D03*
X001420Y014704D03*
X001420Y013704D03*
X001420Y012704D03*
X001420Y011704D03*
X001420Y010704D03*
X001420Y009704D03*
X018201Y003423D03*
X018201Y002423D03*
X019201Y002423D03*
X019201Y003423D03*
X020201Y003423D03*
X020201Y002423D03*
X021201Y002423D03*
X021201Y003423D03*
X022201Y003423D03*
X022201Y002423D03*
D11*
X022589Y009998D03*
X022589Y010785D03*
X022589Y011573D03*
X022589Y012360D03*
X022589Y013148D03*
X022589Y013935D03*
X023376Y013935D03*
X023376Y013148D03*
X023376Y012360D03*
X023376Y011573D03*
X023376Y010785D03*
X023376Y009998D03*
X023376Y014722D03*
X022589Y014722D03*
D12*
X022451Y025985D03*
X021451Y025985D03*
X020451Y025985D03*
X019451Y025985D03*
X018451Y025985D03*
X017451Y025985D03*
X016451Y025985D03*
X015451Y025985D03*
X014451Y025985D03*
X013451Y025985D03*
X012451Y025985D03*
X011451Y025985D03*
X010451Y025985D03*
X009451Y025985D03*
X008451Y025985D03*
X007451Y025985D03*
X006451Y025985D03*
X005451Y025985D03*
X004451Y025985D03*
X003451Y025985D03*
X003451Y031985D03*
X004451Y031985D03*
X005451Y031985D03*
X006451Y031985D03*
X007451Y031985D03*
X008451Y031985D03*
X009451Y031985D03*
X010451Y031985D03*
X011451Y031985D03*
X012451Y031985D03*
X013451Y031985D03*
X014451Y031985D03*
X015451Y031985D03*
X016451Y031985D03*
X017451Y031985D03*
X018451Y031985D03*
X019451Y031985D03*
X020451Y031985D03*
X021451Y031985D03*
X022451Y031985D03*
D13*
X007451Y022766D03*
X006545Y022735D03*
X005670Y022829D03*
X013983Y003891D03*
X013983Y003016D03*
X014139Y002266D03*
X021349Y006293D03*
X021822Y006608D03*
X021349Y006923D03*
X021822Y007238D03*
X021349Y007553D03*
D14*
X021704Y008360D03*
X023534Y008360D03*
X023534Y005486D03*
X021704Y005486D03*
D15*
X019201Y006016D03*
X019045Y006954D03*
X019233Y008735D03*
X018076Y010048D03*
X017483Y009985D03*
X016514Y010391D03*
X016170Y011110D03*
X015826Y011110D03*
X015076Y011110D03*
X014733Y011110D03*
X014170Y011079D03*
X013639Y011766D03*
X013639Y012391D03*
X013639Y012735D03*
X013639Y013860D03*
X013639Y014360D03*
X013451Y014735D03*
X013608Y015016D03*
X013639Y015954D03*
X013639Y016579D03*
X013639Y016923D03*
X013639Y017454D03*
X013576Y017798D03*
X012858Y018548D03*
X012483Y018548D03*
X013670Y019173D03*
X014420Y018891D03*
X014701Y019079D03*
X015576Y020798D03*
X015514Y021141D03*
X015139Y020829D03*
X015420Y024423D03*
X015920Y024516D03*
X016201Y024360D03*
X019389Y024360D03*
X020170Y024423D03*
X020514Y024391D03*
X019670Y021360D03*
X020608Y021235D03*
X019608Y020016D03*
X020076Y015329D03*
X020670Y015266D03*
X021233Y013235D03*
X020858Y011673D03*
X019420Y011548D03*
X018795Y011579D03*
X018451Y011579D03*
X017326Y011548D03*
X016108Y009454D03*
X015826Y009079D03*
X014951Y009485D03*
X013826Y009579D03*
X013358Y011204D03*
X012858Y011204D03*
X012389Y011204D03*
X011795Y011204D03*
X011295Y011204D03*
X010670Y011204D03*
X010295Y011235D03*
X009795Y011235D03*
X009951Y012266D03*
X009545Y012298D03*
X008858Y011204D03*
X007170Y011204D03*
X006826Y011204D03*
X006483Y011766D03*
X006295Y012923D03*
X006295Y013266D03*
X006295Y014079D03*
X006608Y014329D03*
X006264Y014673D03*
X006264Y015141D03*
X006264Y015735D03*
X007326Y015985D03*
X007326Y015391D03*
X007358Y014829D03*
X007733Y017516D03*
X007451Y018579D03*
X006233Y019173D03*
X006264Y017516D03*
X003795Y018673D03*
X003514Y018454D03*
X003264Y018954D03*
X003014Y018298D03*
X001889Y017016D03*
X001889Y020016D03*
X001545Y021079D03*
X001233Y020923D03*
X002608Y023110D03*
X001451Y024360D03*
X001170Y024516D03*
X004639Y024391D03*
X004920Y022079D03*
X007858Y021360D03*
X008608Y021204D03*
X009201Y023110D03*
X008420Y024485D03*
X008045Y023423D03*
X009951Y020048D03*
X010326Y018579D03*
X009951Y018360D03*
X009670Y018548D03*
X010545Y017516D03*
X011108Y017516D03*
X010858Y018579D03*
X012108Y021110D03*
X012608Y021173D03*
X011295Y021204D03*
X012076Y024391D03*
X012420Y024454D03*
X011545Y024485D03*
X011701Y029391D03*
X010670Y029391D03*
X009670Y029391D03*
X008670Y029391D03*
X008670Y030985D03*
X009670Y030985D03*
X010670Y030985D03*
X011701Y030985D03*
X007233Y030985D03*
X006233Y030985D03*
X005233Y030985D03*
X005233Y029391D03*
X006233Y029391D03*
X007233Y029391D03*
X004201Y029391D03*
X004201Y030985D03*
X008889Y018579D03*
X011483Y012360D03*
X011139Y008766D03*
X011264Y007048D03*
X011264Y006704D03*
X011639Y006266D03*
X012670Y005235D03*
X012420Y005016D03*
X013826Y006423D03*
X011233Y003141D03*
X011264Y002610D03*
X008795Y005298D03*
X009483Y006516D03*
X009951Y006516D03*
X010545Y006548D03*
X009014Y008360D03*
X009014Y008704D03*
X006889Y005079D03*
X006889Y004735D03*
X007139Y004329D03*
X007514Y004485D03*
X007826Y004235D03*
X008076Y003985D03*
X007983Y001985D03*
X007983Y001641D03*
X006264Y003016D03*
X004795Y004204D03*
X004514Y003641D03*
X004139Y003673D03*
X003826Y004173D03*
X003358Y003923D03*
X002420Y004954D03*
X002420Y005298D03*
X003733Y007079D03*
X004045Y006985D03*
X004358Y006891D03*
X004420Y008298D03*
X004264Y008798D03*
X006045Y008641D03*
X006045Y008298D03*
X005795Y005641D03*
X005826Y005298D03*
X002233Y007704D03*
X003295Y011329D03*
X014889Y012548D03*
X015233Y012673D03*
X015545Y012891D03*
X015733Y013860D03*
X015701Y014204D03*
X017326Y014298D03*
X017326Y013954D03*
X014983Y017110D03*
X016670Y008735D03*
X017201Y008735D03*
X017701Y008735D03*
X016920Y004860D03*
X017264Y004798D03*
X016764Y003735D03*
X023576Y021079D03*
X023764Y024360D03*
D16*
X023945Y024282D02*
X020869Y024282D01*
X020884Y024318D02*
X020827Y024182D01*
X020723Y024078D01*
X020587Y024021D01*
X020440Y024021D01*
X020304Y024078D01*
X020200Y024182D01*
X020144Y024318D01*
X020144Y024465D01*
X020200Y024601D01*
X020304Y024705D01*
X020440Y024761D01*
X020587Y024761D01*
X020723Y024705D01*
X020827Y024601D01*
X020884Y024465D01*
X020884Y024318D01*
X020884Y024441D02*
X023945Y024441D01*
X023945Y024599D02*
X020828Y024599D01*
X020596Y024758D02*
X023945Y024758D01*
X023945Y024916D02*
X001106Y024916D01*
X001106Y024758D02*
X008170Y024758D01*
X008210Y024799D02*
X008106Y024695D01*
X008050Y024559D01*
X008050Y024412D01*
X008106Y024276D01*
X008210Y024171D01*
X008346Y024115D01*
X008494Y024115D01*
X008630Y024171D01*
X008734Y024276D01*
X008790Y024412D01*
X008790Y024559D01*
X008734Y024695D01*
X008630Y024799D01*
X008494Y024855D01*
X008346Y024855D01*
X008210Y024799D01*
X008067Y024599D02*
X001735Y024599D01*
X001765Y024570D02*
X001661Y024674D01*
X001525Y024730D01*
X001378Y024730D01*
X001242Y024674D01*
X001138Y024570D01*
X001106Y024494D01*
X001106Y033674D01*
X023945Y033674D01*
X023945Y008957D01*
X023938Y008964D01*
X023676Y009072D01*
X023393Y009072D01*
X023131Y008964D01*
X022930Y008763D01*
X022822Y008501D01*
X022822Y008218D01*
X022930Y007956D01*
X023131Y007756D01*
X023393Y007647D01*
X023676Y007647D01*
X023938Y007756D01*
X023945Y007762D01*
X023945Y006083D01*
X023938Y006090D01*
X023676Y006198D01*
X023393Y006198D01*
X023131Y006090D01*
X022930Y005889D01*
X022822Y005627D01*
X022822Y005344D01*
X022930Y005082D01*
X023131Y004882D01*
X023393Y004773D01*
X023676Y004773D01*
X023938Y004882D01*
X023945Y004888D01*
X023945Y001421D01*
X008286Y001421D01*
X008296Y001432D01*
X008353Y001568D01*
X008353Y001715D01*
X008296Y001851D01*
X008192Y001955D01*
X008056Y002011D01*
X007909Y002011D01*
X007773Y001955D01*
X007669Y001851D01*
X007613Y001715D01*
X007613Y001568D01*
X007669Y001432D01*
X007679Y001421D01*
X006851Y001421D01*
X006898Y001534D01*
X006898Y001749D01*
X006815Y001947D01*
X006663Y002099D01*
X006465Y002181D01*
X006250Y002181D01*
X006052Y002099D01*
X005900Y001947D01*
X005858Y001845D01*
X005815Y001947D01*
X005663Y002099D01*
X005465Y002181D01*
X005250Y002181D01*
X005052Y002099D01*
X004900Y001947D01*
X004858Y001845D01*
X004815Y001947D01*
X004663Y002099D01*
X004465Y002181D01*
X004250Y002181D01*
X004052Y002099D01*
X003900Y001947D01*
X003818Y001749D01*
X003818Y001534D01*
X003864Y001421D01*
X002851Y001421D01*
X002898Y001534D01*
X002898Y001749D01*
X002815Y001947D01*
X002663Y002099D01*
X002465Y002181D01*
X002250Y002181D01*
X002052Y002099D01*
X001900Y001947D01*
X001858Y001845D01*
X001815Y001947D01*
X001663Y002099D01*
X001465Y002181D01*
X001250Y002181D01*
X001106Y002122D01*
X001106Y009254D01*
X001114Y009246D01*
X001313Y009164D01*
X001527Y009164D01*
X001726Y009246D01*
X001878Y009398D01*
X001960Y009597D01*
X001960Y009811D01*
X001878Y010010D01*
X001726Y010162D01*
X001624Y010204D01*
X001726Y010246D01*
X001878Y010398D01*
X001960Y010597D01*
X001960Y010811D01*
X001878Y011010D01*
X001726Y011162D01*
X001624Y011204D01*
X001726Y011246D01*
X001878Y011398D01*
X001960Y011597D01*
X001960Y011811D01*
X001878Y012010D01*
X001726Y012162D01*
X001624Y012204D01*
X001726Y012246D01*
X001878Y012398D01*
X001960Y012597D01*
X001960Y012811D01*
X001878Y013010D01*
X001726Y013162D01*
X001624Y013204D01*
X001726Y013246D01*
X001878Y013398D01*
X001960Y013597D01*
X001960Y013811D01*
X001878Y014010D01*
X001726Y014162D01*
X001624Y014204D01*
X001726Y014246D01*
X001878Y014398D01*
X001960Y014597D01*
X001960Y014811D01*
X001878Y015010D01*
X001726Y015162D01*
X001527Y015244D01*
X001313Y015244D01*
X001114Y015162D01*
X001106Y015154D01*
X001106Y024226D01*
X001138Y024151D01*
X001242Y024046D01*
X001378Y023990D01*
X001525Y023990D01*
X001661Y024046D01*
X001765Y024151D01*
X001821Y024287D01*
X001821Y024434D01*
X001765Y024570D01*
X001818Y024441D02*
X008050Y024441D01*
X008103Y024282D02*
X001820Y024282D01*
X001738Y024124D02*
X008325Y024124D01*
X008515Y024124D02*
X012250Y024124D01*
X012210Y024140D02*
X012346Y024084D01*
X012494Y024084D01*
X012630Y024140D01*
X012734Y024244D01*
X012790Y024380D01*
X012790Y024528D01*
X012734Y024664D01*
X012630Y024768D01*
X012494Y024824D01*
X012346Y024824D01*
X012210Y024768D01*
X012106Y024664D01*
X012050Y024528D01*
X012050Y024380D01*
X012106Y024244D01*
X012210Y024140D01*
X012091Y024282D02*
X008737Y024282D01*
X008790Y024441D02*
X012050Y024441D01*
X012080Y024599D02*
X008773Y024599D01*
X008670Y024758D02*
X012201Y024758D01*
X012639Y024758D02*
X020432Y024758D01*
X020199Y024599D02*
X016485Y024599D01*
X016515Y024570D02*
X016411Y024674D01*
X016275Y024730D01*
X016128Y024730D01*
X015992Y024674D01*
X015888Y024570D01*
X015831Y024434D01*
X015831Y024287D01*
X015888Y024151D01*
X015992Y024046D01*
X016128Y023990D01*
X016275Y023990D01*
X016411Y024046D01*
X016515Y024151D01*
X016571Y024287D01*
X016571Y024434D01*
X016515Y024570D01*
X016568Y024441D02*
X020144Y024441D01*
X020158Y024282D02*
X016570Y024282D01*
X016488Y024124D02*
X020258Y024124D01*
X020770Y024124D02*
X023945Y024124D01*
X023945Y023965D02*
X001106Y023965D01*
X001106Y023807D02*
X023945Y023807D01*
X023945Y023648D02*
X001106Y023648D01*
X001106Y023490D02*
X023945Y023490D01*
X023945Y023331D02*
X009503Y023331D01*
X009515Y023320D02*
X009411Y023424D01*
X009275Y023480D01*
X009128Y023480D01*
X008992Y023424D01*
X008888Y023320D01*
X008831Y023184D01*
X008831Y023037D01*
X008888Y022901D01*
X008992Y022796D01*
X009128Y022740D01*
X009275Y022740D01*
X009411Y022796D01*
X009515Y022901D01*
X009571Y023037D01*
X009571Y023184D01*
X009515Y023320D01*
X009571Y023173D02*
X023945Y023173D01*
X023945Y023014D02*
X009562Y023014D01*
X009470Y022856D02*
X023945Y022856D01*
X023945Y022697D02*
X007889Y022697D01*
X007889Y022679D02*
X007823Y022518D01*
X007699Y022395D01*
X007538Y022328D01*
X007364Y022328D01*
X007203Y022395D01*
X007080Y022518D01*
X007013Y022679D01*
X007013Y022854D01*
X007080Y023015D01*
X007203Y023138D01*
X007364Y023205D01*
X007538Y023205D01*
X007699Y023138D01*
X007823Y023015D01*
X007889Y022854D01*
X007889Y022679D01*
X007831Y022539D02*
X023945Y022539D01*
X023945Y022380D02*
X007664Y022380D01*
X007238Y022380D02*
X006810Y022380D01*
X006793Y022364D02*
X006916Y022487D01*
X006983Y022648D01*
X006983Y022822D01*
X006916Y022983D01*
X006793Y023107D01*
X006632Y023173D01*
X006458Y023173D01*
X006297Y023107D01*
X006174Y022983D01*
X006107Y022822D01*
X006107Y022648D01*
X006174Y022487D01*
X006297Y022364D01*
X006458Y022297D01*
X006632Y022297D01*
X006793Y022364D01*
X006938Y022539D02*
X007071Y022539D01*
X007013Y022697D02*
X006983Y022697D01*
X006969Y022856D02*
X007014Y022856D01*
X007080Y023014D02*
X006885Y023014D01*
X006633Y023173D02*
X007288Y023173D01*
X007615Y023173D02*
X008831Y023173D01*
X008840Y023014D02*
X007823Y023014D01*
X007888Y022856D02*
X008932Y022856D01*
X008899Y023331D02*
X002909Y023331D01*
X002921Y023320D02*
X002817Y023424D01*
X002681Y023480D01*
X002534Y023480D01*
X002398Y023424D01*
X002294Y023320D01*
X002238Y023184D01*
X002238Y023037D01*
X002294Y022901D01*
X002398Y022796D01*
X002534Y022740D01*
X002681Y022740D01*
X002817Y022796D01*
X002921Y022901D01*
X002978Y023037D01*
X002978Y023184D01*
X002921Y023320D01*
X002978Y023173D02*
X006457Y023173D01*
X006205Y023014D02*
X002968Y023014D01*
X002877Y022856D02*
X006121Y022856D01*
X006107Y022697D02*
X001106Y022697D01*
X001106Y022539D02*
X006152Y022539D01*
X006280Y022380D02*
X001106Y022380D01*
X001106Y022222D02*
X023945Y022222D01*
X023945Y022063D02*
X001106Y022063D01*
X001106Y021905D02*
X023945Y021905D01*
X023945Y021746D02*
X001106Y021746D01*
X001106Y021588D02*
X020492Y021588D01*
X020534Y021605D02*
X020398Y021549D01*
X020294Y021445D01*
X020238Y021309D01*
X020238Y021162D01*
X020294Y021026D01*
X020398Y020921D01*
X020534Y020865D01*
X020681Y020865D01*
X020817Y020921D01*
X020921Y021026D01*
X020978Y021162D01*
X020978Y021309D01*
X020921Y021445D01*
X020817Y021549D01*
X020681Y021605D01*
X020534Y021605D01*
X020723Y021588D02*
X023945Y021588D01*
X023945Y021429D02*
X020928Y021429D01*
X020978Y021271D02*
X023945Y021271D01*
X023945Y021112D02*
X020957Y021112D01*
X020850Y020954D02*
X023945Y020954D01*
X023945Y020795D02*
X015946Y020795D01*
X015946Y020724D02*
X015890Y020588D01*
X015786Y020484D01*
X015650Y020428D01*
X015503Y020428D01*
X015367Y020484D01*
X015339Y020511D01*
X015212Y020459D01*
X015065Y020459D01*
X014929Y020515D01*
X014825Y020619D01*
X014769Y020755D01*
X014769Y020903D01*
X014825Y021039D01*
X014929Y021143D01*
X015065Y021199D01*
X015212Y021199D01*
X015348Y021143D01*
X015376Y021115D01*
X015503Y021168D01*
X015650Y021168D01*
X015786Y021111D01*
X015890Y021007D01*
X015946Y020871D01*
X015946Y020724D01*
X015910Y020637D02*
X023945Y020637D01*
X023945Y020478D02*
X015772Y020478D01*
X015380Y020478D02*
X015260Y020478D01*
X015018Y020478D02*
X001106Y020478D01*
X001106Y020320D02*
X001669Y020320D01*
X001679Y020330D02*
X001575Y020226D01*
X001519Y020090D01*
X001519Y019943D01*
X001575Y019807D01*
X001679Y019703D01*
X001815Y019646D01*
X001962Y019646D01*
X002098Y019703D01*
X002202Y019807D01*
X002259Y019943D01*
X002259Y020090D01*
X002202Y020226D01*
X002098Y020330D01*
X001962Y020386D01*
X001815Y020386D01*
X001679Y020330D01*
X001548Y020161D02*
X001106Y020161D01*
X001106Y020003D02*
X001519Y020003D01*
X001560Y019844D02*
X001106Y019844D01*
X001106Y019686D02*
X001720Y019686D01*
X002058Y019686D02*
X009858Y019686D01*
X009878Y019678D02*
X010025Y019678D01*
X010161Y019734D01*
X010265Y019838D01*
X010321Y019974D01*
X010321Y020121D01*
X010265Y020257D01*
X010161Y020361D01*
X010025Y020418D01*
X009878Y020418D01*
X009742Y020361D01*
X009638Y020257D01*
X009581Y020121D01*
X009581Y019974D01*
X009638Y019838D01*
X009742Y019734D01*
X009878Y019678D01*
X010045Y019686D02*
X023945Y019686D01*
X023945Y019844D02*
X010268Y019844D01*
X010321Y020003D02*
X023945Y020003D01*
X023945Y020161D02*
X010305Y020161D01*
X010202Y020320D02*
X023945Y020320D01*
X023945Y019527D02*
X001106Y019527D01*
X001106Y019369D02*
X014468Y019369D01*
X014492Y019393D02*
X014388Y019289D01*
X014376Y019261D01*
X014346Y019261D01*
X014210Y019205D01*
X014106Y019101D01*
X014050Y018965D01*
X014050Y018818D01*
X014106Y018682D01*
X014210Y018578D01*
X014346Y018521D01*
X014494Y018521D01*
X014630Y018578D01*
X014734Y018682D01*
X014745Y018709D01*
X014775Y018709D01*
X014911Y018765D01*
X015015Y018869D01*
X015071Y019005D01*
X015071Y019153D01*
X015015Y019289D01*
X014911Y019393D01*
X014775Y019449D01*
X014628Y019449D01*
X014492Y019393D01*
X014223Y019210D02*
X003530Y019210D01*
X003577Y019164D02*
X003473Y019268D01*
X003337Y019324D01*
X003190Y019324D01*
X003054Y019268D01*
X002950Y019164D01*
X002894Y019028D01*
X002894Y018880D01*
X002950Y018744D01*
X003027Y018668D01*
X002940Y018668D01*
X002804Y018611D01*
X002700Y018507D01*
X002644Y018371D01*
X002644Y018224D01*
X002700Y018088D01*
X002804Y017984D01*
X002940Y017928D01*
X003087Y017928D01*
X003223Y017984D01*
X003327Y018088D01*
X003342Y018124D01*
X003440Y018084D01*
X003587Y018084D01*
X003723Y018140D01*
X003827Y018244D01*
X003852Y018303D01*
X003869Y018303D01*
X004005Y018359D01*
X004109Y018463D01*
X004165Y018599D01*
X004165Y018746D01*
X004109Y018882D01*
X004005Y018986D01*
X003869Y019043D01*
X003721Y019043D01*
X003634Y019006D01*
X003634Y019028D01*
X003577Y019164D01*
X003624Y019052D02*
X014086Y019052D01*
X014050Y018893D02*
X012990Y018893D01*
X012931Y018918D02*
X012784Y018918D01*
X012648Y018861D01*
X012544Y018757D01*
X012488Y018621D01*
X012488Y018474D01*
X012544Y018338D01*
X012648Y018234D01*
X012784Y018178D01*
X012931Y018178D01*
X013067Y018234D01*
X013171Y018338D01*
X013228Y018474D01*
X013228Y018621D01*
X013171Y018757D01*
X013067Y018861D01*
X012931Y018918D01*
X012725Y018893D02*
X011065Y018893D01*
X011067Y018893D02*
X010931Y018949D01*
X010784Y018949D01*
X010648Y018893D01*
X010592Y018837D01*
X010536Y018893D01*
X010400Y018949D01*
X010253Y018949D01*
X010117Y018893D01*
X010013Y018789D01*
X009988Y018730D01*
X009878Y018730D01*
X009742Y018674D01*
X009638Y018570D01*
X009581Y018434D01*
X009581Y018287D01*
X009638Y018151D01*
X009742Y018046D01*
X009878Y017990D01*
X010025Y017990D01*
X010161Y018046D01*
X010265Y018151D01*
X010289Y018209D01*
X010400Y018209D01*
X010536Y018265D01*
X010592Y018321D01*
X010648Y018265D01*
X010784Y018209D01*
X010931Y018209D01*
X011067Y018265D01*
X011171Y018369D01*
X011228Y018505D01*
X011228Y018653D01*
X011171Y018789D01*
X011067Y018893D01*
X011193Y018735D02*
X012535Y018735D01*
X012488Y018576D02*
X011228Y018576D01*
X011191Y018418D02*
X012511Y018418D01*
X012622Y018259D02*
X011053Y018259D01*
X010662Y018259D02*
X010522Y018259D01*
X010215Y018101D02*
X013356Y018101D01*
X013367Y018111D02*
X013263Y018007D01*
X013206Y017871D01*
X013206Y017724D01*
X013263Y017588D01*
X013367Y017484D01*
X013503Y017428D01*
X013650Y017428D01*
X013786Y017484D01*
X013890Y017588D01*
X013946Y017724D01*
X013946Y017871D01*
X013890Y018007D01*
X013786Y018111D01*
X013650Y018168D01*
X013503Y018168D01*
X013367Y018111D01*
X013236Y017942D02*
X003123Y017942D01*
X002904Y017942D02*
X001106Y017942D01*
X001106Y017784D02*
X013206Y017784D01*
X013247Y017625D02*
X001106Y017625D01*
X001106Y017467D02*
X013408Y017467D01*
X013745Y017467D02*
X014877Y017467D01*
X014909Y017480D02*
X014773Y017424D01*
X014669Y017320D01*
X014613Y017184D01*
X014613Y017037D01*
X014669Y016901D01*
X014773Y016796D01*
X014909Y016740D01*
X015056Y016740D01*
X015192Y016796D01*
X015296Y016901D01*
X015353Y017037D01*
X015353Y017184D01*
X015296Y017320D01*
X015192Y017424D01*
X015056Y017480D01*
X014909Y017480D01*
X015088Y017467D02*
X023945Y017467D01*
X023945Y017625D02*
X013905Y017625D01*
X013946Y017784D02*
X023945Y017784D01*
X023945Y017942D02*
X013917Y017942D01*
X013796Y018101D02*
X023945Y018101D01*
X023945Y018259D02*
X013093Y018259D01*
X013204Y018418D02*
X023945Y018418D01*
X023945Y018576D02*
X014626Y018576D01*
X014838Y018735D02*
X023945Y018735D01*
X023945Y018893D02*
X015025Y018893D01*
X015071Y019052D02*
X023945Y019052D01*
X023945Y019210D02*
X015047Y019210D01*
X014934Y019369D02*
X023945Y019369D01*
X023945Y017308D02*
X015301Y017308D01*
X015353Y017150D02*
X023945Y017150D01*
X023945Y016991D02*
X015334Y016991D01*
X015229Y016833D02*
X023945Y016833D01*
X023945Y016674D02*
X014000Y016674D01*
X014009Y016653D02*
X013952Y016789D01*
X013848Y016893D01*
X013712Y016949D01*
X013565Y016949D01*
X013429Y016893D01*
X013325Y016789D01*
X013269Y016653D01*
X013269Y016505D01*
X013325Y016369D01*
X013428Y016266D01*
X013325Y016164D01*
X013269Y016028D01*
X013269Y015880D01*
X013325Y015744D01*
X013429Y015640D01*
X013565Y015584D01*
X013712Y015584D01*
X013848Y015640D01*
X013952Y015744D01*
X014009Y015880D01*
X014009Y016028D01*
X013952Y016164D01*
X013850Y016266D01*
X013952Y016369D01*
X014009Y016505D01*
X014009Y016653D01*
X014009Y016516D02*
X023945Y016516D01*
X023945Y016357D02*
X013941Y016357D01*
X013917Y016199D02*
X023945Y016199D01*
X023945Y016040D02*
X014003Y016040D01*
X014009Y015882D02*
X023945Y015882D01*
X023945Y015723D02*
X013932Y015723D01*
X013661Y015049D02*
X013525Y015105D01*
X013378Y015105D01*
X013242Y015049D01*
X013138Y014945D01*
X013081Y014809D01*
X013081Y014662D01*
X013138Y014526D01*
X013242Y014421D01*
X013269Y014410D01*
X013269Y014287D01*
X013325Y014151D01*
X013429Y014046D01*
X013565Y013990D01*
X013712Y013990D01*
X013848Y014046D01*
X013952Y014151D01*
X014009Y014287D01*
X014009Y014434D01*
X013952Y014570D01*
X013848Y014674D01*
X013821Y014685D01*
X013821Y014809D01*
X013765Y014945D01*
X013661Y015049D01*
X013563Y015089D02*
X020343Y015089D01*
X020356Y015057D02*
X020460Y014953D01*
X020596Y014896D01*
X020744Y014896D01*
X020880Y014953D01*
X020984Y015057D01*
X021040Y015193D01*
X021040Y015340D01*
X020984Y015476D01*
X020880Y015580D01*
X020744Y015636D01*
X020596Y015636D01*
X020460Y015580D01*
X020356Y015476D01*
X020300Y015340D01*
X020300Y015193D01*
X020356Y015057D01*
X020300Y015248D02*
X006620Y015248D01*
X006634Y015215D02*
X006577Y015351D01*
X006490Y015438D01*
X006577Y015526D01*
X006634Y015662D01*
X006634Y015809D01*
X006577Y015945D01*
X006473Y016049D01*
X006337Y016105D01*
X006190Y016105D01*
X006054Y016049D01*
X005950Y015945D01*
X005894Y015809D01*
X005894Y015662D01*
X005950Y015526D01*
X006037Y015438D01*
X005950Y015351D01*
X005894Y015215D01*
X005894Y015068D01*
X005950Y014932D01*
X005975Y014907D01*
X005950Y014882D01*
X005894Y014746D01*
X005894Y014599D01*
X005950Y014463D01*
X006054Y014359D01*
X006190Y014303D01*
X006238Y014303D01*
X006238Y014255D01*
X006294Y014119D01*
X006398Y014015D01*
X006534Y013959D01*
X006681Y013959D01*
X006817Y014015D01*
X006921Y014119D01*
X006978Y014255D01*
X006978Y014403D01*
X006921Y014539D01*
X006817Y014643D01*
X006681Y014699D01*
X006634Y014699D01*
X006634Y014746D01*
X006577Y014882D01*
X006553Y014907D01*
X006577Y014932D01*
X006634Y015068D01*
X006634Y015215D01*
X006634Y015089D02*
X013340Y015089D01*
X013132Y014931D02*
X006577Y014931D01*
X006623Y014772D02*
X013081Y014772D01*
X013101Y014614D02*
X006846Y014614D01*
X006956Y014455D02*
X013208Y014455D01*
X013269Y014297D02*
X006978Y014297D01*
X006929Y014138D02*
X013337Y014138D01*
X013821Y014772D02*
X022083Y014772D01*
X022083Y014823D02*
X022083Y014622D01*
X022160Y014436D01*
X022302Y014294D01*
X022488Y014217D01*
X022689Y014217D01*
X022875Y014294D01*
X022983Y014401D01*
X023055Y014329D01*
X022947Y014221D01*
X022870Y014036D01*
X022870Y013834D01*
X022947Y013648D01*
X023055Y013541D01*
X022947Y013434D01*
X022870Y013248D01*
X022870Y013047D01*
X022947Y012861D01*
X023055Y012754D01*
X022947Y012647D01*
X022870Y012461D01*
X022870Y012260D01*
X022947Y012074D01*
X023055Y011966D01*
X022947Y011859D01*
X022870Y011673D01*
X022870Y011472D01*
X022947Y011286D01*
X023055Y011179D01*
X022947Y011072D01*
X022870Y010886D01*
X022870Y010685D01*
X022947Y010499D01*
X023055Y010392D01*
X022983Y010319D01*
X022875Y010427D01*
X022689Y010504D01*
X022488Y010504D01*
X022302Y010427D01*
X022160Y010284D01*
X022083Y010099D01*
X022083Y009897D01*
X022160Y009711D01*
X022302Y009569D01*
X022488Y009492D01*
X022689Y009492D01*
X022875Y009569D01*
X022983Y009676D01*
X023090Y009569D01*
X023276Y009492D01*
X023477Y009492D01*
X023663Y009569D01*
X023805Y009711D01*
X023882Y009897D01*
X023882Y010099D01*
X023805Y010284D01*
X023698Y010392D01*
X023805Y010499D01*
X023882Y010685D01*
X023882Y010886D01*
X023805Y011072D01*
X023698Y011179D01*
X023805Y011286D01*
X023882Y011472D01*
X023882Y011673D01*
X023805Y011859D01*
X023698Y011966D01*
X023805Y012074D01*
X023882Y012260D01*
X023882Y012461D01*
X023805Y012647D01*
X023698Y012754D01*
X023805Y012861D01*
X023882Y013047D01*
X023882Y013248D01*
X023805Y013434D01*
X023698Y013541D01*
X023805Y013648D01*
X023882Y013834D01*
X023882Y014036D01*
X023805Y014221D01*
X023698Y014329D01*
X023805Y014436D01*
X023882Y014622D01*
X023882Y014823D01*
X023805Y015009D01*
X023663Y015151D01*
X023477Y015228D01*
X023276Y015228D01*
X023090Y015151D01*
X022983Y015044D01*
X022875Y015151D01*
X022689Y015228D01*
X022488Y015228D01*
X022302Y015151D01*
X022160Y015009D01*
X022083Y014823D01*
X022128Y014931D02*
X020827Y014931D01*
X020997Y015089D02*
X022241Y015089D01*
X022086Y014614D02*
X013908Y014614D01*
X014000Y014455D02*
X015430Y014455D01*
X015388Y014414D02*
X015331Y014278D01*
X015331Y014130D01*
X015388Y013994D01*
X015492Y013890D01*
X015628Y013834D01*
X015775Y013834D01*
X015911Y013890D01*
X016015Y013994D01*
X016071Y014130D01*
X016071Y014278D01*
X016015Y014414D01*
X015911Y014518D01*
X015775Y014574D01*
X015628Y014574D01*
X015492Y014518D01*
X015388Y014414D01*
X015339Y014297D02*
X014009Y014297D01*
X013940Y014138D02*
X015331Y014138D01*
X015402Y013980D02*
X006732Y013980D01*
X006483Y013980D02*
X001890Y013980D01*
X001956Y013821D02*
X016981Y013821D01*
X016956Y013880D02*
X017013Y013744D01*
X017117Y013640D01*
X017253Y013584D01*
X017400Y013584D01*
X017536Y013640D01*
X017640Y013744D01*
X017696Y013880D01*
X017696Y014028D01*
X017640Y014164D01*
X017536Y014268D01*
X017400Y014324D01*
X017253Y014324D01*
X017117Y014268D01*
X017013Y014164D01*
X016956Y014028D01*
X016956Y013880D01*
X016956Y013980D02*
X016001Y013980D01*
X016071Y014138D02*
X017002Y014138D01*
X017188Y014297D02*
X016063Y014297D01*
X015973Y014455D02*
X022152Y014455D01*
X022299Y014297D02*
X017465Y014297D01*
X017650Y014138D02*
X022913Y014138D01*
X022879Y014297D02*
X023023Y014297D01*
X022870Y013980D02*
X017696Y013980D01*
X017672Y013821D02*
X022876Y013821D01*
X022941Y013663D02*
X017559Y013663D01*
X017094Y013663D02*
X001960Y013663D01*
X001922Y013504D02*
X006010Y013504D01*
X005981Y013476D02*
X005925Y013340D01*
X005925Y013193D01*
X005981Y013057D01*
X006085Y012953D01*
X006221Y012896D01*
X006369Y012896D01*
X006505Y012953D01*
X006609Y013057D01*
X006665Y013193D01*
X006665Y013340D01*
X006609Y013476D01*
X006505Y013580D01*
X006369Y013636D01*
X006221Y013636D01*
X006085Y013580D01*
X005981Y013476D01*
X005927Y013346D02*
X001826Y013346D01*
X001664Y013187D02*
X005927Y013187D01*
X006009Y013029D02*
X001859Y013029D01*
X001936Y012870D02*
X014701Y012870D01*
X014679Y012861D02*
X014575Y012757D01*
X014519Y012621D01*
X014519Y012474D01*
X014575Y012338D01*
X014679Y012234D01*
X014815Y012178D01*
X014962Y012178D01*
X015098Y012234D01*
X015167Y012303D01*
X015306Y012303D01*
X015442Y012359D01*
X015546Y012463D01*
X015570Y012521D01*
X015619Y012521D01*
X015755Y012578D01*
X015859Y012682D01*
X015915Y012818D01*
X015915Y012965D01*
X015859Y013101D01*
X015755Y013205D01*
X015619Y013261D01*
X015471Y013261D01*
X015335Y013205D01*
X015231Y013101D01*
X015207Y013043D01*
X015159Y013043D01*
X015023Y012986D01*
X014954Y012918D01*
X014815Y012918D01*
X014679Y012861D01*
X014556Y012712D02*
X013832Y012712D01*
X013848Y012705D02*
X013712Y012761D01*
X013565Y012761D01*
X013429Y012705D01*
X013325Y012601D01*
X013269Y012465D01*
X013269Y012318D01*
X013325Y012182D01*
X013428Y012079D01*
X013325Y011976D01*
X013269Y011840D01*
X013269Y011693D01*
X013318Y011574D01*
X013284Y011574D01*
X013148Y011518D01*
X013044Y011414D01*
X012988Y011278D01*
X012988Y011130D01*
X013044Y010994D01*
X013148Y010890D01*
X013284Y010834D01*
X013431Y010834D01*
X013567Y010890D01*
X013671Y010994D01*
X013728Y011130D01*
X013728Y011278D01*
X013678Y011396D01*
X013712Y011396D01*
X013848Y011453D01*
X013952Y011557D01*
X014009Y011693D01*
X014009Y011840D01*
X013952Y011976D01*
X013850Y012079D01*
X013952Y012182D01*
X014009Y012318D01*
X014009Y012465D01*
X013952Y012601D01*
X013848Y012705D01*
X013972Y012553D02*
X014519Y012553D01*
X014552Y012395D02*
X014009Y012395D01*
X013975Y012236D02*
X014677Y012236D01*
X015101Y012236D02*
X022880Y012236D01*
X022870Y012395D02*
X015478Y012395D01*
X015696Y012553D02*
X022909Y012553D01*
X023013Y012712D02*
X015871Y012712D01*
X015915Y012870D02*
X021146Y012870D01*
X021159Y012865D02*
X021306Y012865D01*
X021442Y012921D01*
X021546Y013026D01*
X021603Y013162D01*
X021603Y013309D01*
X021546Y013445D01*
X021442Y013549D01*
X021306Y013605D01*
X021159Y013605D01*
X021023Y013549D01*
X020919Y013445D01*
X020863Y013309D01*
X020863Y013162D01*
X020919Y013026D01*
X021023Y012921D01*
X021159Y012865D01*
X021319Y012870D02*
X022944Y012870D01*
X022878Y013029D02*
X021548Y013029D01*
X021603Y013187D02*
X022870Y013187D01*
X022911Y013346D02*
X021587Y013346D01*
X021486Y013504D02*
X023018Y013504D01*
X023735Y013504D02*
X023945Y013504D01*
X023945Y013346D02*
X023841Y013346D01*
X023882Y013187D02*
X023945Y013187D01*
X023945Y013029D02*
X023874Y013029D01*
X023809Y012870D02*
X023945Y012870D01*
X023945Y012712D02*
X023740Y012712D01*
X023844Y012553D02*
X023945Y012553D01*
X023945Y012395D02*
X023882Y012395D01*
X023872Y012236D02*
X023945Y012236D01*
X023945Y012078D02*
X023807Y012078D01*
X023745Y011919D02*
X023945Y011919D01*
X023945Y011761D02*
X023846Y011761D01*
X023882Y011602D02*
X023945Y011602D01*
X023945Y011444D02*
X023870Y011444D01*
X023804Y011285D02*
X023945Y011285D01*
X023945Y011127D02*
X023750Y011127D01*
X023848Y010968D02*
X023945Y010968D01*
X023945Y010810D02*
X023882Y010810D01*
X023868Y010651D02*
X023945Y010651D01*
X023945Y010493D02*
X023799Y010493D01*
X023755Y010334D02*
X023945Y010334D01*
X023945Y010176D02*
X023850Y010176D01*
X023882Y010017D02*
X023945Y010017D01*
X023945Y009859D02*
X023866Y009859D01*
X023794Y009700D02*
X023945Y009700D01*
X023945Y009542D02*
X023597Y009542D01*
X023945Y009383D02*
X016478Y009383D01*
X016478Y009380D02*
X016421Y009244D01*
X016317Y009140D01*
X016196Y009090D01*
X016196Y009005D01*
X016140Y008869D01*
X016036Y008765D01*
X015900Y008709D01*
X015753Y008709D01*
X015617Y008765D01*
X015513Y008869D01*
X015456Y009005D01*
X015456Y009153D01*
X015513Y009289D01*
X015617Y009393D01*
X015738Y009443D01*
X015738Y009528D01*
X015794Y009664D01*
X015898Y009768D01*
X016034Y009824D01*
X016181Y009824D01*
X016317Y009768D01*
X016421Y009664D01*
X016478Y009528D01*
X016478Y009380D01*
X016472Y009542D02*
X022368Y009542D01*
X022171Y009700D02*
X017721Y009700D01*
X017692Y009671D02*
X017796Y009776D01*
X017853Y009912D01*
X017853Y010059D01*
X017796Y010195D01*
X017692Y010299D01*
X017556Y010355D01*
X017409Y010355D01*
X017273Y010299D01*
X017169Y010195D01*
X017113Y010059D01*
X017113Y009912D01*
X017169Y009776D01*
X017273Y009671D01*
X017409Y009615D01*
X017556Y009615D01*
X017692Y009671D01*
X017831Y009859D02*
X022099Y009859D01*
X022083Y010017D02*
X017853Y010017D01*
X017804Y010176D02*
X022115Y010176D01*
X022210Y010334D02*
X017606Y010334D01*
X017359Y010334D02*
X001814Y010334D01*
X001917Y010493D02*
X022462Y010493D01*
X022715Y010493D02*
X022953Y010493D01*
X022968Y010334D02*
X022997Y010334D01*
X022884Y010651D02*
X001960Y010651D01*
X001960Y010810D02*
X013916Y010810D01*
X013960Y010765D02*
X014096Y010709D01*
X014244Y010709D01*
X014380Y010765D01*
X014484Y010869D01*
X014540Y011005D01*
X014540Y011153D01*
X014484Y011289D01*
X014380Y011393D01*
X014244Y011449D01*
X014096Y011449D01*
X013960Y011393D01*
X013856Y011289D01*
X013800Y011153D01*
X013800Y011005D01*
X013856Y010869D01*
X013960Y010765D01*
X013815Y010968D02*
X013645Y010968D01*
X013726Y011127D02*
X013800Y011127D01*
X013855Y011285D02*
X013724Y011285D01*
X013827Y011444D02*
X014084Y011444D01*
X014256Y011444D02*
X014915Y011444D01*
X014867Y011424D02*
X014763Y011320D01*
X014706Y011184D01*
X014706Y011037D01*
X014763Y010901D01*
X014867Y010796D01*
X015003Y010740D01*
X015150Y010740D01*
X015286Y010796D01*
X015390Y010901D01*
X015446Y011037D01*
X015446Y011184D01*
X015390Y011320D01*
X015286Y011424D01*
X015150Y011480D01*
X015003Y011480D01*
X014867Y011424D01*
X014748Y011285D02*
X014485Y011285D01*
X014540Y011127D02*
X014706Y011127D01*
X014734Y010968D02*
X014525Y010968D01*
X014424Y010810D02*
X014853Y010810D01*
X015299Y010810D02*
X015947Y010810D01*
X015960Y010796D02*
X016096Y010740D01*
X016244Y010740D01*
X016380Y010796D01*
X016484Y010901D01*
X016540Y011037D01*
X016540Y011184D01*
X016484Y011320D01*
X016380Y011424D01*
X016244Y011480D01*
X016096Y011480D01*
X015960Y011424D01*
X015856Y011320D01*
X015800Y011184D01*
X015800Y011037D01*
X015856Y010901D01*
X015960Y010796D01*
X015828Y010968D02*
X015418Y010968D01*
X015446Y011127D02*
X015800Y011127D01*
X015842Y011285D02*
X015404Y011285D01*
X015237Y011444D02*
X016009Y011444D01*
X016331Y011444D02*
X018450Y011444D01*
X018425Y011505D02*
X018481Y011369D01*
X018585Y011265D01*
X018721Y011209D01*
X018869Y011209D01*
X019005Y011265D01*
X019109Y011369D01*
X019165Y011505D01*
X019165Y011653D01*
X019109Y011789D01*
X019005Y011893D01*
X018869Y011949D01*
X018721Y011949D01*
X018585Y011893D01*
X018481Y011789D01*
X018425Y011653D01*
X018425Y011505D01*
X018425Y011602D02*
X013971Y011602D01*
X014009Y011761D02*
X018470Y011761D01*
X018650Y011919D02*
X013976Y011919D01*
X013850Y012078D02*
X022946Y012078D01*
X023008Y011919D02*
X018940Y011919D01*
X019120Y011761D02*
X022907Y011761D01*
X022870Y011602D02*
X019165Y011602D01*
X019140Y011444D02*
X022882Y011444D01*
X022948Y011285D02*
X019025Y011285D01*
X018565Y011285D02*
X016498Y011285D01*
X016540Y011127D02*
X023003Y011127D01*
X022905Y010968D02*
X016512Y010968D01*
X016393Y010810D02*
X022870Y010810D01*
X022809Y009542D02*
X023156Y009542D01*
X023379Y009066D02*
X021859Y009066D01*
X021845Y009072D02*
X021562Y009072D01*
X021300Y008964D01*
X021100Y008763D01*
X020991Y008501D01*
X020991Y008218D01*
X021100Y007956D01*
X021300Y007756D01*
X021562Y007647D01*
X021666Y007647D01*
X021574Y007609D01*
X021450Y007486D01*
X021399Y007361D01*
X021262Y007361D01*
X021101Y007294D01*
X020978Y007171D01*
X020911Y007010D01*
X020911Y006836D01*
X020978Y006674D01*
X021045Y006608D01*
X020978Y006541D01*
X020911Y006380D01*
X020911Y006206D01*
X020978Y006045D01*
X021101Y005921D01*
X021123Y005912D01*
X021100Y005889D01*
X020991Y005627D01*
X020991Y005344D01*
X021100Y005082D01*
X021300Y004882D01*
X021562Y004773D01*
X021845Y004773D01*
X022107Y004882D01*
X022308Y005082D01*
X022416Y005344D01*
X022416Y005627D01*
X022308Y005889D01*
X022107Y006090D01*
X021912Y006171D01*
X022070Y006236D01*
X022193Y006360D01*
X022260Y006521D01*
X022260Y006695D01*
X022193Y006856D01*
X022126Y006923D01*
X022193Y006989D01*
X022260Y007150D01*
X022260Y007325D01*
X022193Y007486D01*
X022070Y007609D01*
X021912Y007675D01*
X022107Y007756D01*
X022308Y007956D01*
X022416Y008218D01*
X022416Y008501D01*
X022308Y008763D01*
X022107Y008964D01*
X021845Y009072D01*
X021548Y009066D02*
X019400Y009066D01*
X019442Y009049D02*
X019306Y009105D01*
X019159Y009105D01*
X019023Y009049D01*
X018919Y008945D01*
X018863Y008809D01*
X018863Y008662D01*
X018919Y008526D01*
X019023Y008421D01*
X019159Y008365D01*
X019306Y008365D01*
X019442Y008421D01*
X019546Y008526D01*
X019603Y008662D01*
X019603Y008809D01*
X019546Y008945D01*
X019442Y009049D01*
X019561Y008908D02*
X021244Y008908D01*
X021094Y008749D02*
X019603Y008749D01*
X019573Y008591D02*
X021028Y008591D01*
X020991Y008432D02*
X019453Y008432D01*
X019012Y008432D02*
X017922Y008432D01*
X017911Y008421D02*
X018015Y008526D01*
X018071Y008662D01*
X018071Y008809D01*
X018015Y008945D01*
X017911Y009049D01*
X017775Y009105D01*
X017628Y009105D01*
X017492Y009049D01*
X017451Y009008D01*
X017411Y009049D01*
X017275Y009105D01*
X017128Y009105D01*
X016992Y009049D01*
X016936Y008993D01*
X016880Y009049D01*
X016744Y009105D01*
X016596Y009105D01*
X016460Y009049D01*
X016356Y008945D01*
X016300Y008809D01*
X016300Y008662D01*
X016356Y008526D01*
X016460Y008421D01*
X016596Y008365D01*
X016744Y008365D01*
X016880Y008421D01*
X016936Y008478D01*
X016992Y008421D01*
X017128Y008365D01*
X017275Y008365D01*
X017411Y008421D01*
X017451Y008462D01*
X017492Y008421D01*
X017628Y008365D01*
X017775Y008365D01*
X017911Y008421D01*
X018042Y008591D02*
X018892Y008591D01*
X018863Y008749D02*
X018071Y008749D01*
X018030Y008908D02*
X018904Y008908D01*
X019065Y009066D02*
X017868Y009066D01*
X017534Y009066D02*
X017368Y009066D01*
X017034Y009066D02*
X016837Y009066D01*
X016503Y009066D02*
X016196Y009066D01*
X016156Y008908D02*
X016341Y008908D01*
X016300Y008749D02*
X015998Y008749D01*
X015655Y008749D02*
X009384Y008749D01*
X009384Y008778D02*
X009327Y008914D01*
X009223Y009018D01*
X009087Y009074D01*
X008940Y009074D01*
X008804Y009018D01*
X008700Y008914D01*
X008644Y008778D01*
X008644Y008630D01*
X008700Y008494D01*
X008804Y008390D01*
X008940Y008334D01*
X009087Y008334D01*
X009223Y008390D01*
X009327Y008494D01*
X009384Y008630D01*
X009384Y008778D01*
X009330Y008908D02*
X015497Y008908D01*
X015456Y009066D02*
X009105Y009066D01*
X008922Y009066D02*
X001106Y009066D01*
X001106Y008908D02*
X008698Y008908D01*
X008644Y008749D02*
X001106Y008749D01*
X001106Y008591D02*
X004190Y008591D01*
X004210Y008611D02*
X004106Y008507D01*
X004050Y008371D01*
X004050Y008224D01*
X004106Y008088D01*
X004210Y007984D01*
X004346Y007928D01*
X004494Y007928D01*
X004630Y007984D01*
X004734Y008088D01*
X004790Y008224D01*
X004790Y008371D01*
X004734Y008507D01*
X004630Y008611D01*
X004494Y008668D01*
X004346Y008668D01*
X004210Y008611D01*
X004075Y008432D02*
X001106Y008432D01*
X001106Y008274D02*
X004050Y008274D01*
X004095Y008115D02*
X001106Y008115D01*
X001106Y007957D02*
X001962Y007957D01*
X001919Y007914D02*
X001863Y007778D01*
X001863Y007630D01*
X001919Y007494D01*
X002023Y007390D01*
X002159Y007334D01*
X002306Y007334D01*
X002442Y007390D01*
X002546Y007494D01*
X002603Y007630D01*
X002603Y007778D01*
X002546Y007914D01*
X002442Y008018D01*
X002306Y008074D01*
X002159Y008074D01*
X002023Y008018D01*
X001919Y007914D01*
X001871Y007798D02*
X001106Y007798D01*
X001106Y007640D02*
X001863Y007640D01*
X001932Y007481D02*
X001106Y007481D01*
X001106Y007323D02*
X003453Y007323D01*
X003419Y007289D02*
X003363Y007153D01*
X003363Y007005D01*
X003419Y006869D01*
X003523Y006765D01*
X003659Y006709D01*
X003798Y006709D01*
X003835Y006671D01*
X003971Y006615D01*
X004110Y006615D01*
X004148Y006578D01*
X004284Y006521D01*
X004431Y006521D01*
X004567Y006578D01*
X004671Y006682D01*
X004728Y006818D01*
X004728Y006965D01*
X004671Y007101D01*
X004567Y007205D01*
X004431Y007261D01*
X004292Y007261D01*
X004255Y007299D01*
X004119Y007355D01*
X003980Y007355D01*
X003942Y007393D01*
X003806Y007449D01*
X003659Y007449D01*
X003523Y007393D01*
X003419Y007289D01*
X003367Y007164D02*
X001106Y007164D01*
X001106Y007006D02*
X003363Y007006D01*
X003441Y006847D02*
X001106Y006847D01*
X001106Y006689D02*
X003818Y006689D01*
X004262Y006530D02*
X001106Y006530D01*
X001106Y006372D02*
X009611Y006372D01*
X009638Y006307D02*
X009742Y006203D01*
X009878Y006146D01*
X010025Y006146D01*
X010161Y006203D01*
X010265Y006307D01*
X010321Y006443D01*
X010321Y006590D01*
X010265Y006726D01*
X010161Y006830D01*
X010025Y006886D01*
X009878Y006886D01*
X009742Y006830D01*
X009638Y006726D01*
X009581Y006590D01*
X009581Y006443D01*
X009638Y006307D01*
X009731Y006213D02*
X001106Y006213D01*
X001106Y006055D02*
X013747Y006055D01*
X013753Y006053D02*
X013900Y006053D01*
X014036Y006109D01*
X014140Y006213D01*
X014196Y006349D01*
X014196Y006496D01*
X014140Y006632D01*
X014036Y006736D01*
X013900Y006793D01*
X013753Y006793D01*
X013617Y006736D01*
X013513Y006632D01*
X013456Y006496D01*
X013456Y006349D01*
X013513Y006213D01*
X013617Y006109D01*
X013753Y006053D01*
X013905Y006055D02*
X020974Y006055D01*
X020911Y006213D02*
X014140Y006213D01*
X014196Y006372D02*
X020911Y006372D01*
X020974Y006530D02*
X014182Y006530D01*
X014083Y006689D02*
X020972Y006689D01*
X020911Y006847D02*
X011605Y006847D01*
X011577Y006914D02*
X011473Y007018D01*
X011337Y007074D01*
X011190Y007074D01*
X011054Y007018D01*
X010950Y006914D01*
X010894Y006778D01*
X010894Y006630D01*
X010950Y006494D01*
X011054Y006390D01*
X011190Y006334D01*
X011337Y006334D01*
X011473Y006390D01*
X011577Y006494D01*
X011634Y006630D01*
X011634Y006778D01*
X011577Y006914D01*
X011485Y007006D02*
X020911Y007006D01*
X020975Y007164D02*
X004608Y007164D01*
X004711Y007006D02*
X011043Y007006D01*
X010923Y006847D02*
X010119Y006847D01*
X010280Y006689D02*
X010894Y006689D01*
X010935Y006530D02*
X010321Y006530D01*
X010292Y006372D02*
X011098Y006372D01*
X011429Y006372D02*
X013456Y006372D01*
X013470Y006530D02*
X011592Y006530D01*
X011634Y006689D02*
X013569Y006689D01*
X013512Y006213D02*
X010172Y006213D01*
X009784Y006847D02*
X004728Y006847D01*
X004674Y006689D02*
X009622Y006689D01*
X009581Y006530D02*
X004453Y006530D01*
X004196Y007323D02*
X021171Y007323D01*
X021449Y007481D02*
X002533Y007481D01*
X002603Y007640D02*
X021648Y007640D01*
X021995Y007640D02*
X023945Y007640D01*
X023945Y007481D02*
X022195Y007481D01*
X022260Y007323D02*
X023945Y007323D01*
X023945Y007164D02*
X022260Y007164D01*
X022200Y007006D02*
X023945Y007006D01*
X023945Y006847D02*
X022197Y006847D01*
X022260Y006689D02*
X023945Y006689D01*
X023945Y006530D02*
X022260Y006530D01*
X022198Y006372D02*
X023945Y006372D01*
X023945Y006213D02*
X022015Y006213D01*
X022142Y006055D02*
X023096Y006055D01*
X022938Y005896D02*
X022300Y005896D01*
X022370Y005738D02*
X022868Y005738D01*
X022822Y005579D02*
X022416Y005579D01*
X022416Y005421D02*
X022822Y005421D01*
X022856Y005262D02*
X022382Y005262D01*
X022317Y005104D02*
X022921Y005104D01*
X023067Y004945D02*
X022171Y004945D01*
X021879Y004787D02*
X023360Y004787D01*
X023709Y004787D02*
X023945Y004787D01*
X023945Y004628D02*
X017594Y004628D01*
X017577Y004588D02*
X017634Y004724D01*
X017634Y004871D01*
X017577Y005007D01*
X017473Y005111D01*
X017337Y005168D01*
X017190Y005168D01*
X017152Y005152D01*
X017130Y005174D01*
X016994Y005230D01*
X016846Y005230D01*
X016710Y005174D01*
X016606Y005070D01*
X016550Y004934D01*
X016550Y004787D01*
X012714Y004787D01*
X012734Y004807D02*
X012790Y004943D01*
X012790Y005090D01*
X012734Y005226D01*
X012630Y005330D01*
X012494Y005386D01*
X012346Y005386D01*
X012210Y005330D01*
X012106Y005226D01*
X012050Y005090D01*
X012050Y004943D01*
X012106Y004807D01*
X012210Y004703D01*
X012346Y004646D01*
X012494Y004646D01*
X012630Y004703D01*
X012734Y004807D01*
X012790Y004945D02*
X016555Y004945D01*
X016550Y004787D02*
X016606Y004651D01*
X016710Y004546D01*
X016846Y004490D01*
X016994Y004490D01*
X017032Y004506D01*
X017054Y004484D01*
X017190Y004428D01*
X017337Y004428D01*
X017473Y004484D01*
X017577Y004588D01*
X017439Y004470D02*
X023945Y004470D01*
X023945Y004311D02*
X014113Y004311D01*
X014070Y004330D02*
X014231Y004263D01*
X014354Y004140D01*
X014421Y003979D01*
X014421Y003804D01*
X014354Y003643D01*
X014231Y003520D01*
X014070Y003453D01*
X013895Y003453D01*
X013734Y003520D01*
X013611Y003643D01*
X013544Y003804D01*
X013544Y003979D01*
X013611Y004140D01*
X013734Y004263D01*
X013895Y004330D01*
X014070Y004330D01*
X013852Y004311D02*
X008255Y004311D01*
X008286Y004299D02*
X008183Y004342D01*
X008140Y004445D01*
X008036Y004549D01*
X007900Y004605D01*
X007865Y004605D01*
X007827Y004695D01*
X007723Y004799D01*
X007587Y004855D01*
X007440Y004855D01*
X007304Y004799D01*
X007259Y004753D01*
X007259Y004809D01*
X007218Y004907D01*
X007259Y005005D01*
X007259Y005153D01*
X007202Y005289D01*
X007098Y005393D01*
X006962Y005449D01*
X006815Y005449D01*
X006679Y005393D01*
X006575Y005289D01*
X006519Y005153D01*
X006519Y005005D01*
X006559Y004907D01*
X006519Y004809D01*
X006519Y004662D01*
X006575Y004526D01*
X006679Y004421D01*
X006769Y004384D01*
X006769Y004255D01*
X006825Y004119D01*
X006929Y004015D01*
X007065Y003959D01*
X007212Y003959D01*
X007348Y004015D01*
X007448Y004115D01*
X007475Y004115D01*
X007513Y004026D01*
X007617Y003921D01*
X007720Y003879D01*
X007763Y003776D01*
X007867Y003671D01*
X008003Y003615D01*
X008150Y003615D01*
X008286Y003671D01*
X008390Y003776D01*
X008446Y003912D01*
X008446Y004059D01*
X008390Y004195D01*
X008286Y004299D01*
X008407Y004153D02*
X013624Y004153D01*
X013551Y003994D02*
X008446Y003994D01*
X008415Y003836D02*
X013544Y003836D01*
X013597Y003677D02*
X008292Y003677D01*
X007861Y003677D02*
X004884Y003677D01*
X004884Y003715D02*
X004835Y003834D01*
X004869Y003834D01*
X005005Y003890D01*
X005109Y003994D01*
X005165Y004130D01*
X005165Y004278D01*
X005109Y004414D01*
X005005Y004518D01*
X004869Y004574D01*
X004721Y004574D01*
X004585Y004518D01*
X004481Y004414D01*
X004425Y004278D01*
X004425Y004130D01*
X004474Y004011D01*
X004440Y004011D01*
X004358Y003977D01*
X004348Y003986D01*
X004212Y004043D01*
X004173Y004043D01*
X004196Y004099D01*
X004196Y004246D01*
X004140Y004382D01*
X004036Y004486D01*
X003900Y004543D01*
X003753Y004543D01*
X003617Y004486D01*
X003513Y004382D01*
X003469Y004277D01*
X003431Y004293D01*
X003284Y004293D01*
X003148Y004236D01*
X003044Y004132D01*
X002988Y003996D01*
X002988Y003849D01*
X003044Y003713D01*
X003148Y003609D01*
X003284Y003553D01*
X003431Y003553D01*
X003567Y003609D01*
X003671Y003713D01*
X003715Y003818D01*
X003753Y003803D01*
X003792Y003803D01*
X003769Y003746D01*
X003769Y003599D01*
X003825Y003463D01*
X003929Y003359D01*
X004065Y003303D01*
X004212Y003303D01*
X004295Y003337D01*
X004304Y003328D01*
X004440Y003271D01*
X004587Y003271D01*
X004723Y003328D01*
X004827Y003432D01*
X004884Y003568D01*
X004884Y003715D01*
X004873Y003836D02*
X007738Y003836D01*
X007544Y003994D02*
X007298Y003994D01*
X006979Y003994D02*
X005109Y003994D01*
X005165Y004153D02*
X006811Y004153D01*
X006769Y004311D02*
X005151Y004311D01*
X005052Y004470D02*
X006631Y004470D01*
X006532Y004628D02*
X001106Y004628D01*
X001106Y004470D02*
X003600Y004470D01*
X003483Y004311D02*
X001106Y004311D01*
X001106Y004153D02*
X003065Y004153D01*
X002988Y003994D02*
X001106Y003994D01*
X001106Y003836D02*
X002993Y003836D01*
X003079Y003677D02*
X001106Y003677D01*
X001106Y003519D02*
X003802Y003519D01*
X003769Y003677D02*
X003636Y003677D01*
X003928Y003360D02*
X001106Y003360D01*
X001106Y003202D02*
X005940Y003202D01*
X005950Y003226D02*
X005894Y003090D01*
X005894Y002943D01*
X005950Y002807D01*
X006054Y002703D01*
X006190Y002646D01*
X006337Y002646D01*
X006473Y002703D01*
X006577Y002807D01*
X006634Y002943D01*
X006634Y003090D01*
X006577Y003226D01*
X006473Y003330D01*
X006337Y003386D01*
X006190Y003386D01*
X006054Y003330D01*
X005950Y003226D01*
X005894Y003043D02*
X001106Y003043D01*
X001106Y002885D02*
X005918Y002885D01*
X006030Y002726D02*
X001106Y002726D01*
X001106Y002568D02*
X010894Y002568D01*
X010894Y002537D02*
X010950Y002401D01*
X011054Y002296D01*
X011190Y002240D01*
X011337Y002240D01*
X011473Y002296D01*
X011577Y002401D01*
X011634Y002537D01*
X011634Y002684D01*
X011577Y002820D01*
X011473Y002924D01*
X011337Y002980D01*
X011190Y002980D01*
X011054Y002924D01*
X010950Y002820D01*
X010894Y002684D01*
X010894Y002537D01*
X010946Y002409D02*
X001106Y002409D01*
X001106Y002251D02*
X011164Y002251D01*
X011363Y002251D02*
X013701Y002251D01*
X013701Y002179D02*
X013767Y002018D01*
X013891Y001895D01*
X014052Y001828D01*
X014226Y001828D01*
X014387Y001895D01*
X014510Y002018D01*
X014577Y002179D01*
X014577Y002354D01*
X014510Y002515D01*
X014387Y002638D01*
X014226Y002705D01*
X014052Y002705D01*
X013891Y002638D01*
X013767Y002515D01*
X013701Y002354D01*
X013701Y002179D01*
X013737Y002092D02*
X006670Y002092D01*
X006821Y001934D02*
X007752Y001934D01*
X007638Y001775D02*
X006886Y001775D01*
X006898Y001617D02*
X007613Y001617D01*
X007658Y001458D02*
X006866Y001458D01*
X006045Y002092D02*
X005670Y002092D01*
X005821Y001934D02*
X005894Y001934D01*
X005045Y002092D02*
X004670Y002092D01*
X004821Y001934D02*
X004894Y001934D01*
X004045Y002092D02*
X002670Y002092D01*
X002821Y001934D02*
X003894Y001934D01*
X003829Y001775D02*
X002886Y001775D01*
X002898Y001617D02*
X003818Y001617D01*
X003849Y001458D02*
X002866Y001458D01*
X002045Y002092D02*
X001670Y002092D01*
X001821Y001934D02*
X001894Y001934D01*
X001106Y004787D02*
X006519Y004787D01*
X006544Y004945D02*
X002536Y004945D01*
X002494Y004928D02*
X002630Y004984D01*
X002734Y005088D01*
X002790Y005224D01*
X002790Y005371D01*
X002734Y005507D01*
X002630Y005611D01*
X002494Y005668D01*
X002346Y005668D01*
X002210Y005611D01*
X002106Y005507D01*
X002050Y005371D01*
X002050Y005224D01*
X002106Y005088D01*
X002210Y004984D01*
X002346Y004928D01*
X002494Y004928D01*
X002304Y004945D02*
X001106Y004945D01*
X001106Y005104D02*
X002100Y005104D01*
X002050Y005262D02*
X001106Y005262D01*
X001106Y005421D02*
X002071Y005421D01*
X002179Y005579D02*
X001106Y005579D01*
X001106Y005738D02*
X005434Y005738D01*
X005425Y005715D02*
X005425Y005568D01*
X005481Y005432D01*
X005585Y005328D01*
X005721Y005271D01*
X005869Y005271D01*
X006005Y005328D01*
X006109Y005432D01*
X006165Y005568D01*
X006165Y005715D01*
X006109Y005851D01*
X006005Y005955D01*
X005869Y006011D01*
X005721Y006011D01*
X005585Y005955D01*
X005481Y005851D01*
X005425Y005715D01*
X005425Y005579D02*
X002662Y005579D01*
X002769Y005421D02*
X005492Y005421D01*
X005527Y005896D02*
X001106Y005896D01*
X002594Y007798D02*
X021257Y007798D01*
X021099Y007957D02*
X006189Y007957D01*
X006255Y007984D02*
X006359Y008088D01*
X006415Y008224D01*
X006415Y008371D01*
X006359Y008507D01*
X006255Y008611D01*
X006119Y008668D01*
X005971Y008668D01*
X005835Y008611D01*
X005731Y008507D01*
X005675Y008371D01*
X005675Y008224D01*
X005731Y008088D01*
X005835Y007984D01*
X005971Y007928D01*
X006119Y007928D01*
X006255Y007984D01*
X006370Y008115D02*
X021034Y008115D01*
X020991Y008274D02*
X006415Y008274D01*
X006390Y008432D02*
X008762Y008432D01*
X008660Y008591D02*
X006275Y008591D01*
X005815Y008591D02*
X004650Y008591D01*
X004765Y008432D02*
X005700Y008432D01*
X005675Y008274D02*
X004790Y008274D01*
X004745Y008115D02*
X005720Y008115D01*
X005901Y007957D02*
X004564Y007957D01*
X004276Y007957D02*
X002503Y007957D01*
X001675Y009225D02*
X014688Y009225D01*
X014638Y009276D02*
X014742Y009171D01*
X014878Y009115D01*
X015025Y009115D01*
X015161Y009171D01*
X015265Y009276D01*
X015321Y009412D01*
X015321Y009559D01*
X015265Y009695D01*
X015161Y009799D01*
X015025Y009855D01*
X014878Y009855D01*
X014742Y009799D01*
X014638Y009695D01*
X014581Y009559D01*
X014581Y009412D01*
X014638Y009276D01*
X014593Y009383D02*
X001863Y009383D01*
X001937Y009542D02*
X014581Y009542D01*
X014643Y009700D02*
X001960Y009700D01*
X001940Y009859D02*
X017134Y009859D01*
X017113Y010017D02*
X001870Y010017D01*
X001692Y010176D02*
X017161Y010176D01*
X017244Y009700D02*
X016384Y009700D01*
X016402Y009225D02*
X023945Y009225D01*
X023945Y009066D02*
X023690Y009066D01*
X023075Y008908D02*
X022163Y008908D01*
X022313Y008749D02*
X022925Y008749D01*
X022859Y008591D02*
X022379Y008591D01*
X022416Y008432D02*
X022822Y008432D01*
X022822Y008274D02*
X022416Y008274D01*
X022374Y008115D02*
X022864Y008115D01*
X022930Y007957D02*
X022308Y007957D01*
X022150Y007798D02*
X023088Y007798D01*
X021107Y005896D02*
X006063Y005896D01*
X006156Y005738D02*
X021037Y005738D01*
X020991Y005579D02*
X006165Y005579D01*
X006098Y005421D02*
X006748Y005421D01*
X006564Y005262D02*
X002790Y005262D01*
X002740Y005104D02*
X006519Y005104D01*
X007030Y005421D02*
X020991Y005421D01*
X021025Y005262D02*
X012697Y005262D01*
X012784Y005104D02*
X016641Y005104D01*
X016628Y004628D02*
X007855Y004628D01*
X007735Y004787D02*
X012126Y004787D01*
X012050Y004945D02*
X007234Y004945D01*
X007259Y004787D02*
X007292Y004787D01*
X007259Y005104D02*
X012056Y005104D01*
X012143Y005262D02*
X007213Y005262D01*
X008115Y004470D02*
X017088Y004470D01*
X017481Y005104D02*
X021091Y005104D01*
X021236Y004945D02*
X017603Y004945D01*
X017634Y004787D02*
X021529Y004787D01*
X021309Y003963D02*
X021094Y003963D01*
X020895Y003880D01*
X020743Y003729D01*
X020661Y003530D01*
X020661Y003315D01*
X020743Y003117D01*
X020895Y002965D01*
X020997Y002923D01*
X020895Y002880D01*
X020743Y002729D01*
X020701Y002627D01*
X020659Y002729D01*
X020507Y002880D01*
X020309Y002963D01*
X020094Y002963D01*
X019895Y002880D01*
X019743Y002729D01*
X019701Y002627D01*
X019659Y002729D01*
X019507Y002880D01*
X019309Y002963D01*
X019094Y002963D01*
X018895Y002880D01*
X018743Y002729D01*
X018701Y002627D01*
X018659Y002729D01*
X018507Y002880D01*
X018309Y002963D01*
X018094Y002963D01*
X017895Y002880D01*
X017743Y002729D01*
X017661Y002530D01*
X017661Y002315D01*
X017743Y002117D01*
X017895Y001965D01*
X018094Y001883D01*
X018309Y001883D01*
X018507Y001965D01*
X018659Y002117D01*
X018701Y002219D01*
X018743Y002117D01*
X018895Y001965D01*
X019094Y001883D01*
X019309Y001883D01*
X019507Y001965D01*
X019659Y002117D01*
X019701Y002219D01*
X019743Y002117D01*
X019895Y001965D01*
X020094Y001883D01*
X020309Y001883D01*
X020507Y001965D01*
X020659Y002117D01*
X020701Y002219D01*
X020743Y002117D01*
X020895Y001965D01*
X021094Y001883D01*
X021309Y001883D01*
X021507Y001965D01*
X021659Y002117D01*
X021701Y002219D01*
X021743Y002117D01*
X021895Y001965D01*
X022094Y001883D01*
X022309Y001883D01*
X022507Y001965D01*
X022659Y002117D01*
X022741Y002315D01*
X022741Y002530D01*
X022659Y002729D01*
X022507Y002880D01*
X022405Y002923D01*
X022507Y002965D01*
X022659Y003117D01*
X022741Y003315D01*
X022741Y003530D01*
X022659Y003729D01*
X022507Y003880D01*
X022309Y003963D01*
X022094Y003963D01*
X021895Y003880D01*
X021743Y003729D01*
X021701Y003627D01*
X021659Y003729D01*
X021507Y003880D01*
X021309Y003963D01*
X021552Y003836D02*
X021851Y003836D01*
X021722Y003677D02*
X021680Y003677D01*
X020851Y003836D02*
X014421Y003836D01*
X014414Y003994D02*
X023945Y003994D01*
X023945Y003836D02*
X022552Y003836D01*
X022680Y003677D02*
X023945Y003677D01*
X023945Y003519D02*
X022741Y003519D01*
X022741Y003360D02*
X023945Y003360D01*
X023945Y003202D02*
X022694Y003202D01*
X022586Y003043D02*
X023945Y003043D01*
X023945Y002885D02*
X022496Y002885D01*
X022660Y002726D02*
X023945Y002726D01*
X023945Y002568D02*
X022726Y002568D01*
X022741Y002409D02*
X023945Y002409D01*
X023945Y002251D02*
X022715Y002251D01*
X022635Y002092D02*
X023945Y002092D01*
X023945Y001934D02*
X022432Y001934D01*
X021970Y001934D02*
X021432Y001934D01*
X021635Y002092D02*
X021768Y002092D01*
X020970Y001934D02*
X020432Y001934D01*
X020635Y002092D02*
X020768Y002092D01*
X020743Y002726D02*
X020660Y002726D01*
X020496Y002885D02*
X020906Y002885D01*
X020817Y003043D02*
X006634Y003043D01*
X006610Y002885D02*
X011015Y002885D01*
X010911Y002726D02*
X006497Y002726D01*
X006587Y003202D02*
X020708Y003202D01*
X020661Y003360D02*
X006400Y003360D01*
X006127Y003360D02*
X004756Y003360D01*
X004863Y003519D02*
X013737Y003519D01*
X014228Y003519D02*
X020661Y003519D01*
X020722Y003677D02*
X014368Y003677D01*
X014341Y004153D02*
X023945Y004153D01*
X023945Y001775D02*
X008327Y001775D01*
X008353Y001617D02*
X023945Y001617D01*
X023945Y001458D02*
X008307Y001458D01*
X008213Y001934D02*
X013852Y001934D01*
X013724Y002409D02*
X011581Y002409D01*
X011634Y002568D02*
X013821Y002568D01*
X014457Y002568D02*
X017677Y002568D01*
X017661Y002409D02*
X014554Y002409D01*
X014577Y002251D02*
X017688Y002251D01*
X017768Y002092D02*
X014541Y002092D01*
X014426Y001934D02*
X017970Y001934D01*
X018432Y001934D02*
X018970Y001934D01*
X018768Y002092D02*
X018635Y002092D01*
X018660Y002726D02*
X018743Y002726D01*
X018906Y002885D02*
X018496Y002885D01*
X017906Y002885D02*
X011512Y002885D01*
X011616Y002726D02*
X017743Y002726D01*
X019496Y002885D02*
X019906Y002885D01*
X019743Y002726D02*
X019660Y002726D01*
X019635Y002092D02*
X019768Y002092D01*
X019970Y001934D02*
X019432Y001934D01*
X017481Y008432D02*
X017422Y008432D01*
X016981Y008432D02*
X016891Y008432D01*
X016449Y008432D02*
X009266Y008432D01*
X009367Y008591D02*
X016329Y008591D01*
X015608Y009383D02*
X015310Y009383D01*
X015321Y009542D02*
X015743Y009542D01*
X015831Y009700D02*
X015259Y009700D01*
X015214Y009225D02*
X015486Y009225D01*
X013427Y012078D02*
X011724Y012078D01*
X011692Y012046D02*
X011796Y012151D01*
X011853Y012287D01*
X011853Y012434D01*
X011796Y012570D01*
X011692Y012674D01*
X011556Y012730D01*
X011409Y012730D01*
X011273Y012674D01*
X011169Y012570D01*
X011113Y012434D01*
X011113Y012287D01*
X011169Y012151D01*
X011273Y012046D01*
X011409Y011990D01*
X011556Y011990D01*
X011692Y012046D01*
X011832Y012236D02*
X013302Y012236D01*
X013269Y012395D02*
X011853Y012395D01*
X011803Y012553D02*
X013305Y012553D01*
X013446Y012712D02*
X011600Y012712D01*
X011365Y012712D02*
X001960Y012712D01*
X001942Y012553D02*
X009715Y012553D01*
X009742Y012580D02*
X009638Y012476D01*
X009581Y012340D01*
X009581Y012193D01*
X009638Y012057D01*
X009742Y011953D01*
X009878Y011896D01*
X010025Y011896D01*
X010161Y011953D01*
X010265Y012057D01*
X010321Y012193D01*
X010321Y012340D01*
X010265Y012476D01*
X010161Y012580D01*
X010025Y012636D01*
X009878Y012636D01*
X009742Y012580D01*
X009604Y012395D02*
X001875Y012395D01*
X001702Y012236D02*
X009581Y012236D01*
X009629Y012078D02*
X001810Y012078D01*
X001915Y011919D02*
X009822Y011919D01*
X010080Y011919D02*
X013302Y011919D01*
X013269Y011761D02*
X001960Y011761D01*
X001960Y011602D02*
X003045Y011602D01*
X003085Y011643D02*
X002981Y011539D01*
X002925Y011403D01*
X002925Y011255D01*
X002981Y011119D01*
X003085Y011015D01*
X003221Y010959D01*
X003369Y010959D01*
X003505Y011015D01*
X003609Y011119D01*
X003665Y011255D01*
X003665Y011403D01*
X003609Y011539D01*
X003505Y011643D01*
X003369Y011699D01*
X003221Y011699D01*
X003085Y011643D01*
X002942Y011444D02*
X001897Y011444D01*
X001765Y011285D02*
X002925Y011285D01*
X002978Y011127D02*
X001761Y011127D01*
X001895Y010968D02*
X003198Y010968D01*
X003392Y010968D02*
X006882Y010968D01*
X006856Y010994D02*
X006960Y010890D01*
X007096Y010834D01*
X007244Y010834D01*
X007380Y010890D01*
X007484Y010994D01*
X007540Y011130D01*
X007540Y011278D01*
X007484Y011414D01*
X007380Y011518D01*
X007244Y011574D01*
X007096Y011574D01*
X006960Y011518D01*
X006856Y011414D01*
X006800Y011278D01*
X006800Y011130D01*
X006856Y010994D01*
X006801Y011127D02*
X003612Y011127D01*
X003665Y011285D02*
X006803Y011285D01*
X006887Y011444D02*
X003648Y011444D01*
X003545Y011602D02*
X009715Y011602D01*
X009721Y011605D02*
X009585Y011549D01*
X009481Y011445D01*
X009425Y011309D01*
X009425Y011162D01*
X009481Y011026D01*
X009585Y010921D01*
X009721Y010865D01*
X009869Y010865D01*
X010005Y010921D01*
X010045Y010962D01*
X010085Y010921D01*
X010221Y010865D01*
X010369Y010865D01*
X010505Y010921D01*
X010609Y011026D01*
X010665Y011162D01*
X010665Y011309D01*
X010609Y011445D01*
X010505Y011549D01*
X010369Y011605D01*
X010221Y011605D01*
X010085Y011549D01*
X010045Y011508D01*
X010005Y011549D01*
X009869Y011605D01*
X009721Y011605D01*
X009875Y011602D02*
X010215Y011602D01*
X010375Y011602D02*
X013306Y011602D01*
X013074Y011444D02*
X012672Y011444D01*
X012702Y011414D02*
X012598Y011518D01*
X012462Y011574D01*
X012315Y011574D01*
X012179Y011518D01*
X012092Y011430D01*
X012005Y011518D01*
X011869Y011574D01*
X011721Y011574D01*
X011585Y011518D01*
X011481Y011414D01*
X011425Y011278D01*
X011425Y011130D01*
X011481Y010994D01*
X011585Y010890D01*
X011721Y010834D01*
X011869Y010834D01*
X012005Y010890D01*
X012092Y010978D01*
X012179Y010890D01*
X012315Y010834D01*
X012462Y010834D01*
X012598Y010890D01*
X012702Y010994D01*
X012759Y011130D01*
X012759Y011278D01*
X012702Y011414D01*
X012755Y011285D02*
X012991Y011285D01*
X012989Y011127D02*
X012757Y011127D01*
X012677Y010968D02*
X013070Y010968D01*
X012101Y010968D02*
X012083Y010968D01*
X012078Y011444D02*
X012106Y011444D01*
X011512Y011444D02*
X010609Y011444D01*
X010665Y011285D02*
X011428Y011285D01*
X011426Y011127D02*
X010651Y011127D01*
X010552Y010968D02*
X011507Y010968D01*
X011241Y012078D02*
X010274Y012078D01*
X010321Y012236D02*
X011133Y012236D01*
X011113Y012395D02*
X010299Y012395D01*
X010187Y012553D02*
X011162Y012553D01*
X009481Y011444D02*
X007453Y011444D01*
X007537Y011285D02*
X009425Y011285D01*
X009439Y011127D02*
X007539Y011127D01*
X007458Y010968D02*
X009538Y010968D01*
X006581Y013029D02*
X015126Y013029D01*
X015318Y013187D02*
X006663Y013187D01*
X006663Y013346D02*
X020878Y013346D01*
X020863Y013187D02*
X015772Y013187D01*
X015889Y013029D02*
X020917Y013029D01*
X020979Y013504D02*
X006580Y013504D01*
X006286Y014138D02*
X001749Y014138D01*
X001777Y014297D02*
X006238Y014297D01*
X005958Y014455D02*
X001902Y014455D01*
X001960Y014614D02*
X005894Y014614D01*
X005905Y014772D02*
X001960Y014772D01*
X001910Y014931D02*
X005951Y014931D01*
X005894Y015089D02*
X001798Y015089D01*
X001106Y015248D02*
X005907Y015248D01*
X006006Y015406D02*
X001106Y015406D01*
X001106Y015565D02*
X005934Y015565D01*
X005894Y015723D02*
X001106Y015723D01*
X001106Y015882D02*
X005924Y015882D01*
X006046Y016040D02*
X001106Y016040D01*
X001106Y016199D02*
X013361Y016199D01*
X013337Y016357D02*
X001106Y016357D01*
X001106Y016516D02*
X013269Y016516D01*
X013278Y016674D02*
X001106Y016674D01*
X001106Y016833D02*
X013370Y016833D01*
X013908Y016833D02*
X014736Y016833D01*
X014631Y016991D02*
X001106Y016991D01*
X001106Y017150D02*
X014613Y017150D01*
X014664Y017308D02*
X001106Y017308D01*
X001106Y018101D02*
X002695Y018101D01*
X002644Y018259D02*
X001106Y018259D01*
X001106Y018418D02*
X002663Y018418D01*
X002769Y018576D02*
X001106Y018576D01*
X001106Y018735D02*
X002959Y018735D01*
X002894Y018893D02*
X001106Y018893D01*
X001106Y019052D02*
X002904Y019052D01*
X002997Y019210D02*
X001106Y019210D01*
X002218Y019844D02*
X009635Y019844D01*
X009581Y020003D02*
X002259Y020003D01*
X002229Y020161D02*
X009598Y020161D01*
X009700Y020320D02*
X002108Y020320D01*
X001755Y020765D02*
X001859Y020869D01*
X001915Y021005D01*
X001915Y021153D01*
X001859Y021289D01*
X001755Y021393D01*
X001619Y021449D01*
X001471Y021449D01*
X001335Y021393D01*
X001231Y021289D01*
X001175Y021153D01*
X001175Y021005D01*
X001231Y020869D01*
X001335Y020765D01*
X001471Y020709D01*
X001619Y020709D01*
X001755Y020765D01*
X001785Y020795D02*
X014769Y020795D01*
X014790Y020954D02*
X012912Y020954D01*
X012921Y020963D02*
X012978Y021099D01*
X012978Y021246D01*
X012921Y021382D01*
X012817Y021486D01*
X012681Y021543D01*
X012534Y021543D01*
X012398Y021486D01*
X012294Y021382D01*
X012238Y021246D01*
X012238Y021099D01*
X012294Y020963D01*
X012398Y020859D01*
X012534Y020803D01*
X012681Y020803D01*
X012817Y020859D01*
X012921Y020963D01*
X012978Y021112D02*
X014899Y021112D01*
X014818Y020637D02*
X001106Y020637D01*
X001106Y020795D02*
X001305Y020795D01*
X001196Y020954D02*
X001106Y020954D01*
X001106Y021112D02*
X001175Y021112D01*
X001224Y021271D02*
X001106Y021271D01*
X001106Y021429D02*
X001424Y021429D01*
X001666Y021429D02*
X008310Y021429D01*
X008294Y021414D02*
X008238Y021278D01*
X008238Y021130D01*
X008294Y020994D01*
X008398Y020890D01*
X008534Y020834D01*
X008681Y020834D01*
X008817Y020890D01*
X008921Y020994D01*
X008978Y021130D01*
X008978Y021278D01*
X008921Y021414D01*
X008817Y021518D01*
X008681Y021574D01*
X008534Y021574D01*
X008398Y021518D01*
X008294Y021414D01*
X008238Y021271D02*
X001866Y021271D01*
X001915Y021112D02*
X008245Y021112D01*
X008334Y020954D02*
X001894Y020954D01*
X002338Y022856D02*
X001106Y022856D01*
X001106Y023014D02*
X002247Y023014D01*
X002238Y023173D02*
X001106Y023173D01*
X001106Y023331D02*
X002306Y023331D01*
X001164Y024124D02*
X001106Y024124D01*
X001106Y024599D02*
X001167Y024599D01*
X001106Y025075D02*
X023945Y025075D01*
X023945Y025233D02*
X001106Y025233D01*
X001106Y025392D02*
X023945Y025392D01*
X023945Y025550D02*
X021649Y025550D01*
X021722Y025580D02*
X021856Y025715D01*
X021929Y025890D01*
X021929Y026080D01*
X021856Y026256D01*
X021722Y026390D01*
X021546Y026463D01*
X021356Y026463D01*
X021181Y026390D01*
X021046Y026256D01*
X020974Y026080D01*
X020974Y025890D01*
X021046Y025715D01*
X021181Y025580D01*
X021356Y025508D01*
X021546Y025508D01*
X021722Y025580D01*
X021850Y025709D02*
X023945Y025709D01*
X023945Y025867D02*
X021919Y025867D01*
X021929Y026026D02*
X023945Y026026D01*
X023945Y026184D02*
X021886Y026184D01*
X021769Y026343D02*
X023945Y026343D01*
X023945Y026501D02*
X001106Y026501D01*
X001106Y026343D02*
X003134Y026343D01*
X003181Y026390D02*
X003046Y026256D01*
X002974Y026080D01*
X002974Y025890D01*
X003046Y025715D01*
X003181Y025580D01*
X003356Y025508D01*
X003546Y025508D01*
X003722Y025580D01*
X003856Y025715D01*
X003929Y025890D01*
X003929Y026080D01*
X003856Y026256D01*
X003722Y026390D01*
X003546Y026463D01*
X003356Y026463D01*
X003181Y026390D01*
X003017Y026184D02*
X001106Y026184D01*
X001106Y026026D02*
X002974Y026026D01*
X002983Y025867D02*
X001106Y025867D01*
X001106Y025709D02*
X003052Y025709D01*
X003253Y025550D02*
X001106Y025550D01*
X001106Y026660D02*
X023945Y026660D01*
X023945Y026818D02*
X001106Y026818D01*
X001106Y026977D02*
X023945Y026977D01*
X023945Y027135D02*
X001106Y027135D01*
X001106Y027294D02*
X023945Y027294D01*
X023945Y027452D02*
X001106Y027452D01*
X001106Y027611D02*
X023945Y027611D01*
X023945Y027769D02*
X001106Y027769D01*
X001106Y027928D02*
X023945Y027928D01*
X023945Y028086D02*
X001106Y028086D01*
X001106Y028245D02*
X023945Y028245D01*
X023945Y028403D02*
X001106Y028403D01*
X001106Y028562D02*
X023945Y028562D01*
X023945Y028720D02*
X001106Y028720D01*
X001106Y028879D02*
X023945Y028879D01*
X023945Y029037D02*
X011814Y029037D01*
X011775Y029021D02*
X011911Y029078D01*
X012015Y029182D01*
X012071Y029318D01*
X012071Y029465D01*
X012015Y029601D01*
X011911Y029705D01*
X011775Y029761D01*
X011628Y029761D01*
X011492Y029705D01*
X011388Y029601D01*
X011331Y029465D01*
X011331Y029318D01*
X011388Y029182D01*
X011492Y029078D01*
X011628Y029021D01*
X011775Y029021D01*
X011589Y029037D02*
X010782Y029037D01*
X010744Y029021D02*
X010880Y029078D01*
X010984Y029182D01*
X011040Y029318D01*
X011040Y029465D01*
X010984Y029601D01*
X010880Y029705D01*
X010744Y029761D01*
X010596Y029761D01*
X010460Y029705D01*
X010356Y029601D01*
X010300Y029465D01*
X010300Y029318D01*
X010356Y029182D01*
X010460Y029078D01*
X010596Y029021D01*
X010744Y029021D01*
X010558Y029037D02*
X009782Y029037D01*
X009744Y029021D02*
X009880Y029078D01*
X009984Y029182D01*
X010040Y029318D01*
X010040Y029465D01*
X009984Y029601D01*
X009880Y029705D01*
X009744Y029761D01*
X009596Y029761D01*
X009460Y029705D01*
X009356Y029601D01*
X009300Y029465D01*
X009300Y029318D01*
X009356Y029182D01*
X009460Y029078D01*
X009596Y029021D01*
X009744Y029021D01*
X009558Y029037D02*
X008782Y029037D01*
X008744Y029021D02*
X008880Y029078D01*
X008984Y029182D01*
X009040Y029318D01*
X009040Y029465D01*
X008984Y029601D01*
X008880Y029705D01*
X008744Y029761D01*
X008596Y029761D01*
X008460Y029705D01*
X008356Y029601D01*
X008300Y029465D01*
X008300Y029318D01*
X008356Y029182D01*
X008460Y029078D01*
X008596Y029021D01*
X008744Y029021D01*
X008558Y029037D02*
X007345Y029037D01*
X007306Y029021D02*
X007442Y029078D01*
X007546Y029182D01*
X007603Y029318D01*
X007603Y029465D01*
X007546Y029601D01*
X007442Y029705D01*
X007306Y029761D01*
X007159Y029761D01*
X007023Y029705D01*
X006919Y029601D01*
X006863Y029465D01*
X006863Y029318D01*
X006919Y029182D01*
X007023Y029078D01*
X007159Y029021D01*
X007306Y029021D01*
X007120Y029037D02*
X006345Y029037D01*
X006306Y029021D02*
X006442Y029078D01*
X006546Y029182D01*
X006603Y029318D01*
X006603Y029465D01*
X006546Y029601D01*
X006442Y029705D01*
X006306Y029761D01*
X006159Y029761D01*
X006023Y029705D01*
X005919Y029601D01*
X005863Y029465D01*
X005863Y029318D01*
X005919Y029182D01*
X006023Y029078D01*
X006159Y029021D01*
X006306Y029021D01*
X006120Y029037D02*
X005345Y029037D01*
X005306Y029021D02*
X005442Y029078D01*
X005546Y029182D01*
X005603Y029318D01*
X005603Y029465D01*
X005546Y029601D01*
X005442Y029705D01*
X005306Y029761D01*
X005159Y029761D01*
X005023Y029705D01*
X004919Y029601D01*
X004863Y029465D01*
X004863Y029318D01*
X004919Y029182D01*
X005023Y029078D01*
X005159Y029021D01*
X005306Y029021D01*
X005120Y029037D02*
X004314Y029037D01*
X004275Y029021D02*
X004411Y029078D01*
X004515Y029182D01*
X004571Y029318D01*
X004571Y029465D01*
X004515Y029601D01*
X004411Y029705D01*
X004275Y029761D01*
X004128Y029761D01*
X003992Y029705D01*
X003888Y029601D01*
X003831Y029465D01*
X003831Y029318D01*
X003888Y029182D01*
X003992Y029078D01*
X004128Y029021D01*
X004275Y029021D01*
X004089Y029037D02*
X001106Y029037D01*
X001106Y029196D02*
X003882Y029196D01*
X003831Y029354D02*
X001106Y029354D01*
X001106Y029513D02*
X003851Y029513D01*
X003958Y029671D02*
X001106Y029671D01*
X001106Y029830D02*
X023945Y029830D01*
X023945Y029988D02*
X001106Y029988D01*
X001106Y030147D02*
X023945Y030147D01*
X023945Y030305D02*
X001106Y030305D01*
X001106Y030464D02*
X023945Y030464D01*
X023945Y030622D02*
X001106Y030622D01*
X001106Y030781D02*
X023945Y030781D01*
X023945Y030939D02*
X001106Y030939D01*
X001106Y031098D02*
X023945Y031098D01*
X023945Y031256D02*
X001106Y031256D01*
X001106Y031415D02*
X023945Y031415D01*
X023945Y031573D02*
X022705Y031573D01*
X022722Y031580D02*
X022856Y031715D01*
X022929Y031890D01*
X022929Y032080D01*
X022856Y032256D01*
X022722Y032390D01*
X022546Y032463D01*
X022356Y032463D01*
X022181Y032390D01*
X022046Y032256D01*
X021974Y032080D01*
X021974Y031890D01*
X022046Y031715D01*
X022181Y031580D01*
X022356Y031508D01*
X022546Y031508D01*
X022722Y031580D01*
X022863Y031732D02*
X023945Y031732D01*
X023945Y031890D02*
X022929Y031890D01*
X022929Y032049D02*
X023945Y032049D01*
X023945Y032207D02*
X022876Y032207D01*
X022746Y032366D02*
X023945Y032366D01*
X023945Y032524D02*
X001106Y032524D01*
X001106Y032366D02*
X003157Y032366D01*
X003181Y032390D02*
X003046Y032256D01*
X002974Y032080D01*
X002974Y031890D01*
X003046Y031715D01*
X003181Y031580D01*
X003356Y031508D01*
X003546Y031508D01*
X003722Y031580D01*
X003856Y031715D01*
X003929Y031890D01*
X003929Y032080D01*
X003856Y032256D01*
X003722Y032390D01*
X003546Y032463D01*
X003356Y032463D01*
X003181Y032390D01*
X003027Y032207D02*
X001106Y032207D01*
X001106Y032049D02*
X002974Y032049D01*
X002974Y031890D02*
X001106Y031890D01*
X001106Y031732D02*
X003039Y031732D01*
X003197Y031573D02*
X001106Y031573D01*
X001106Y032683D02*
X023945Y032683D01*
X023945Y032841D02*
X001106Y032841D01*
X001106Y033000D02*
X023945Y033000D01*
X023945Y033158D02*
X001106Y033158D01*
X001106Y033317D02*
X023945Y033317D01*
X023945Y033475D02*
X001106Y033475D01*
X001106Y033634D02*
X023945Y033634D01*
X022157Y032366D02*
X021746Y032366D01*
X021722Y032390D02*
X021546Y032463D01*
X021356Y032463D01*
X021181Y032390D01*
X021046Y032256D01*
X020974Y032080D01*
X020974Y031890D01*
X021046Y031715D01*
X021181Y031580D01*
X021356Y031508D01*
X021546Y031508D01*
X021722Y031580D01*
X021856Y031715D01*
X021929Y031890D01*
X021929Y032080D01*
X021856Y032256D01*
X021722Y032390D01*
X021876Y032207D02*
X022027Y032207D01*
X021974Y032049D02*
X021929Y032049D01*
X021929Y031890D02*
X021974Y031890D01*
X022039Y031732D02*
X021863Y031732D01*
X021705Y031573D02*
X022197Y031573D01*
X021197Y031573D02*
X020705Y031573D01*
X020722Y031580D02*
X020856Y031715D01*
X020929Y031890D01*
X020929Y032080D01*
X020856Y032256D01*
X020722Y032390D01*
X020546Y032463D01*
X020356Y032463D01*
X020181Y032390D01*
X020046Y032256D01*
X019974Y032080D01*
X019974Y031890D01*
X020046Y031715D01*
X020181Y031580D01*
X020356Y031508D01*
X020546Y031508D01*
X020722Y031580D01*
X020863Y031732D02*
X021039Y031732D01*
X020974Y031890D02*
X020929Y031890D01*
X020929Y032049D02*
X020974Y032049D01*
X021027Y032207D02*
X020876Y032207D01*
X020746Y032366D02*
X021157Y032366D01*
X020157Y032366D02*
X019746Y032366D01*
X019722Y032390D02*
X019546Y032463D01*
X019356Y032463D01*
X019181Y032390D01*
X019046Y032256D01*
X018974Y032080D01*
X018974Y031890D01*
X019046Y031715D01*
X019181Y031580D01*
X019356Y031508D01*
X019546Y031508D01*
X019722Y031580D01*
X019856Y031715D01*
X019929Y031890D01*
X019929Y032080D01*
X019856Y032256D01*
X019722Y032390D01*
X019876Y032207D02*
X020027Y032207D01*
X019974Y032049D02*
X019929Y032049D01*
X019929Y031890D02*
X019974Y031890D01*
X020039Y031732D02*
X019863Y031732D01*
X019705Y031573D02*
X020197Y031573D01*
X019197Y031573D02*
X018705Y031573D01*
X018722Y031580D02*
X018856Y031715D01*
X018929Y031890D01*
X018929Y032080D01*
X018856Y032256D01*
X018722Y032390D01*
X018546Y032463D01*
X018356Y032463D01*
X018181Y032390D01*
X018046Y032256D01*
X017974Y032080D01*
X017974Y031890D01*
X018046Y031715D01*
X018181Y031580D01*
X018356Y031508D01*
X018546Y031508D01*
X018722Y031580D01*
X018863Y031732D02*
X019039Y031732D01*
X018974Y031890D02*
X018929Y031890D01*
X018929Y032049D02*
X018974Y032049D01*
X019027Y032207D02*
X018876Y032207D01*
X018746Y032366D02*
X019157Y032366D01*
X018157Y032366D02*
X017746Y032366D01*
X017722Y032390D02*
X017546Y032463D01*
X017356Y032463D01*
X017181Y032390D01*
X017046Y032256D01*
X016974Y032080D01*
X016974Y031890D01*
X017046Y031715D01*
X017181Y031580D01*
X017356Y031508D01*
X017546Y031508D01*
X017722Y031580D01*
X017856Y031715D01*
X017929Y031890D01*
X017929Y032080D01*
X017856Y032256D01*
X017722Y032390D01*
X017876Y032207D02*
X018027Y032207D01*
X017974Y032049D02*
X017929Y032049D01*
X017929Y031890D02*
X017974Y031890D01*
X018039Y031732D02*
X017863Y031732D01*
X017705Y031573D02*
X018197Y031573D01*
X017197Y031573D02*
X016705Y031573D01*
X016722Y031580D02*
X016856Y031715D01*
X016929Y031890D01*
X016929Y032080D01*
X016856Y032256D01*
X016722Y032390D01*
X016546Y032463D01*
X016356Y032463D01*
X016181Y032390D01*
X016046Y032256D01*
X015974Y032080D01*
X015974Y031890D01*
X016046Y031715D01*
X016181Y031580D01*
X016356Y031508D01*
X016546Y031508D01*
X016722Y031580D01*
X016863Y031732D02*
X017039Y031732D01*
X016974Y031890D02*
X016929Y031890D01*
X016929Y032049D02*
X016974Y032049D01*
X017027Y032207D02*
X016876Y032207D01*
X016746Y032366D02*
X017157Y032366D01*
X016157Y032366D02*
X015746Y032366D01*
X015722Y032390D02*
X015546Y032463D01*
X015356Y032463D01*
X015181Y032390D01*
X015046Y032256D01*
X014974Y032080D01*
X014974Y031890D01*
X015046Y031715D01*
X015181Y031580D01*
X015356Y031508D01*
X015546Y031508D01*
X015722Y031580D01*
X015856Y031715D01*
X015929Y031890D01*
X015929Y032080D01*
X015856Y032256D01*
X015722Y032390D01*
X015876Y032207D02*
X016027Y032207D01*
X015974Y032049D02*
X015929Y032049D01*
X015929Y031890D02*
X015974Y031890D01*
X016039Y031732D02*
X015863Y031732D01*
X015705Y031573D02*
X016197Y031573D01*
X015197Y031573D02*
X014705Y031573D01*
X014722Y031580D02*
X014856Y031715D01*
X014929Y031890D01*
X014929Y032080D01*
X014856Y032256D01*
X014722Y032390D01*
X014546Y032463D01*
X014356Y032463D01*
X014181Y032390D01*
X014046Y032256D01*
X013974Y032080D01*
X013974Y031890D01*
X014046Y031715D01*
X014181Y031580D01*
X014356Y031508D01*
X014546Y031508D01*
X014722Y031580D01*
X014863Y031732D02*
X015039Y031732D01*
X014974Y031890D02*
X014929Y031890D01*
X014929Y032049D02*
X014974Y032049D01*
X015027Y032207D02*
X014876Y032207D01*
X014746Y032366D02*
X015157Y032366D01*
X014157Y032366D02*
X013746Y032366D01*
X013722Y032390D02*
X013546Y032463D01*
X013356Y032463D01*
X013181Y032390D01*
X013046Y032256D01*
X012974Y032080D01*
X012974Y031890D01*
X013046Y031715D01*
X013181Y031580D01*
X013356Y031508D01*
X013546Y031508D01*
X013722Y031580D01*
X013856Y031715D01*
X013929Y031890D01*
X013929Y032080D01*
X013856Y032256D01*
X013722Y032390D01*
X013876Y032207D02*
X014027Y032207D01*
X013974Y032049D02*
X013929Y032049D01*
X013929Y031890D02*
X013974Y031890D01*
X014039Y031732D02*
X013863Y031732D01*
X013705Y031573D02*
X014197Y031573D01*
X013197Y031573D02*
X012705Y031573D01*
X012722Y031580D02*
X012856Y031715D01*
X012929Y031890D01*
X012929Y032080D01*
X012856Y032256D01*
X012722Y032390D01*
X012546Y032463D01*
X012356Y032463D01*
X012181Y032390D01*
X012046Y032256D01*
X011974Y032080D01*
X011974Y031890D01*
X012046Y031715D01*
X012181Y031580D01*
X012356Y031508D01*
X012546Y031508D01*
X012722Y031580D01*
X012863Y031732D02*
X013039Y031732D01*
X012974Y031890D02*
X012929Y031890D01*
X012929Y032049D02*
X012974Y032049D01*
X013027Y032207D02*
X012876Y032207D01*
X012746Y032366D02*
X013157Y032366D01*
X012157Y032366D02*
X011746Y032366D01*
X011722Y032390D02*
X011546Y032463D01*
X011356Y032463D01*
X011181Y032390D01*
X011046Y032256D01*
X010974Y032080D01*
X010974Y031890D01*
X011046Y031715D01*
X011181Y031580D01*
X011356Y031508D01*
X011546Y031508D01*
X011722Y031580D01*
X011856Y031715D01*
X011929Y031890D01*
X011929Y032080D01*
X011856Y032256D01*
X011722Y032390D01*
X011876Y032207D02*
X012027Y032207D01*
X011974Y032049D02*
X011929Y032049D01*
X011929Y031890D02*
X011974Y031890D01*
X012039Y031732D02*
X011863Y031732D01*
X011705Y031573D02*
X012197Y031573D01*
X011197Y031573D02*
X010705Y031573D01*
X010722Y031580D02*
X010856Y031715D01*
X010929Y031890D01*
X010929Y032080D01*
X010856Y032256D01*
X010722Y032390D01*
X010546Y032463D01*
X010356Y032463D01*
X010181Y032390D01*
X010046Y032256D01*
X009974Y032080D01*
X009974Y031890D01*
X010046Y031715D01*
X010181Y031580D01*
X010356Y031508D01*
X010546Y031508D01*
X010722Y031580D01*
X010863Y031732D02*
X011039Y031732D01*
X010974Y031890D02*
X010929Y031890D01*
X010929Y032049D02*
X010974Y032049D01*
X011027Y032207D02*
X010876Y032207D01*
X010746Y032366D02*
X011157Y032366D01*
X010157Y032366D02*
X009746Y032366D01*
X009722Y032390D02*
X009546Y032463D01*
X009356Y032463D01*
X009181Y032390D01*
X009046Y032256D01*
X008974Y032080D01*
X008974Y031890D01*
X009046Y031715D01*
X009181Y031580D01*
X009356Y031508D01*
X009546Y031508D01*
X009722Y031580D01*
X009856Y031715D01*
X009929Y031890D01*
X009929Y032080D01*
X009856Y032256D01*
X009722Y032390D01*
X009876Y032207D02*
X010027Y032207D01*
X009974Y032049D02*
X009929Y032049D01*
X009929Y031890D02*
X009974Y031890D01*
X010039Y031732D02*
X009863Y031732D01*
X009705Y031573D02*
X010197Y031573D01*
X009197Y031573D02*
X008705Y031573D01*
X008722Y031580D02*
X008856Y031715D01*
X008929Y031890D01*
X008929Y032080D01*
X008856Y032256D01*
X008722Y032390D01*
X008546Y032463D01*
X008356Y032463D01*
X008181Y032390D01*
X008046Y032256D01*
X007974Y032080D01*
X007974Y031890D01*
X008046Y031715D01*
X008181Y031580D01*
X008356Y031508D01*
X008546Y031508D01*
X008722Y031580D01*
X008863Y031732D02*
X009039Y031732D01*
X008974Y031890D02*
X008929Y031890D01*
X008929Y032049D02*
X008974Y032049D01*
X009027Y032207D02*
X008876Y032207D01*
X008746Y032366D02*
X009157Y032366D01*
X008197Y031573D02*
X007705Y031573D01*
X007722Y031580D02*
X007856Y031715D01*
X007929Y031890D01*
X007929Y032080D01*
X007856Y032256D01*
X007722Y032390D01*
X007546Y032463D01*
X007356Y032463D01*
X007181Y032390D01*
X007046Y032256D01*
X006974Y032080D01*
X006974Y031890D01*
X007046Y031715D01*
X007181Y031580D01*
X007356Y031508D01*
X007546Y031508D01*
X007722Y031580D01*
X007863Y031732D02*
X008039Y031732D01*
X007974Y031890D02*
X007929Y031890D01*
X007929Y032049D02*
X007974Y032049D01*
X008027Y032207D02*
X007876Y032207D01*
X007746Y032366D02*
X008157Y032366D01*
X007197Y031573D02*
X006705Y031573D01*
X006722Y031580D02*
X006856Y031715D01*
X006929Y031890D01*
X006929Y032080D01*
X006856Y032256D01*
X006722Y032390D01*
X006546Y032463D01*
X006356Y032463D01*
X006181Y032390D01*
X006046Y032256D01*
X005974Y032080D01*
X005974Y031890D01*
X006046Y031715D01*
X006181Y031580D01*
X006356Y031508D01*
X006546Y031508D01*
X006722Y031580D01*
X006863Y031732D02*
X007039Y031732D01*
X006974Y031890D02*
X006929Y031890D01*
X006929Y032049D02*
X006974Y032049D01*
X007027Y032207D02*
X006876Y032207D01*
X006746Y032366D02*
X007157Y032366D01*
X006197Y031573D02*
X005705Y031573D01*
X005722Y031580D02*
X005856Y031715D01*
X005929Y031890D01*
X005929Y032080D01*
X005856Y032256D01*
X005722Y032390D01*
X005546Y032463D01*
X005356Y032463D01*
X005181Y032390D01*
X005046Y032256D01*
X004974Y032080D01*
X004974Y031890D01*
X005046Y031715D01*
X005181Y031580D01*
X005356Y031508D01*
X005546Y031508D01*
X005722Y031580D01*
X005863Y031732D02*
X006039Y031732D01*
X005974Y031890D02*
X005929Y031890D01*
X005929Y032049D02*
X005974Y032049D01*
X006027Y032207D02*
X005876Y032207D01*
X005746Y032366D02*
X006157Y032366D01*
X005197Y031573D02*
X004705Y031573D01*
X004722Y031580D02*
X004856Y031715D01*
X004929Y031890D01*
X004929Y032080D01*
X004856Y032256D01*
X004722Y032390D01*
X004546Y032463D01*
X004356Y032463D01*
X004181Y032390D01*
X004046Y032256D01*
X003974Y032080D01*
X003974Y031890D01*
X004046Y031715D01*
X004181Y031580D01*
X004356Y031508D01*
X004546Y031508D01*
X004722Y031580D01*
X004863Y031732D02*
X005039Y031732D01*
X004974Y031890D02*
X004929Y031890D01*
X004929Y032049D02*
X004974Y032049D01*
X005027Y032207D02*
X004876Y032207D01*
X004746Y032366D02*
X005157Y032366D01*
X004157Y032366D02*
X003746Y032366D01*
X003876Y032207D02*
X004027Y032207D01*
X003974Y032049D02*
X003929Y032049D01*
X003929Y031890D02*
X003974Y031890D01*
X004039Y031732D02*
X003863Y031732D01*
X003705Y031573D02*
X004197Y031573D01*
X004444Y029671D02*
X004989Y029671D01*
X004882Y029513D02*
X004551Y029513D01*
X004571Y029354D02*
X004863Y029354D01*
X004913Y029196D02*
X004521Y029196D01*
X005552Y029196D02*
X005913Y029196D01*
X005863Y029354D02*
X005603Y029354D01*
X005583Y029513D02*
X005882Y029513D01*
X005989Y029671D02*
X005476Y029671D01*
X006476Y029671D02*
X006989Y029671D01*
X006882Y029513D02*
X006583Y029513D01*
X006603Y029354D02*
X006863Y029354D01*
X006913Y029196D02*
X006552Y029196D01*
X007552Y029196D02*
X008350Y029196D01*
X008300Y029354D02*
X007603Y029354D01*
X007583Y029513D02*
X008320Y029513D01*
X008427Y029671D02*
X007476Y029671D01*
X008913Y029671D02*
X009427Y029671D01*
X009320Y029513D02*
X009020Y029513D01*
X009040Y029354D02*
X009300Y029354D01*
X009350Y029196D02*
X008990Y029196D01*
X009990Y029196D02*
X010350Y029196D01*
X010300Y029354D02*
X010040Y029354D01*
X010020Y029513D02*
X010320Y029513D01*
X010427Y029671D02*
X009913Y029671D01*
X010913Y029671D02*
X011458Y029671D01*
X011351Y029513D02*
X011020Y029513D01*
X011040Y029354D02*
X011331Y029354D01*
X011382Y029196D02*
X010990Y029196D01*
X012021Y029196D02*
X023945Y029196D01*
X023945Y029354D02*
X012071Y029354D01*
X012051Y029513D02*
X023945Y029513D01*
X023945Y029671D02*
X011944Y029671D01*
X011546Y026463D02*
X011356Y026463D01*
X011181Y026390D01*
X011046Y026256D01*
X010974Y026080D01*
X010974Y025890D01*
X011046Y025715D01*
X011181Y025580D01*
X011356Y025508D01*
X011546Y025508D01*
X011722Y025580D01*
X011856Y025715D01*
X011929Y025890D01*
X011929Y026080D01*
X011856Y026256D01*
X011722Y026390D01*
X011546Y026463D01*
X011769Y026343D02*
X012134Y026343D01*
X012181Y026390D02*
X012046Y026256D01*
X011974Y026080D01*
X011974Y025890D01*
X012046Y025715D01*
X012181Y025580D01*
X012356Y025508D01*
X012546Y025508D01*
X012722Y025580D01*
X012856Y025715D01*
X012929Y025890D01*
X012929Y026080D01*
X012856Y026256D01*
X012722Y026390D01*
X012546Y026463D01*
X012356Y026463D01*
X012181Y026390D01*
X012017Y026184D02*
X011886Y026184D01*
X011929Y026026D02*
X011974Y026026D01*
X011983Y025867D02*
X011919Y025867D01*
X011850Y025709D02*
X012052Y025709D01*
X012253Y025550D02*
X011649Y025550D01*
X011253Y025550D02*
X010649Y025550D01*
X010722Y025580D02*
X010856Y025715D01*
X010929Y025890D01*
X010929Y026080D01*
X010856Y026256D01*
X010722Y026390D01*
X010546Y026463D01*
X010356Y026463D01*
X010181Y026390D01*
X010046Y026256D01*
X009974Y026080D01*
X009974Y025890D01*
X010046Y025715D01*
X010181Y025580D01*
X010356Y025508D01*
X010546Y025508D01*
X010722Y025580D01*
X010850Y025709D02*
X011052Y025709D01*
X010983Y025867D02*
X010919Y025867D01*
X010929Y026026D02*
X010974Y026026D01*
X011017Y026184D02*
X010886Y026184D01*
X010769Y026343D02*
X011134Y026343D01*
X010253Y025550D02*
X009649Y025550D01*
X009722Y025580D02*
X009856Y025715D01*
X009929Y025890D01*
X009929Y026080D01*
X009856Y026256D01*
X009722Y026390D01*
X009546Y026463D01*
X009356Y026463D01*
X009181Y026390D01*
X009046Y026256D01*
X008974Y026080D01*
X008974Y025890D01*
X009046Y025715D01*
X009181Y025580D01*
X009356Y025508D01*
X009546Y025508D01*
X009722Y025580D01*
X009850Y025709D02*
X010052Y025709D01*
X009983Y025867D02*
X009919Y025867D01*
X009929Y026026D02*
X009974Y026026D01*
X010017Y026184D02*
X009886Y026184D01*
X009769Y026343D02*
X010134Y026343D01*
X009253Y025550D02*
X008649Y025550D01*
X008722Y025580D02*
X008546Y025508D01*
X008356Y025508D01*
X008181Y025580D01*
X008046Y025715D01*
X007974Y025890D01*
X007974Y026080D01*
X008046Y026256D01*
X008181Y026390D01*
X008356Y026463D01*
X008546Y026463D01*
X008722Y026390D01*
X008856Y026256D01*
X008929Y026080D01*
X008929Y025890D01*
X008856Y025715D01*
X008722Y025580D01*
X008850Y025709D02*
X009052Y025709D01*
X008983Y025867D02*
X008919Y025867D01*
X008929Y026026D02*
X008974Y026026D01*
X009017Y026184D02*
X008886Y026184D01*
X008769Y026343D02*
X009134Y026343D01*
X008253Y025550D02*
X007649Y025550D01*
X007722Y025580D02*
X007546Y025508D01*
X007356Y025508D01*
X007181Y025580D01*
X007046Y025715D01*
X006974Y025890D01*
X006974Y026080D01*
X007046Y026256D01*
X007181Y026390D01*
X007356Y026463D01*
X007546Y026463D01*
X007722Y026390D01*
X007856Y026256D01*
X007929Y026080D01*
X007929Y025890D01*
X007856Y025715D01*
X007722Y025580D01*
X007850Y025709D02*
X008052Y025709D01*
X007983Y025867D02*
X007919Y025867D01*
X007929Y026026D02*
X007974Y026026D01*
X008017Y026184D02*
X007886Y026184D01*
X007769Y026343D02*
X008134Y026343D01*
X007253Y025550D02*
X006649Y025550D01*
X006722Y025580D02*
X006546Y025508D01*
X006356Y025508D01*
X006181Y025580D01*
X006046Y025715D01*
X005974Y025890D01*
X005974Y026080D01*
X006046Y026256D01*
X006181Y026390D01*
X006356Y026463D01*
X006546Y026463D01*
X006722Y026390D01*
X006856Y026256D01*
X006929Y026080D01*
X006929Y025890D01*
X006856Y025715D01*
X006722Y025580D01*
X006850Y025709D02*
X007052Y025709D01*
X006983Y025867D02*
X006919Y025867D01*
X006929Y026026D02*
X006974Y026026D01*
X007017Y026184D02*
X006886Y026184D01*
X006769Y026343D02*
X007134Y026343D01*
X006253Y025550D02*
X005649Y025550D01*
X005722Y025580D02*
X005546Y025508D01*
X005356Y025508D01*
X005181Y025580D01*
X005046Y025715D01*
X004974Y025890D01*
X004974Y026080D01*
X005046Y026256D01*
X005181Y026390D01*
X005356Y026463D01*
X005546Y026463D01*
X005722Y026390D01*
X005856Y026256D01*
X005929Y026080D01*
X005929Y025890D01*
X005856Y025715D01*
X005722Y025580D01*
X005850Y025709D02*
X006052Y025709D01*
X005983Y025867D02*
X005919Y025867D01*
X005929Y026026D02*
X005974Y026026D01*
X006017Y026184D02*
X005886Y026184D01*
X005769Y026343D02*
X006134Y026343D01*
X005253Y025550D02*
X004649Y025550D01*
X004722Y025580D02*
X004546Y025508D01*
X004356Y025508D01*
X004181Y025580D01*
X004046Y025715D01*
X003974Y025890D01*
X003974Y026080D01*
X004046Y026256D01*
X004181Y026390D01*
X004356Y026463D01*
X004546Y026463D01*
X004722Y026390D01*
X004856Y026256D01*
X004929Y026080D01*
X004929Y025890D01*
X004856Y025715D01*
X004722Y025580D01*
X004850Y025709D02*
X005052Y025709D01*
X004983Y025867D02*
X004919Y025867D01*
X004929Y026026D02*
X004974Y026026D01*
X005017Y026184D02*
X004886Y026184D01*
X004769Y026343D02*
X005134Y026343D01*
X004253Y025550D02*
X003649Y025550D01*
X003850Y025709D02*
X004052Y025709D01*
X003983Y025867D02*
X003919Y025867D01*
X003929Y026026D02*
X003974Y026026D01*
X004017Y026184D02*
X003886Y026184D01*
X003769Y026343D02*
X004134Y026343D01*
X008881Y020954D02*
X012303Y020954D01*
X012238Y021112D02*
X008970Y021112D01*
X008978Y021271D02*
X012248Y021271D01*
X012341Y021429D02*
X008905Y021429D01*
X010119Y018893D02*
X007659Y018893D01*
X007661Y018893D02*
X007525Y018949D01*
X007378Y018949D01*
X007242Y018893D01*
X007138Y018789D01*
X007081Y018653D01*
X007081Y018505D01*
X007138Y018369D01*
X007242Y018265D01*
X007378Y018209D01*
X007525Y018209D01*
X007661Y018265D01*
X007765Y018369D01*
X007821Y018505D01*
X007821Y018653D01*
X007765Y018789D01*
X007661Y018893D01*
X007787Y018735D02*
X009990Y018735D01*
X009687Y018101D02*
X003628Y018101D01*
X003399Y018101D02*
X003333Y018101D01*
X003834Y018259D02*
X007256Y018259D01*
X007117Y018418D02*
X004064Y018418D01*
X004156Y018576D02*
X007081Y018576D01*
X007115Y018735D02*
X004165Y018735D01*
X004097Y018893D02*
X007244Y018893D01*
X007821Y018576D02*
X009644Y018576D01*
X009581Y018418D02*
X007785Y018418D01*
X007647Y018259D02*
X009592Y018259D01*
X010534Y018893D02*
X010650Y018893D01*
X012967Y021271D02*
X020238Y021271D01*
X020258Y021112D02*
X015783Y021112D01*
X015912Y020954D02*
X020365Y020954D01*
X020287Y021429D02*
X012874Y021429D01*
X012590Y024124D02*
X015914Y024124D01*
X015833Y024282D02*
X012749Y024282D01*
X012790Y024441D02*
X015834Y024441D01*
X015917Y024599D02*
X012760Y024599D01*
X012649Y025550D02*
X013253Y025550D01*
X013181Y025580D02*
X013356Y025508D01*
X013546Y025508D01*
X013722Y025580D01*
X013856Y025715D01*
X013929Y025890D01*
X013929Y026080D01*
X013856Y026256D01*
X013722Y026390D01*
X013546Y026463D01*
X013356Y026463D01*
X013181Y026390D01*
X013046Y026256D01*
X012974Y026080D01*
X012974Y025890D01*
X013046Y025715D01*
X013181Y025580D01*
X013052Y025709D02*
X012850Y025709D01*
X012919Y025867D02*
X012983Y025867D01*
X012974Y026026D02*
X012929Y026026D01*
X012886Y026184D02*
X013017Y026184D01*
X013134Y026343D02*
X012769Y026343D01*
X013769Y026343D02*
X014134Y026343D01*
X014181Y026390D02*
X014046Y026256D01*
X013974Y026080D01*
X013974Y025890D01*
X014046Y025715D01*
X014181Y025580D01*
X014356Y025508D01*
X014546Y025508D01*
X014722Y025580D01*
X014856Y025715D01*
X014929Y025890D01*
X014929Y026080D01*
X014856Y026256D01*
X014722Y026390D01*
X014546Y026463D01*
X014356Y026463D01*
X014181Y026390D01*
X014017Y026184D02*
X013886Y026184D01*
X013929Y026026D02*
X013974Y026026D01*
X013983Y025867D02*
X013919Y025867D01*
X013850Y025709D02*
X014052Y025709D01*
X014253Y025550D02*
X013649Y025550D01*
X014649Y025550D02*
X015253Y025550D01*
X015181Y025580D02*
X015356Y025508D01*
X015546Y025508D01*
X015722Y025580D01*
X015856Y025715D01*
X015929Y025890D01*
X015929Y026080D01*
X015856Y026256D01*
X015722Y026390D01*
X015546Y026463D01*
X015356Y026463D01*
X015181Y026390D01*
X015046Y026256D01*
X014974Y026080D01*
X014974Y025890D01*
X015046Y025715D01*
X015181Y025580D01*
X015052Y025709D02*
X014850Y025709D01*
X014919Y025867D02*
X014983Y025867D01*
X014974Y026026D02*
X014929Y026026D01*
X014886Y026184D02*
X015017Y026184D01*
X015134Y026343D02*
X014769Y026343D01*
X015769Y026343D02*
X016134Y026343D01*
X016181Y026390D02*
X016046Y026256D01*
X015974Y026080D01*
X015974Y025890D01*
X016046Y025715D01*
X016181Y025580D01*
X016356Y025508D01*
X016546Y025508D01*
X016722Y025580D01*
X016856Y025715D01*
X016929Y025890D01*
X016929Y026080D01*
X016856Y026256D01*
X016722Y026390D01*
X016546Y026463D01*
X016356Y026463D01*
X016181Y026390D01*
X016017Y026184D02*
X015886Y026184D01*
X015929Y026026D02*
X015974Y026026D01*
X015983Y025867D02*
X015919Y025867D01*
X015850Y025709D02*
X016052Y025709D01*
X016253Y025550D02*
X015649Y025550D01*
X016649Y025550D02*
X017253Y025550D01*
X017181Y025580D02*
X017356Y025508D01*
X017546Y025508D01*
X017722Y025580D01*
X017856Y025715D01*
X017929Y025890D01*
X017929Y026080D01*
X017856Y026256D01*
X017722Y026390D01*
X017546Y026463D01*
X017356Y026463D01*
X017181Y026390D01*
X017046Y026256D01*
X016974Y026080D01*
X016974Y025890D01*
X017046Y025715D01*
X017181Y025580D01*
X017052Y025709D02*
X016850Y025709D01*
X016919Y025867D02*
X016983Y025867D01*
X016974Y026026D02*
X016929Y026026D01*
X016886Y026184D02*
X017017Y026184D01*
X017134Y026343D02*
X016769Y026343D01*
X017769Y026343D02*
X018134Y026343D01*
X018181Y026390D02*
X018046Y026256D01*
X017974Y026080D01*
X017974Y025890D01*
X018046Y025715D01*
X018181Y025580D01*
X018356Y025508D01*
X018546Y025508D01*
X018722Y025580D01*
X018856Y025715D01*
X018929Y025890D01*
X018929Y026080D01*
X018856Y026256D01*
X018722Y026390D01*
X018546Y026463D01*
X018356Y026463D01*
X018181Y026390D01*
X018017Y026184D02*
X017886Y026184D01*
X017929Y026026D02*
X017974Y026026D01*
X017983Y025867D02*
X017919Y025867D01*
X017850Y025709D02*
X018052Y025709D01*
X018253Y025550D02*
X017649Y025550D01*
X018649Y025550D02*
X019253Y025550D01*
X019181Y025580D02*
X019356Y025508D01*
X019546Y025508D01*
X019722Y025580D01*
X019856Y025715D01*
X019929Y025890D01*
X019929Y026080D01*
X019856Y026256D01*
X019722Y026390D01*
X019546Y026463D01*
X019356Y026463D01*
X019181Y026390D01*
X019046Y026256D01*
X018974Y026080D01*
X018974Y025890D01*
X019046Y025715D01*
X019181Y025580D01*
X019052Y025709D02*
X018850Y025709D01*
X018919Y025867D02*
X018983Y025867D01*
X018974Y026026D02*
X018929Y026026D01*
X018886Y026184D02*
X019017Y026184D01*
X019134Y026343D02*
X018769Y026343D01*
X019769Y026343D02*
X020134Y026343D01*
X020181Y026390D02*
X020046Y026256D01*
X019974Y026080D01*
X019974Y025890D01*
X020046Y025715D01*
X020181Y025580D01*
X020356Y025508D01*
X020546Y025508D01*
X020722Y025580D01*
X020856Y025715D01*
X020929Y025890D01*
X020929Y026080D01*
X020856Y026256D01*
X020722Y026390D01*
X020546Y026463D01*
X020356Y026463D01*
X020181Y026390D01*
X020017Y026184D02*
X019886Y026184D01*
X019929Y026026D02*
X019974Y026026D01*
X019983Y025867D02*
X019919Y025867D01*
X019850Y025709D02*
X020052Y025709D01*
X020253Y025550D02*
X019649Y025550D01*
X020649Y025550D02*
X021253Y025550D01*
X021052Y025709D02*
X020850Y025709D01*
X020919Y025867D02*
X020983Y025867D01*
X020974Y026026D02*
X020929Y026026D01*
X020886Y026184D02*
X021017Y026184D01*
X021134Y026343D02*
X020769Y026343D01*
X014214Y018576D02*
X013228Y018576D01*
X013180Y018735D02*
X014084Y018735D01*
X013274Y016040D02*
X006482Y016040D01*
X006603Y015882D02*
X013269Y015882D01*
X013346Y015723D02*
X006634Y015723D01*
X006594Y015565D02*
X020445Y015565D01*
X020328Y015406D02*
X006522Y015406D01*
X001165Y009225D02*
X001106Y009225D01*
X004052Y004470D02*
X004538Y004470D01*
X004439Y004311D02*
X004169Y004311D01*
X004196Y004153D02*
X004425Y004153D01*
X004399Y003994D02*
X004329Y003994D01*
X013771Y014931D02*
X020513Y014931D01*
X021012Y015406D02*
X023945Y015406D01*
X023945Y015248D02*
X021040Y015248D01*
X020895Y015565D02*
X023945Y015565D01*
X023945Y015089D02*
X023724Y015089D01*
X023837Y014931D02*
X023945Y014931D01*
X023945Y014772D02*
X023882Y014772D01*
X023879Y014614D02*
X023945Y014614D01*
X023945Y014455D02*
X023813Y014455D01*
X023729Y014297D02*
X023945Y014297D01*
X023945Y014138D02*
X023839Y014138D01*
X023882Y013980D02*
X023945Y013980D01*
X023945Y013821D02*
X023877Y013821D01*
X023811Y013663D02*
X023945Y013663D01*
X023028Y015089D02*
X022937Y015089D01*
M02*
